<?xml version="1.0" encoding="UTF-8"?>
<!DOCTYPE svg PUBLIC "-//W3C//DTD SVG 1.1//EN" "http://www.w3.org/Graphics/SVG/1.1/DTD/svg11.dtd">
<!-- Creator: CorelDRAW 2017 -->
<svg xmlns="http://www.w3.org/2000/svg" xml:space="preserve" width="13.3333in" height="10in" version="1.1" style="shape-rendering:geometricPrecision; text-rendering:geometricPrecision; image-rendering:optimizeQuality; fill-rule:evenodd; clip-rule:evenodd"
viewBox="0 0 13333 10000"
 xmlns:xlink="http://www.w3.org/1999/xlink">
 <defs>
  <style type="text/css">
   <![CDATA[
    .fil10 {fill:#152652}
    .fil8 {fill:#18E3F5}
    .fil7 {fill:#1D3663}
    .fil5 {fill:#2C5484}
    .fil3 {fill:#2C847E}
    .fil4 {fill:#6DACEA}
    .fil2 {fill:#D0F1F7}
    .fil13 {fill:#D4F1F8}
    .fil0 {fill:#E3E3E3}
    .fil14 {fill:#ECFCFF}
    .fil6 {fill:#F7F2F3}
    .fil11 {fill:#FBFFFF}
    .fil1 {fill:white}
    .fil12 {fill:#6DACEA;fill-rule:nonzero}
    .fil9 {fill:#D0F1F7;fill-rule:nonzero}
   ]]>
  </style>
 </defs>
 <g id="Layer_x0020_1">
  <metadata id="CorelCorpID_0Corel-Layer"/>
  <path class="fil0" d="M4648 4638c17,-5 14,18 15,27 12,-16 33,27 24,52 31,-7 42,24 33,80 28,-18 41,19 32,52 40,-1 12,49 23,73 16,35 33,95 1,133 56,-13 34,21 17,58 1,2 81,-22 10,109 59,-8 9,144 -23,165 69,0 11,111 2,121l-11 1 -258 0c-46,-67 -60,-215 -16,-203 -45,-39 -116,-194 -48,-183 -24,-41 -11,-89 15,-72 -33,-70 -24,-110 33,-94 -14,-7 -38,-63 -3,-68 -17,-29 -4,-47 21,-40 1,-19 -4,-84 26,-76 27,8 -13,-45 15,-52 -3,-22 9,-26 17,-21 4,-52 22,-54 34,-41 2,-7 2,-15 3,-23 3,-34 25,-51 34,-6 1,5 1,9 3,10z"/>
  <path class="fil0" d="M4427 5294c42,-34 104,25 84,64 109,6 127,102 43,153l-443 0c-11,-40 -8,-72 57,-65 -30,-16 -31,-102 51,-87 -28,-49 44,-85 68,-44 -24,-89 138,-103 141,-21z"/>
  <polygon class="fil0" points="7322,5509 7322,4532 7347,4532 7347,4495 6966,4495 6966,4222 6418,4222 6418,4826 6086,4826 6086,4241 5831,4241 5575,4377 5575,4667 5294,4667 5294,4152 4783,4152 4783,5509 "/>
  <polygon class="fil0" points="3691,5630 8381,5630 8381,5509 3691,5509 "/>
  <polygon class="fil1" points="5919,4450 5998,4450 5998,4343 5919,4343 "/>
  <polygon class="fil1" points="5919,4610 5998,4610 5998,4504 5919,4504 "/>
  <polygon class="fil1" points="5664,4610 5742,4610 5742,4504 5664,4504 "/>
  <polygon class="fil1" points="6251,5076 6329,5076 6329,4969 6251,4969 "/>
  <polygon class="fil1" points="6251,5237 6329,5237 6329,5130 6251,5130 "/>
  <polygon class="fil1" points="5127,4361 5206,4361 5206,4254 5127,4254 "/>
  <polygon class="fil1" points="5127,4521 5206,4521 5206,4415 5127,4415 "/>
  <polygon class="fil1" points="4871,4521 4950,4521 4950,4415 4871,4415 "/>
  <polygon class="fil1" points="4871,4682 4950,4682 4950,4576 4871,4576 "/>
  <polygon class="fil1" points="6513,4449 6597,4449 6597,4335 6513,4335 "/>
  <polygon class="fil1" points="6513,4621 6597,4621 6597,4507 6513,4507 "/>
  <path class="fil2" d="M5846 3605c-537,0 -1075,0 -1612,0 7,-136 96,-236 225,-202 -4,-17 -6,-35 -6,-54 0,-141 114,-256 256,-256 86,0 162,42 208,108 44,-50 109,-81 181,-81 61,0 117,23 159,60 43,-37 98,-60 159,-60 115,0 211,80 236,187 143,21 232,136 194,298z"/>
  <path class="fil2" d="M6538 3311c507,0 1013,0 1520,0 -6,-128 -90,-223 -212,-190 4,-16 5,-33 5,-51 0,-133 -108,-241 -241,-241 -81,0 -153,40 -196,101 -42,-47 -103,-76 -170,-76 -57,0 -110,21 -150,56 -40,-35 -93,-56 -150,-56 -108,0 -199,75 -222,176 -135,19 -218,128 -183,281z"/>
  <path class="fil3" d="M5427 6964l2391 386c162,26 359,24 517,-21l2851 -813 -3022 -281 -2996 572c-386,74 -48,109 260,157z"/>
  <polygon class="fil4" points="3783,6354 3783,6482 2830,6520 2582,6447 2582,6328 2803,6393 "/>
  <polygon class="fil5" points="2830,6520 2582,6447 2582,6328 2803,6393 2830,6392 "/>
  <path class="fil6" d="M3830 4076l0 2276 -1027 41 -267 -79 0 -2762c0,-172 1294,-257 1294,524z"/>
  <path class="fil5" d="M5980 5334c196,40 321,360 284,749 -39,416 -248,753 -467,753 -64,12 -307,-20 -385,-43l0 0c-203,-29 -334,-354 -297,-751 37,-391 224,-712 428,-749 14,-13 27,-22 39,-24 88,-18 398,66 398,66l0 0z"/>
  <path class="fil7" d="M8974 6695l-155 -15 -549 -982 649 -225 2295 -167 263 181c-8,150 -2,305 -38,446l-2466 761z"/>
  <path class="fil5" d="M11284 5418c111,29 179,264 153,549 -28,302 -150,548 -274,552 0,0 0,0 0,0 -14,3 -255,-13 -280,-20l0 0c-142,-13 -229,-255 -197,-552 30,-278 156,-508 290,-546 14,-17 28,-29 39,-32 60,-13 269,49 269,49l0 0z"/>
  <path class="fil6" d="M11251 5571c92,0 149,178 128,397 -21,219 -113,397 -204,397 -92,0 -149,-178 -128,-397 21,-219 113,-397 204,-397z"/>
  <path class="fil5" d="M11246 5616c81,0 132,157 113,351 -19,194 -100,351 -181,351 -81,0 -132,-157 -113,-351 19,-194 100,-351 181,-351z"/>
  <path class="fil6" d="M11208 6011c-22,0 -23,52 -32,69 -11,23 -15,21 -27,59 -11,37 -24,143 -28,186l54 29 59 -29c4,-43 11,-149 8,-186 -4,-38 -9,-35 -15,-59 -5,-18 4,-69 -18,-69zm-9 88c10,8 15,25 18,49 2,17 -2,97 -4,134 -2,34 -23,31 -35,34 -11,-3 -33,0 -28,-34 5,-37 17,-118 22,-134 8,-24 16,-42 27,-49z"/>
  <path class="fil5" d="M11207 6028c5,0 8,10 7,22 -1,12 -6,22 -11,22 -5,0 -8,-10 -7,-22 1,-12 6,-22 11,-22z"/>
  <path class="fil6" d="M11194 5981c-2,-50 -24,-26 -32,-36 -11,-13 -10,-24 -27,-30 -16,-6 -62,20 -80,33l-8 138 17 120c18,-13 63,-52 79,-80 16,-29 14,-39 23,-66 7,-21 29,-28 27,-78zm-38 27c-2,27 -9,48 -19,67 -7,13 -41,46 -57,61 -15,14 -15,-36 -17,-61 0,-27 -3,-76 12,-82 16,-7 51,-24 58,-21 11,5 19,14 23,37z"/>
  <path class="fil5" d="M11186 5986c0,12 -3,24 -9,28 -5,4 -10,-3 -10,-14 0,-12 3,-24 9,-28 5,-4 10,3 10,14z"/>
  <path class="fil6" d="M11205 5933c21,-31 9,-67 12,-91 5,-32 9,-36 10,-77 1,-41 -14,-131 -21,-166l-58 55 -49 102c7,35 27,117 40,137 14,20 17,12 30,19 9,5 14,52 35,22zm-14 -72c-12,9 -21,4 -30,-9 -6,-8 -23,-69 -30,-97 -7,-26 14,-53 24,-72 11,-13 31,-46 35,-16 4,33 14,103 14,121 -1,27 -4,50 -13,72z"/>
  <path class="fil5" d="M11202 5918c-5,7 -10,5 -12,-5 -2,-10 0,-24 5,-31 5,-7 10,-5 12,5 2,10 0,24 -5,31z"/>
  <path class="fil6" d="M11227 5933c15,32 29,-15 39,-20 14,-6 16,3 33,-17 17,-19 54,-100 68,-134l-28 -104 -47 -58c-14,34 -47,124 -54,164 -7,42 -4,46 -5,78 -1,24 -21,60 -6,91zm29 -71c-5,-22 -3,-45 1,-72 3,-18 27,-88 38,-120 10,-30 24,4 32,18 7,19 22,47 10,73 -13,27 -42,87 -50,95 -11,12 -22,16 -31,7z"/>
  <path class="fil5" d="M11232 5919c-3,-7 -3,-21 1,-31 4,-10 10,-12 13,-5 3,7 3,21 -1,31 -4,10 -10,12 -13,5z"/>
  <path class="fil6" d="M11228 5982c-12,50 9,58 12,79 4,28 0,37 10,67 9,29 46,70 62,84l41 -118 20 -138c-16,-14 -56,-42 -73,-37 -18,5 -19,16 -33,29 -10,10 -27,-16 -39,34zm32 29c9,-22 19,-31 30,-35 8,-3 39,16 54,24 13,7 0,56 -5,82 -7,25 -18,75 -30,60 -12,-16 -40,-50 -44,-64 -6,-20 -9,-40 -6,-67z"/>
  <path class="fil5" d="M11234 5988c3,-12 9,-18 13,-14 4,4 6,17 3,28 -3,12 -9,18 -13,14 -4,-4 -6,-17 -3,-28z"/>
  <path class="fil6" d="M11201 6035c4,0 6,7 5,16 -1,9 -4,16 -8,16 -4,0 -6,-7 -5,-16 1,-9 4,-16 8,-16z"/>
  <path class="fil6" d="M11179 5988c0,8 -2,17 -6,20 -4,3 -7,-2 -7,-10 0,-8 2,-17 6,-20 4,-3 7,2 7,10z"/>
  <path class="fil6" d="M11197 5913c-3,5 -7,3 -9,-4 -1,-7 0,-17 4,-22 3,-5 7,-3 9,4 1,7 0,17 -4,22z"/>
  <path class="fil6" d="M11230 5914c-2,-5 -2,-15 1,-22 3,-7 7,-8 9,-3 2,5 2,15 -1,22 -3,7 -7,8 -9,3z"/>
  <path class="fil6" d="M11232 5990c2,-8 6,-13 9,-10 3,3 4,12 2,20 -2,8 -6,13 -9,10 -3,-3 -4,-12 -2,-20z"/>
  <path class="fil6" d="M11216 5934c8,0 13,15 11,34 -2,19 -10,34 -17,34 -8,0 -13,-15 -11,-34 2,-19 10,-34 17,-34z"/>
  <path class="fil5" d="M8667 5764c196,40 321,360 284,749 -39,416 -248,753 -467,753 -44,8 -201,-7 -289,-25 -88,-17 -123,-45 -123,-45l0 0c-187,-53 -305,-366 -269,-745 39,-416 248,-753 467,-753 88,-18 398,66 398,66l0 0z"/>
  <path class="fil8" d="M5173 5318l147 -123c598,-500 1254,-995 1989,-1283 692,-272 2681,-335 3338,61 122,67 254,131 326,156 42,14 74,87 39,122 131,195 336,465 431,661 61,126 92,987 -4,1022 0,0 27,-170 7,-306 -8,-53 -24,-100 -47,-136 -59,-93 -160,-113 -265,5 -149,168 -193,531 -231,655 -12,80 -68,130 -68,130l-1862 414c-33,0 -20,-26 -17,-46 82,-471 15,-733 -124,-844 -239,-191 -548,61 -673,266 -109,178 -185,423 -228,726 -4,110 -81,162 -184,156 -729,-41 -2042,-181 -2776,-379 -87,-22 -112,-57 -96,-131 10,-47 26,-110 34,-144 5,-115 4,-579 29,-659 38,-120 136,-239 235,-322z"/>
  <path class="fil9" d="M5687 4897c24,-19 46,-36 70,-55 113,-64 203,-94 261,-108l-5 18c0,0 -90,11 -326,145z"/>
  <path class="fil10" d="M11012 4251l121 174 -156 22c-28,4 -27,13 -44,37 0,0 -135,-177 -210,-348 33,25 235,119 288,114z"/>
  <path class="fil10" d="M8954 5029l2001 -457c30,-12 -157,-384 -231,-434 -185,-106 -459,-226 -657,-263 -872,-154 -1476,1264 -1113,1154z"/>
  <path class="fil3" d="M10687 4183c-41,-23 -86,-48 -134,-73 -157,-81 -344,-160 -495,-187 -126,-23 -251,-10 -372,32 -119,42 -227,111 -323,193 -162,139 -305,332 -394,527 -31,67 -61,148 -70,222 -2,16 -7,75 9,86 6,5 25,0 31,-2l2 0 1945 -440c2,-1 -146,-321 -199,-358z"/>
  <path class="fil9" d="M9105 5377c14,146 14,984 14,987 0,0 -1,60 58,47l1481 -328c60,-13 65,-46 74,-108 2,-10 3,-22 5,-34 17,-102 44,-224 86,-346 33,-96 75,-192 129,-280 66,-108 102,-228 112,-353 11,-135 -7,-274 -49,-408 -21,-68 -72,-191 -133,-294 -42,-71 -89,-132 -134,-157 -59,-33 -154,-77 -258,-122 -100,-42 -208,-84 -301,-115 -126,-42 -276,-58 -421,-43 -133,14 -262,54 -364,125 -75,52 -187,167 -281,289 -81,105 -149,215 -168,292 -6,25 -2,92 6,169 9,80 25,258 51,330 39,111 81,229 92,348zm0 987c0,-2 0,-840 -14,-985 -11,-116 -53,-234 -92,-344l-5 -14 0 0 0 -1c-10,-48 -33,-196 -47,-318 -8,-78 -12,-147 -6,-173 20,-80 88,-191 171,-297 95,-123 208,-240 284,-292 104,-72 235,-113 371,-127 147,-15 299,1 427,43 93,31 202,73 302,115 105,44 201,89 260,122 47,26 96,89 139,162 61,103 113,227 134,296 42,135 61,277 49,413 -11,127 -47,250 -114,359 -53,86 -95,182 -127,277 -42,122 -69,243 -86,344 -2,12 -4,23 -5,34 -10,68 -15,104 -85,119l-1481 328c-77,17 -75,-60 -75,-61z"/>
  <path class="fil7" d="M5949 5356c89,5 284,29 373,34 37,2 58,29 31,59l-199 215c-72,107 -451,35 -404,-36l93 -221c13,-30 68,-54 105,-52z"/>
  <path class="fil5" d="M5949 5356c89,5 284,29 373,34 37,2 66,-18 49,-43l-130 -187c-24,-58 -442,-127 -404,-36l24 181c3,25 50,48 88,50z"/>
  <path class="fil10" d="M8957 4811c0,0 -38,49 -69,104 -69,125 0,146 166,91l-97 -195z"/>
  <path class="fil2" d="M4981 6004c4,49 6,158 22,200 10,25 27,50 48,64 299,208 2465,450 2629,217l29 -151c10,-50 -6,-45 -53,-45 -209,4 -311,9 -499,106 -66,32 -144,49 -333,54 -256,12 -1472,-101 -1661,-232 -50,-35 -44,-51 -87,-120 -14,-23 -76,-85 -95,-93z"/>
  <path class="fil6" d="M8614 5972c160,0 266,243 236,542 -30,299 -184,542 -344,542 -160,0 -266,-243 -236,-542 30,-299 184,-542 344,-542z"/>
  <path class="fil5" d="M8607 6035c142,0 235,215 209,479 -26,265 -163,479 -304,479 -142,0 -235,-215 -209,-479 26,-265 163,-479 304,-479z"/>
  <path class="fil6" d="M8554 6573c-39,0 -39,70 -53,94 -19,32 -26,28 -45,80 -18,51 -38,195 -44,254l95 40 103 -40c6,-58 15,-203 7,-254 -8,-52 -16,-48 -29,-80 -9,-24 4,-94 -34,-94zm-12 120c18,10 27,35 33,67 4,22 -1,133 -3,183 -2,47 -39,43 -60,47 -20,-4 -58,0 -50,-47 8,-50 25,-160 34,-183 12,-33 26,-57 46,-67z"/>
  <path class="fil5" d="M8551 6597c9,0 15,14 13,30 -2,17 -10,30 -19,30 -9,0 -15,-14 -13,-30 2,-17 10,-30 19,-30z"/>
  <path class="fil6" d="M8528 6532c-5,-69 -42,-35 -57,-49 -19,-18 -18,-33 -48,-41 -29,-8 -108,27 -139,45l-9 188 34 164c32,-18 109,-71 135,-110 26,-40 23,-53 39,-90 12,-28 50,-38 46,-106zm-65 37c-3,37 -15,65 -31,91 -11,18 -70,62 -97,83 -25,19 -27,-50 -32,-84 0,-37 -7,-103 18,-112 28,-10 88,-33 101,-28 19,6 33,20 41,50z"/>
  <path class="fil5" d="M8515 6539c1,16 -5,33 -14,38 -9,5 -17,-4 -18,-20 -1,-16 5,-33 14,-38 9,-5 17,4 18,20z"/>
  <path class="fil6" d="M8546 6466c36,-42 13,-92 19,-124 7,-43 15,-49 16,-106 0,-55 -28,-179 -41,-226l-100 75 -82 140c13,48 51,160 75,187 24,28 31,16 53,25 16,7 26,71 62,30zm-28 -98c-20,12 -36,5 -52,-12 -11,-12 -42,-95 -56,-132 -13,-35 23,-73 40,-98 19,-18 53,-63 62,-22 9,44 28,140 28,166 -1,37 -6,69 -21,98z"/>
  <path class="fil5" d="M8540 6446c-8,10 -18,7 -22,-7 -4,-14 0,-33 8,-42 8,-10 18,-7 22,7 4,14 0,33 -8,42z"/>
  <path class="fil6" d="M8583 6467c27,43 50,-21 68,-27 24,-8 28,4 58,-23 29,-26 91,-136 114,-183l-52 -142 -84 -79c-23,47 -78,169 -89,224 -12,57 -5,62 -7,106 -2,33 -34,81 -8,124zm48 -96c-9,-29 -7,-62 0,-98 5,-25 45,-120 63,-164 17,-41 41,5 57,24 12,26 40,65 19,99 -22,37 -71,118 -84,129 -19,16 -37,22 -54,10z"/>
  <path class="fil5" d="M8593 6448c-6,-10 -6,-29 1,-42 7,-13 17,-16 23,-6 6,10 6,29 -1,42 -7,13 -17,16 -23,6z"/>
  <path class="fil6" d="M8587 6533c-19,68 17,79 23,108 7,38 2,51 19,92 17,40 83,96 111,115l69 -162 31 -188c-28,-19 -99,-57 -129,-51 -31,7 -34,22 -57,39 -17,13 -47,-22 -67,46zm57 39c14,-30 32,-43 52,-48 14,-4 69,22 94,32 24,10 3,76 -6,112 -12,34 -29,102 -50,82 -22,-22 -71,-68 -79,-87 -11,-27 -17,-55 -12,-92z"/>
  <path class="fil5" d="M8599 6541c5,-16 15,-24 22,-19 8,5 11,23 6,39 -4,16 -15,24 -22,19 -8,-5 -11,-23 -6,-39z"/>
  <path class="fil6" d="M8542 6606c6,0 11,10 9,21 -1,12 -7,21 -14,21 -6,0 -11,-10 -9,-21 1,-12 7,-21 14,-21z"/>
  <path class="fil6" d="M8502 6542c1,11 -4,23 -10,27 -6,4 -12,-3 -13,-14 -1,-11 4,-23 10,-27 6,-4 12,3 13,14z"/>
  <path class="fil6" d="M8530 6439c-6,7 -13,5 -15,-5 -3,-10 0,-23 6,-30 6,-7 13,-5 15,5 3,10 0,23 -6,30z"/>
  <path class="fil6" d="M8588 6440c-4,-7 -4,-20 1,-30 5,-9 12,-11 16,-4 4,7 4,20 -1,30 -5,9 -12,11 -16,4z"/>
  <path class="fil6" d="M8595 6544c3,-11 10,-17 16,-13 6,4 8,16 4,27 -3,11 -10,17 -16,13 -6,-4 -8,-16 -4,-27z"/>
  <path class="fil6" d="M8564 6468c14,0 23,21 20,46 -3,26 -16,46 -29,46 -14,0 -23,-21 -20,-46 3,-25 16,-46 29,-46z"/>
  <path class="fil4" d="M8957 4811c0,0 -4,-51 19,-91 50,-85 435,-69 522,-56 127,18 85,172 55,225 -51,90 -422,131 -507,123 -48,-5 -90,-201 -90,-201z"/>
  <path class="fil9" d="M9803 4960l149 -30c24,-5 44,8 55,27 4,7 7,15 9,23 2,8 2,17 1,24 -2,21 -14,38 -38,43l-149 32 0 0c-30,7 -53,-5 -66,-23 -5,-7 -8,-15 -10,-23 -2,-8 -2,-17 -1,-25 4,-22 20,-41 49,-48l0 0zm152 -17l-149 30 0 0c-23,5 -35,20 -38,37 -1,7 -1,13 0,20 1,7 4,13 8,18 10,14 28,23 52,18l0 0 149 -32c17,-4 25,-17 27,-32 1,-6 0,-13 -1,-20 -1,-7 -4,-13 -7,-19 -8,-14 -22,-24 -40,-20z"/>
  <path class="fil9" d="M8630 5604c11,0 21,0 32,1 144,10 251,84 321,209 70,123 104,294 104,498 0,43 -2,88 -5,134l-21 -1c3,-45 5,-89 5,-132 0,-200 -33,-368 -101,-487 -67,-118 -168,-189 -305,-198 -10,-1 -20,-1 -30,-1 -164,0 -335,116 -476,310 -138,190 -249,455 -299,760l-21 -3c51,-308 163,-576 303,-769 145,-200 321,-319 493,-319z"/>
  <path class="fil9" d="M11286 5300c41,0 76,11 107,32 31,22 57,54 78,95l-19 9c-19,-38 -42,-67 -71,-87 -27,-19 -59,-29 -95,-29 -84,0 -177,81 -255,212 -77,128 -139,304 -165,498l-21 -3c27,-197 90,-376 168,-506 82,-137 182,-222 273,-222z"/>
  <path class="fil9" d="M10007 3811l156 961c4,12 91,295 98,670 5,263 -22,537 -42,671 -4,28 -8,49 -11,64 -5,22 -11,30 -19,24l0 0c-1,-1 -2,-3 -3,-6l10 -2 2 -2c0,0 0,0 0,0l0 0c4,4 -6,-10 -4,-16 3,-14 7,-36 11,-63 20,-133 47,-407 42,-669 -7,-381 -97,-666 -97,-667l0 0 0 -1 -156 -961 14 -2zm189 2381l2 -2 0 0 -2 2 0 0zm2 -2l-2 2 3 -1c0,0 -1,-1 -1,-2z"/>
  <path class="fil10" d="M10280 3828c195,-370 179,-312 20,5l-20 -5z"/>
  <path class="fil4" d="M7399 6535c96,-6 227,-25 215,-126 -32,-265 -779,160 -215,126z"/>
  <path class="fil2" d="M7439 6502c67,-4 158,-17 150,-88 -22,-185 -542,112 -150,88z"/>
  <path class="fil4" d="M5050 6242c-25,-18 -56,-81 -49,-139 19,-150 194,247 49,139z"/>
  <path class="fil2" d="M5056 6205c-17,-13 -33,-56 -28,-95 13,-105 129,171 28,95z"/>
  <path class="fil11" d="M5275 5586c-46,-31 -97,-128 -134,-241 33,-73 102,-117 179,-150 -1,15 -12,37 -26,58 -53,76 33,288 -19,334z"/>
  <path class="fil5" d="M4981 5684c75,78 118,209 182,253 188,132 1405,244 1661,232 188,-5 267,-22 333,-54 40,-20 135,-85 257,-139 121,-54 170,-73 298,-113 -233,18 -367,115 -555,211 -66,32 -144,49 -333,54 -256,12 -1472,-101 -1661,-232 -50,-35 -44,-51 -87,-120 -14,-23 -76,-85 -95,-93z"/>
  <path class="fil9" d="M6806 5756c-446,120 -1279,133 -1532,-169 506,291 970,194 1532,169z"/>
  <path class="fil9" d="M8272 5073c114,-106 124,-298 125,-326 10,-3 19,-5 29,-8 0,19 -8,241 -139,358l0 0c7,-14 1,-21 -14,-24z"/>
  <path class="fil9" d="M10780 4710l130 -27c22,-4 39,7 49,24 4,6 6,13 8,20 2,7 2,15 1,22 -2,18 -13,34 -33,39l-130 28 0 0c-27,6 -47,-4 -58,-21 -4,-6 -8,-13 -9,-21 -2,-7 -2,-15 -1,-23 4,-19 17,-36 44,-42l0 0zm133 -13l-130 27 0 0c-20,4 -30,17 -33,31 -1,6 -1,11 0,17 1,6 4,11 7,16 9,12 24,20 44,15l0 0 130 -28c14,-3 21,-14 23,-27 1,-6 0,-11 -1,-17 -1,-6 -3,-11 -6,-16 -7,-12 -19,-20 -34,-17z"/>
  <path class="fil12" d="M3295 3962c61,0 117,28 157,74 40,45 64,107 64,176 0,69 -25,131 -64,176 -40,45 -95,74 -157,74 -61,0 -117,-28 -157,-74 -40,-45 -64,-107 -64,-176 0,-69 25,-131 64,-176 40,-45 95,-74 157,-74zm141 87c-36,-41 -86,-66 -141,-66 -55,0 -105,25 -141,66 -36,41 -59,99 -59,162 0,63 23,121 59,162 36,41 86,66 141,66 55,0 105,-25 141,-66 36,-41 59,-99 59,-162 0,-63 -23,-121 -59,-162z"/>
  <path class="fil7" d="M3300 4070c69,0 125,63 125,142 0,78 -56,142 -125,142 -69,0 -125,-63 -125,-142 0,-78 56,-142 125,-142z"/>
  <path class="fil7" d="M3123 4689l386 0c23,0 42,19 42,42l0 193c0,23 -19,42 -42,42l-386 0c-23,0 -42,-19 -42,-42l0 -193c0,-23 19,-42 42,-42z"/>
  <path class="fil8" d="M2803 6393l-267 -79 0 -2762c114,-12 267,117 267,282l0 2559z"/>
  <path class="fil13" d="M3176 4768l33 0c4,0 7,3 7,7l0 107c0,4 -3,7 -7,7l-33 0c-4,0 -7,-3 -7,-7l0 -107c0,-4 3,-7 7,-7z"/>
  <path class="fil13" d="M3238 4768l33 0c4,0 7,3 7,7l0 107c0,4 -3,7 -7,7l-33 0c-4,0 -7,-3 -7,-7l0 -107c0,-4 3,-7 7,-7z"/>
  <path class="fil13" d="M3300 4768l33 0c4,0 7,3 7,7l0 107c0,4 -3,7 -7,7l-33 0c-4,0 -7,-3 -7,-7l0 -107c0,-4 3,-7 7,-7z"/>
  <path class="fil13" d="M3362 4768l33 0c4,0 7,3 7,7l0 107c0,4 -3,7 -7,7l-33 0c-4,0 -7,-3 -7,-7l0 -107c0,-4 3,-7 7,-7z"/>
  <path class="fil13" d="M3424 4768l33 0c4,0 7,3 7,7l0 107c0,4 -3,7 -7,7l-33 0c-4,0 -7,-3 -7,-7l0 -107c0,-4 3,-7 7,-7z"/>
  <polygon class="fil6" points="4616,6547 4616,6695 2407,6782 2407,6634 "/>
  <polygon class="fil0" points="2407,6782 1833,6612 1833,6486 2407,6634 "/>
  <path class="fil6" d="M3309 4296l-79 3 0 0c2,0 3,-1 5,-1l62 -38 12 37z"/>
  <path class="fil6" d="M3319 4120c34,-5 125,-20 141,24l80 220 -85 8 0 0 -80 -220c-8,-23 -32,-34 -56,-32z"/>
  <path class="fil0" d="M3189 4188l17 -10 90 -52c29,-15 69,-5 80,25l80 220 -105 54 -52 -168 -62 38c-25,15 -79,-90 -46,-109z"/>
  <polygon class="fil5" points="3540,4365 3552,4397 3467,4405 3467,4405 3455,4373 3455,4373 3455,4373 3455,4373 "/>
  <polygon class="fil7" points="3455,4373 3467,4405 3362,4459 3352,4427 3455,4373 "/>
  <polygon class="fil7" points="3552,4397 3467,4405 3467,4405 3362,4459 3434,4458 3448,4451 3500,4424 3500,4424 3500,4424 "/>
  <path class="fil6" d="M6029 5611l79 3 0 0c-2,0 -3,-1 -5,-1l-62 -38 -12 37z"/>
  <path class="fil6" d="M6019 5435c-34,-5 -125,-20 -141,24l-80 220 85 8 0 0 80 -220c8,-23 32,-34 56,-32z"/>
  <path class="fil0" d="M6149 5503l-17 -10 -90 -52c-29,-15 -69,-5 -80,25l-80 220 105 54 52 -168 62 38c25,15 79,-90 46,-109z"/>
  <polygon class="fil5" points="5798,5680 5786,5712 5871,5720 5871,5720 5883,5688 5883,5688 5883,5688 5883,5688 "/>
  <polygon class="fil7" points="5883,5688 5871,5720 5976,5774 5987,5741 5883,5688 "/>
  <polygon class="fil7" points="5786,5712 5871,5720 5871,5720 5976,5774 5905,5773 5890,5766 5838,5739 5838,5739 5838,5739 "/>
  <path class="fil3" d="M5909 5769c-491,1528 -2442,1353 -2441,993 0,-3 0,-5 0,-6 4,-67 95,-126 174,-176 21,-13 41,-26 56,-36l-7 -1c-65,-8 -173,-22 -234,-65 -55,-38 -77,-92 -24,-169 103,-149 55,-1603 -3,-1841 -1,-6 -4,-10 -4,-15 -2,-20 44,-42 64,-31 84,43 124,1772 11,1934 -18,26 -13,42 3,53 45,31 140,43 197,51 17,2 30,4 37,5 57,10 77,35 70,72 -7,39 -61,73 -122,112 -63,40 -135,86 -136,110 0,1 0,1 0,2 0,203 1754,492 2283,-1030 9,-14 82,4 75,37z"/>
  <path class="fil2" d="M2279 4860l0 0c46,0 83,38 83,83l0 1497 -167 0 0 -1497c0,-46 38,-83 83,-83z"/>
  <polygon class="fil14" points="2196,5219 2363,5219 2363,5094 2196,5094 "/>
  <polygon class="fil14" points="2196,5563 2363,5563 2363,5438 2196,5438 "/>
  <path class="fil2" d="M2196 6440l167 0c31,22 46,49 49,78 -88,19 -176,18 -265,0 3,-30 18,-56 49,-78z"/>
  <path class="fil2" d="M4119 4786l0 0c46,0 83,38 83,83l0 1497 -167 0 0 -1497c0,-46 38,-83 83,-83z"/>
  <polygon class="fil14" points="4035,5146 4202,5146 4202,5021 4035,5021 "/>
  <polygon class="fil14" points="4035,5489 4202,5489 4202,5364 4035,5364 "/>
  <path class="fil2" d="M4035 6366l167 0c31,22 46,49 49,78 -88,19 -176,18 -265,0 3,-29 18,-56 49,-78z"/>
  <path class="fil10" d="M9028 5001c136,13 471,-32 546,-164 -26,190 -461,217 -546,164z"/>
  <path class="fil11" d="M6806 5756c272,-40 398,-99 724,-253 190,-90 600,-269 698,-347 299,-236 -601,95 -681,125 -52,20 -101,47 -143,87 -81,76 -561,286 -598,388z"/>
  <path class="fil10" d="M9270 3847l-618 752c-111,111 -253,170 -431,168l-2207 -16c-57,5 288,-264 653,-470 134,-76 428,-248 605,-316 295,-113 1648,-148 1998,-119z"/>
  <path class="fil3" d="M9170 3891c-23,-1 -46,-2 -69,-2 -78,-2 -157,-2 -235,-2 -194,1 -388,6 -582,14 -202,9 -405,21 -605,42 -79,8 -158,18 -236,32 -49,9 -105,19 -152,37 -94,36 -190,86 -279,134 -108,58 -213,119 -319,179 -147,83 -291,177 -429,276 -45,33 -91,67 -134,102l2093 15c152,1 285,-45 393,-152l554 -674z"/>
  <path class="fil10" d="M6127 4712c0,0 141,-77 259,-77 201,0 533,19 746,42 163,17 224,62 203,62l-1209 -26z"/>
  <path class="fil10" d="M7173 4716c0,0 141,-77 259,-77 201,0 533,19 746,42 163,17 224,62 203,62l-1209 -26z"/>
 </g>
</svg>
