<?xml version="1.0" encoding="UTF-8"?>
<!DOCTYPE svg PUBLIC "-//W3C//DTD SVG 1.1//EN" "http://www.w3.org/Graphics/SVG/1.1/DTD/svg11.dtd">
<!-- Creator: CorelDRAW 2017 -->
<svg xmlns="http://www.w3.org/2000/svg" xml:space="preserve" width="11.6929in" height="8.26772in" version="1.1" style="shape-rendering:geometricPrecision; text-rendering:geometricPrecision; image-rendering:optimizeQuality; fill-rule:evenodd; clip-rule:evenodd"
viewBox="0 0 11693 8268"
 xmlns:xlink="http://www.w3.org/1999/xlink">
 <defs>
  <style type="text/css">
   <![CDATA[
    .fil12 {fill:black}
    .fil2 {fill:#02B8B2}
    .fil3 {fill:#039E99}
    .fil15 {fill:#04D9D2}
    .fil21 {fill:#1855B7}
    .fil24 {fill:#23171D}
    .fil9 {fill:#2C6AE4}
    .fil5 {fill:#3A242F}
    .fil16 {fill:#603E4F}
    .fil7 {fill:#795666}
    .fil0 {fill:#967083}
    .fil20 {fill:#9BB8D7}
    .fil4 {fill:#BEC4FA}
    .fil8 {fill:#BFB6B9}
    .fil19 {fill:#D6E2F7}
    .fil23 {fill:#DED1FD}
    .fil18 {fill:#EAF1FB}
    .fil6 {fill:#ED2814}
    .fil10 {fill:white}
    .fil11 {fill:black;fill-opacity:0.101961}
    .fil22 {fill:white;fill-opacity:0.301961}
    .fil17 {fill:black;fill-opacity:0.400000}
    .fil1 {fill:#5CA3E5;fill-opacity:0.400000}
    .fil13 {fill:#161213;fill-opacity:0.431373}
    .fil14 {fill:#BFB6B9;fill-opacity:0.501961}
   ]]>
  </style>
 </defs>
 <g id="Layer_x0020_1">
  <metadata id="CorelCorpID_0Corel-Layer"/>
  <g id="_1906630863280">
   <rect class="fil0" transform="matrix(0.2315 -0.9728 0.9728 0.2315 5822.11 5610.11)" width="125" height="20"/>
   <rect class="fil0" transform="matrix(0.2315 -0.9728 0.9728 0.2315 5782.99 5546.4)" width="20" height="125"/>
  </g>
  <g id="_1906627507344">
   <path class="fil1" d="M5588 5307c0,30 -771,54 -1722,54 -951,0 -1722,-24 -1722,-54 0,-30 771,-54 1722,-54 951,0 1722,24 1722,54z"/>
  </g>
  <rect class="fil2" x="4700" y="4082" width="668" height="1229"/>
  <rect class="fil3" x="4700" y="4082" width="38" height="1229"/>
  <rect class="fil4" x="4700" y="4082" width="109" height="70"/>
  <path class="fil5" d="M4698 4746c0,-56 -45,-101 -101,-101 -56,0 -101,45 -101,101 0,56 45,101 101,101 56,0 101,-45 101,-101z"/>
  <path class="fil5" d="M4597 4182c-311,0 -564,252 -564,564 0,311 252,564 564,564 311,0 564,-252 564,-564 0,-311 -252,-564 -564,-564zm0 1072c-281,0 -508,-228 -508,-508 0,-281 228,-508 508,-508 281,0 508,228 508,508 0,281 -227,508 -508,508z"/>
  <path class="fil6" d="M4762 4208l0 0c21,-21 11,-57 -18,-64 -162,-42 -346,-13 -500,93 -214,148 -322,372 -269,592 10,41 41,72 82,83 1,0 2,0 2,1 -58,-208 18,-494 217,-630 150,-103 331,-125 485,-74 0,0 0,0 0,-1l1 0z"/>
  <path class="fil7" d="M4597 4221c-290,0 -524,235 -524,524 0,290 235,524 524,524 290,0 524,-235 524,-524 0,-290 -235,-524 -524,-524zm0 997c-261,0 -473,-212 -473,-473 0,-261 212,-473 473,-473 261,0 473,212 473,473 0,261 -212,473 -473,473z"/>
  <g id="_1906627505520">
   <path class="fil8" d="M4767 5283l0 -96c85,-33 159,-90 212,-163l0 136c-60,55 -132,98 -212,123z"/>
   <path class="fil8" d="M4767 4305l0 -96c80,25 152,68 212,123l0 136c-53,-73 -127,-130 -212,-163z"/>
  </g>
  <path class="fil5" d="M3336 4573l182 182 -33 33 -182 -182c-9,-9 -9,-24 0,-33 9,-9 24,-9 33,0z"/>
  <path class="fil5" d="M3266 4581l123 0c9,0 16,7 16,16l0 4c0,9 -7,16 -16,16l-123 0c-9,0 -16,-7 -16,-16l0 -4c0,-9 7,-16 16,-16z"/>
  <path class="fil9" d="M3668 4649l-51 -18c-18,-6 -30,-23 -30,-42l0 -32 -6 -25c-3,-12 0,-24 8,-33 50,-55 230,-251 267,-265 43,-16 146,-11 146,-11l23 19 -358 407 1 0z"/>
  <path class="fil10" d="M3948 4222l-362 329 312 -326c17,-2 34,-3 50,-3z"/>
  <path class="fil11" d="M3769 4534l-112 111 -39 -14c-18,-6 -30,-23 -30,-42l0 -32 -1 -5c19,-6 63,-5 100,-37 33,-28 225,-217 302,-292 9,0 14,1 14,1l23 19 -257 292 0 -1z"/>
  <g id="_1906627504336">
   <rect class="fil6" transform="matrix(0.9404 -0.34 0.34 0.9404 3213.03 4094.96)" width="58" height="794"/>
  </g>
  <g id="_1906627505040">
   <rect class="fil6" transform="matrix(0.7072 -0.707 0.707 0.7072 3457.99 4795.55)" width="1100" height="88"/>
  </g>
  <path class="fil12" d="M3574 4679c35,1 88,1 96,-2 12,-5 590,-588 590,-588 0,0 5,13 23,38 14,20 49,38 64,46 1,2 2,4 2,5l-58 29c0,0 -1,0 -3,0 -4,-8 -7,-15 -10,-23l-1 -1 0 -2 -20 -61 -658 657c-3,-5 -4,-11 -4,-11 0,0 -38,-8 -67,-21 -6,-3 -9,-7 -10,-12l55 -55 1 1z"/>
  <path class="fil6" d="M4154 3704c-13,4 -20,18 -16,31 9,32 18,63 28,95 12,39 24,79 36,118 12,39 25,78 37,117l38 117 0 2 1 1c22,50 45,100 68,150 23,50 47,99 71,148 24,49 49,98 75,147l20 36 20 36 21 36c3,5 6,10 9,15 7,11 23,15 34,7 11,-7 15,-21 8,-33 -22,-40 -43,-81 -63,-123 -24,-49 -47,-98 -70,-147 -23,-49 -46,-99 -68,-149 -22,-50 -45,-99 -67,-149l1 3 -39 -117c-13,-39 -27,-78 -40,-116 -14,-39 -27,-77 -41,-116 -11,-31 -23,-62 -34,-93 -5,-12 -18,-19 -31,-15l0 0 2 -1z"/>
  <path class="fil13" d="M4323 4360c39,-28 82,-49 128,-64l-78 -68c-22,9 -43,20 -63,32l13 100 0 0z"/>
  <path class="fil7" d="M4371 4229l37 78 68 148 34 74c6,12 12,25 17,37 6,12 12,25 18,37l18 37 18 36 18 36c2,3 3,6 5,9l5 9c5,10 2,22 -7,28l-6 4c-10,6 -23,4 -29,-6 -4,-6 -8,-12 -12,-18 -7,-12 -15,-24 -22,-36l-21 -36c-7,-12 -13,-24 -20,-36 -7,-12 -13,-24 -20,-36 -6,-12 -13,-24 -19,-36l-19 -37 -18 -37c-12,-25 -24,-49 -36,-74 -6,-12 -12,-25 -18,-37l-17 -37c-11,-25 -22,-51 -33,-76 23,-10 32,-20 58,-30l1 -1z"/>
  <g id="_1906627501840">
   <path class="fil6" d="M3378 4437c27,-1 62,-4 74,-7 18,-15 97,-89 173,-160 268,-251 400,-373 430,-388 56,-28 141,-38 145,-39l8 68c-1,0 -77,10 -122,32 -32,18 -271,242 -414,376 -172,161 -179,167 -188,171 -19,10 -67,13 -104,14l-2 -69 0 2z"/>
  </g>
  <path class="fil12" d="M3405 4483c0,0 63,1 78,-12 15,-13 554,-522 592,-541 38,-19 113,-36 120,-41l33 137c0,0 0,0 -1,-1 -8,-26 -17,-52 -25,-79 -4,-11 -7,-22 -10,-33 -25,4 -73,14 -105,29 -32,18 -271,242 -414,376 -172,161 -179,167 -188,171 -12,6 -36,10 -62,12l70 192c-2,9 -4,16 -4,16l-84 -228 0 2z"/>
  <g id="_1906627502928">
   <rect class="fil7" transform="matrix(0.9405 -0.3399 0.3399 0.9405 3142.83 3899.9)" width="58" height="202"/>
  </g>
  <path class="fil14" d="M3225 3957c-16,10 -34,20 -51,30l-32 -87 55 -20 28 77z"/>
  <g id="_1906627499792">
   <path class="fil5" d="M3271 4082l-56 20c-2,1 -4,0 -5,-2l-6 -16c-1,-2 0,-4 2,-5l56 -20c2,-1 4,0 5,2l6 16c1,2 0,4 -2,5z"/>
   <path class="fil7" d="M3268 4070c-1,-4 -6,-6 -10,-5 -4,1 -6,6 -5,10 1,4 6,6 10,5 4,-1 6,-6 5,-10z"/>
  </g>
  <path class="fil5" d="M3010 3943c-13,1 -25,-7 -30,-19 -10,-25 -19,-68 11,-89 45,-30 393,-45 410,-6 8,18 12,36 15,51 3,15 -8,30 -24,31l-382 32 0 0z"/>
  <path class="fil5" d="M2635 4852c0,-26 -21,-46 -46,-46 -26,0 -46,21 -46,46 0,26 21,46 46,46 26,0 46,-21 46,-46z"/>
  <circle class="fil5" cx="2608" cy="4986" r="29"/>
  <path class="fil5" d="M2698 4746c0,-56 -45,-101 -101,-101 -56,0 -101,45 -101,101 0,56 45,101 101,101 56,0 101,-45 101,-101z"/>
  <path class="fil5" d="M2597 4182c-311,0 -564,252 -564,564 0,311 252,564 564,564 311,0 564,-252 564,-564 0,-311 -252,-564 -564,-564zm0 1072c-281,0 -508,-228 -508,-508 0,-281 228,-508 508,-508 281,0 508,228 508,508 0,281 -227,508 -508,508z"/>
  <path class="fil6" d="M3041 4396l1 0c29,-5 41,-40 22,-63 -110,-126 -277,-207 -464,-207 -260,0 -476,124 -558,335 -15,39 -7,83 20,115 0,1 1,1 2,2 70,-204 295,-396 536,-396 182,0 343,85 441,214 0,0 1,0 1,0l-1 0z"/>
  <path class="fil7" d="M2597 4221c-290,0 -524,235 -524,524 0,290 235,524 524,524 290,0 524,-235 524,-524 0,-290 -235,-524 -524,-524zm0 997c-261,0 -473,-212 -473,-473 0,-261 212,-473 473,-473 261,0 473,212 473,473 0,261 -212,473 -473,473z"/>
  <g id="_1906627497328">
   <path class="fil6" d="M3149 4851c97,0 213,-3 351,-8l-2 -44c-695,29 -808,-24 -889,-63 135,-141 657,-572 663,-576l-28 -34c-22,18 -533,439 -668,581 -9,10 -13,23 -11,37 2,13 11,25 23,31 69,34 157,77 561,77l0 -1z"/>
  </g>
  <path class="fil12" d="M3435 4709l-190 -527c-36,30 -103,85 -181,151 0,0 -30,-32 -30,-32 0,0 0,0 1,0 6,3 23,12 36,12 17,0 183,-150 183,-150l203 549 -21 -3 -1 0z"/>
  <path class="fil6" d="M3635 4701c0,0 -123,-19 -135,-19 -76,0 -138,62 -138,138 0,76 62,138 138,138 13,0 135,-19 135,-19 68,-15 118,-53 118,-118 0,-65 -55,-106 -118,-118l0 -2z"/>
  <g id="_1906627498480">
   <path class="fil5" d="M2655 4988c-21,0 -26,-2 -28,-8 -2,-8 -33,-42 -51,-62 -18,-20 -33,-36 -38,-45 -13,-20 -4,-36 0,-42 0,0 0,-6 0,-6l7 -1c9,-1 866,-98 975,-104 38,-2 61,17 65,53 6,52 -30,141 -54,145 -11,2 -229,23 -455,42 -126,11 -228,18 -302,23 -43,3 -77,5 -100,5 -8,0 -14,0 -19,0l0 0zm-14 -17c14,1 85,1 448,-29 212,-18 425,-38 439,-40 4,-2 17,-21 28,-52 12,-33 16,-63 10,-84 -5,-21 -20,-31 -46,-30 -104,6 -902,96 -969,104 -3,5 -7,12 0,23 5,8 20,25 37,43 28,32 47,53 53,65l0 0z"/>
  </g>
  <path class="fil5" d="M3624 4818c0,-55 -45,-100 -100,-100 -55,0 -100,45 -100,100 0,55 45,100 100,100 55,0 100,-45 100,-100z"/>
  <rect class="fil15" x="4810" y="4082" width="668" height="1229"/>
  <rect class="fil3" x="4810" y="4082" width="47" height="1229"/>
  <rect class="fil4" x="4810" y="4082" width="668" height="70"/>
  <path class="fil15" d="M4864 3446l526 189c65,23 108,85 108,154l0 293c0,16 -13,29 -29,29l-771 0 0 -611c0,-25 20,-47 45,-48l121 -7 0 1z"/>
  <path class="fil3" d="M4860 4111l-165 0 0 -612c0,-30 24,-54 54,-54l112 0 0 665 -1 1z"/>
  <g id="_1906627495824">
   <path class="fil7" d="M4237 3749l-75 0 0 -46 75 0c42,0 75,-34 75,-75 0,-42 -34,-75 -75,-75l-161 0 0 -46 161 0c67,0 121,54 121,121 0,67 -54,121 -121,121z"/>
  </g>
  <g id="_1906627494032">
   <path class="fil5" d="M4212 3569l-136 0c-22,0 -40,-18 -40,-40 0,-22 18,-40 40,-40l136 0c22,0 40,18 40,40 0,22 -18,40 -40,40z"/>
  </g>
  <path class="fil5" d="M4256 3522c0,34 -12,61 -26,61 -14,0 -26,-27 -26,-61 0,-34 12,-61 26,-61 14,0 26,27 26,61z"/>
  <path class="fil7" d="M4162 3701c9,-3 20,1 25,9 3,5 6,10 8,15 2,5 5,10 6,15 2,5 4,11 5,16 3,11 17,59 17,65l-52 26c-3,-5 -24,-59 -28,-70 -2,-5 -4,-11 -5,-16 -2,-5 -3,-11 -4,-16 -1,-5 -2,-11 -3,-17 -1,-10 5,-19 15,-22l16 -5z"/>
  <path class="fil14" d="M4204 3749l1 0c1,2 2,5 2,7 0,1 1,4 2,6l-55 40c-4,-11 -8,-22 -10,-25 -2,-5 -4,-11 -5,-16 0,0 0,-1 0,-1 27,-7 66,-12 66,-12l-1 1z"/>
  <path class="fil10" d="M5068 4018c3,-4 162,-233 162,-233l-77 0 83 -136 -134 -3 -45 199 64 0 -54 172 1 1z"/>
  <path class="fil5" d="M3720 5012l-165 -165c-9,-9 -9,-24 0,-33 9,-9 24,-9 33,0l165 165c9,9 9,24 0,33 -9,9 -24,9 -33,0z"/>
  <path class="fil5" d="M3790 5005l-123 0c-9,0 -16,-7 -16,-16l0 -4c0,-9 7,-16 16,-16l123 0c9,0 16,7 16,16l0 4c0,9 -7,16 -16,16z"/>
  <path class="fil12" d="M3002 4385c-10,-10 -22,-21 -31,-31 6,-5 13,-11 19,-16l30 32c-5,5 -11,10 -17,15l-1 0z"/>
  <g id="_1906627492368">
   <path class="fil1" d="M9866 5293c0,32 -1158,57 -2586,57 -1428,0 -2586,-26 -2586,-57 0,-32 1158,-57 2586,-57 1428,0 2586,26 2586,57z"/>
  </g>
  <path class="fil5" d="M5265 4686c0,42 -34,76 -76,76 -42,0 -76,-34 -76,-76 0,-42 34,-76 76,-76 42,0 76,34 76,76z"/>
  <rect class="fil5" x="6753" y="5060" width="2492" height="81"/>
  <path class="fil5" d="M7013 5111c89,0 -107,0 -112,0 -85,-2 -690,15 -701,-20 -12,-37 -191,-307 -77,-371 114,-65 264,-167 264,-167l346 -100 276 238 12 173 -15 141 6 107 1 -1z"/>
  <circle class="fil16" cx="6611" cy="4993" r="293"/>
  <path class="fil17" d="M6609 4766c184,0 286,96 342,197 -31,-129 -115,-323 -344,-323 -248,0 -328,201 -356,326 56,-102 160,-200 358,-200z"/>
  <circle class="fil18" transform="matrix(0.7071 -0.7071 0.7071 0.7071 6610.77 4993.25)" r="197"/>
  <path class="fil19" d="M6611 5190c109,0 197,-88 197,-197 0,-16 -2,-31 -5,-45 -63,67 -200,119 -304,44 -28,-20 -55,-31 -81,-37 -2,12 -4,25 -4,38 0,109 88,197 197,197z"/>
  <path class="fil5" d="M8770 5111c9,-1 800,-20 800,-20l58 -140 18 -179c0,0 -73,-188 -223,-264 -150,-76 -508,-15 -508,-15l-53 -32 -185 144 93 506z"/>
  <circle class="fil16" transform="matrix(0.8612 -0.5082 0.5082 0.8612 9164.93 4993.13)" r="293"/>
  <circle class="fil18" transform="matrix(0.8507 -0.5257 0.5257 0.8507 9165.28 4993.66)" r="197"/>
  <path class="fil19" d="M9164 5190c109,0 197,-88 197,-197 0,-16 -2,-31 -5,-45 -63,67 -200,119 -304,44 -28,-20 -55,-31 -81,-37 -2,12 -4,25 -4,38 0,109 88,197 197,197z"/>
  <path class="fil17" d="M9188 4746c247,0 385,142 461,294 -41,-192 -155,-480 -463,-480 -333,0 -441,299 -480,485 75,-152 215,-298 482,-298l0 -1z"/>
  <path class="fil15" d="M9534 5091c30,0 455,-15 470,-30 15,-15 -2,-245 -17,-271 -15,-26 -35,-30 -39,-36 -4,-6 -11,-135 -17,-146 -6,-11 -239,-248 -1051,-360 -174,-94 -443,-299 -791,-415 -153,-52 -322,-86 -505,-86 -595,0 -1043,161 -1480,450 -25,60 -121,188 -141,226 -20,38 -105,442 -111,454 -6,13 -21,54 -21,66 0,13 18,20 18,20 0,0 -22,39 18,61 40,22 320,66 383,67 9,-39 -20,-430 357,-430 377,0 344,450 344,450l1850 0c0,0 -83,-446 371,-446 453,0 361,427 361,427l1 -1z"/>
  <path class="fil20" d="M5985 4772c30,-30 69,-353 69,-353l-82 -12c-3,5 -6,10 -8,14 -14,26 -58,223 -87,349 39,10 90,20 108,2z"/>
  <g id="_1906627488656">
   <path class="fil21" d="M9494 4479c-2,-1 -168,-92 -322,-117 -29,-5 -55,-8 -80,-12 -111,-15 -184,-25 -216,-97l5 -2c30,69 102,79 212,94 25,3 52,7 80,12 154,25 322,117 324,118l-2 4 -1 0z"/>
  </g>
  <path class="fil3" d="M8308 4288c0,0 50,119 176,101 127,-18 194,-66 184,-71 -10,-5 -230,-102 -230,-102l-130 72 0 0z"/>
  <path class="fil22" d="M6645 4323c21,53 99,172 162,278 81,100 135,197 194,262 321,26 1460,105 1771,125 7,-80 20,-189 111,-256 -378,-67 -2157,-391 -2237,-410l-1 1z"/>
  <path class="fil5" d="M9480 4468c154,-15 451,139 451,139 6,11 13,139 17,146 -174,-55 -462,-259 -468,-285z"/>
  <path class="fil19" d="M9757 4664c66,38 134,71 190,89 -4,-6 -11,-135 -17,-146 0,0 -93,-49 -203,-88 9,44 19,95 29,145l1 0z"/>
  <path class="fil10" d="M8680 4318c0,0 -702,-99 -1080,-107 -378,-8 -807,-13 -1069,-78 37,-29 327,-311 1018,-311 0,0 362,-21 632,113 270,134 499,383 499,383l0 0z"/>
  <path class="fil19" d="M7548 3961c0,0 362,-21 632,113 123,61 238,147 327,221 105,13 173,23 173,23 0,0 -230,-249 -499,-383 -270,-134 -632,-113 -632,-113 -691,0 -981,282 -1018,311 46,12 98,21 153,29 154,-90 430,-202 865,-202l-1 1z"/>
  <path class="fil3" d="M7603 3821l0 29c102,0 362,11 564,111 181,90 346,235 430,316 -200,-26 -701,-89 -998,-96 -24,0 -47,-1 -71,-2 -324,-7 -689,-14 -933,-63 45,-35 123,-87 240,-137 202,-86 442,-129 713,-129l1 0 1 0c0,0 20,-1 53,-1l0 -29 0 0 0 1zm0 0c-34,0 -55,1 -55,1 -691,0 -981,282 -1018,311 262,65 691,70 1069,78 378,8 1080,107 1080,107 0,0 -230,-249 -499,-383 -206,-102 -466,-114 -577,-114l0 0 0 0z"/>
  <path class="fil23" d="M6088 4230c7,-13 13,-24 17,-34 199,-132 401,-237 617,-312 -15,32 -43,73 -95,103 -92,54 -361,280 -540,242l1 1z"/>
  <path class="fil10" d="M6088 4230c7,-13 13,-24 17,-34 199,-132 401,-237 617,-312 -15,32 -43,73 -95,103 -92,54 -361,280 -540,242l1 1z"/>
  <path class="fil3" d="M6620 3975c-18,10 -42,27 -70,46 -120,81 -317,214 -456,198 -5,9 -10,18 -16,27 13,2 26,3 39,3 147,0 333,-126 448,-204 28,-19 52,-35 69,-45 58,-34 97,-94 111,-124l-1 0c-14,5 -27,9 -41,14 -18,27 -47,63 -84,85l1 0z"/>
  <path class="fil10" d="M8617 4186c-178,-148 -415,-261 -472,-291 -24,-13 -43,-38 -56,-62 343,115 610,316 784,412 1,2 1,3 1,3l5 0c-6,21 -150,9 -262,-61l0 -1z"/>
  <path class="fil3" d="M7583 3821c23,84 79,291 105,394 -31,-2 -61,-3 -89,-3 -34,-1 -69,-1 -104,-2l-29 -386c27,-1 54,-1 82,-1 0,0 13,-1 35,-1l0 -1z"/>
  <g id="_1906627484304">
   <path class="fil3" d="M8283 5019c-121,0 -260,-1 -399,-3 -224,-4 -751,-15 -797,-48 -40,-28 -156,-183 -250,-321 -93,-137 -192,-299 -190,-340 4,-78 6,-81 60,-135 50,-50 107,-120 107,-214l5 0c0,97 -58,167 -109,218 -54,54 -54,56 -59,132 -4,74 360,602 437,656 31,22 328,39 794,47 368,6 748,3 789,-5 136,-327 2,-682 1,-686l5 -2c1,4 136,361 -1,691l0 1 -1 0c-22,6 -182,9 -393,9l1 0z"/>
  </g>
  <g id="_1906627484368">
   <path class="fil3" d="M7600 5006l-5 -1c94,-543 -72,-1175 -74,-1182l5 -1c2,6 168,639 74,1184z"/>
  </g>
  <path class="fil3" d="M7903 4386c0,-24 -20,-44 -44,-44l-161 0c-24,0 -44,20 -44,44l249 0 0 0z"/>
  <path class="fil3" d="M7006 4386c0,-24 -20,-44 -44,-44l-161 0c-24,0 -44,20 -44,44l249 0 0 0z"/>
  <path class="fil3" d="M8880 4248c-5,-3 -10,-5 -15,-8 -41,5 -152,-7 -241,-63 -160,-133 -363,-236 -450,-280 -10,-5 -18,-9 -24,-12 -12,-6 -23,-24 -32,-42 -11,-4 -21,-7 -32,-11 0,1 1,2 1,3 13,26 29,59 52,71 6,3 14,7 24,12 86,44 288,146 446,278l1 1c77,48 175,68 233,68 18,0 33,-2 42,-5 5,-2 9,-5 12,-8 -6,-1 -12,-2 -18,-3l1 -1z"/>
  <path class="fil3" d="M8680 4318c0,0 -66,-9 -167,-22 4,-41 12,-87 19,-119 91,79 149,141 149,141l-1 0z"/>
  <path class="fil3" d="M8540 4298c0,0 -22,9 -94,8 -72,-2 -137,-18 -137,-18 0,0 -29,-152 69,-168 98,-16 162,67 162,67l0 111 0 0z"/>
  <path class="fil3" d="M6349 4574l213 0c9,0 16,-7 16,-16l0 -139c0,-9 -7,-16 -16,-16l-213 0c-9,0 -16,7 -16,16l0 139c0,9 7,16 16,16z"/>
  <path class="fil5" d="M6392 4487c0,35 28,63 63,63 35,0 63,-28 63,-63 0,-35 -28,-63 -63,-63 -35,0 -63,28 -63,63z"/>
  <g id="_1906627482192">
   <path class="fil24" d="M5676 5277l291 0c279,0 507,-227 507,-507l0 -283c0,-10 -8,-18 -18,-18 -10,0 -18,8 -18,18l0 283c0,259 -211,470 -470,470l-291 0c-259,0 -470,-211 -470,-470l0 -85c0,-10 -8,-18 -18,-18 -10,0 -18,8 -18,18l0 85c0,279 227,507 507,507l-2 0z"/>
  </g>
 </g>
</svg>
