<?xml version="1.0" encoding="UTF-8"?>
<!DOCTYPE svg PUBLIC "-//W3C//DTD SVG 1.1//EN" "http://www.w3.org/Graphics/SVG/1.1/DTD/svg11.dtd">
<!-- Creator: CorelDRAW 2017 -->
<svg xmlns="http://www.w3.org/2000/svg" xml:space="preserve" width="16.5354in" height="11.6929in" version="1.1" style="shape-rendering:geometricPrecision; text-rendering:geometricPrecision; image-rendering:optimizeQuality; fill-rule:evenodd; clip-rule:evenodd"
viewBox="0 0 16535 11693"
 xmlns:xlink="http://www.w3.org/1999/xlink"
 data-name="Layer 1">
 <defs>
  <style type="text/css">
   <![CDATA[
    .fil7 {fill:none}
    .fil28 {fill:#02B8B2}
    .fil29 {fill:#039E99}
    .fil32 {fill:#04D9D2}
    .fil34 {fill:#23171D}
    .fil4 {fill:#23CFC6}
    .fil33 {fill:#3A242F}
    .fil19 {fill:#4B3648}
    .fil22 {fill:#4C4981}
    .fil1 {fill:#535F89}
    .fil12 {fill:#636780}
    .fil26 {fill:#9A5E7F}
    .fil8 {fill:#A8A8A8}
    .fil16 {fill:#BDD3E8}
    .fil30 {fill:#BEC4FA}
    .fil31 {fill:#BFB6B9}
    .fil23 {fill:#CEDDF9}
    .fil10 {fill:#DCE0ED}
    .fil3 {fill:#DCE2ED}
    .fil6 {fill:#DEA3A2}
    .fil18 {fill:#E6EBEF}
    .fil11 {fill:#F0F0F4}
    .fil15 {fill:#F3B4B4}
    .fil14 {fill:#F899A5}
    .fil24 {fill:#FEC2BE}
    .fil25 {fill:white}
    .fil20 {fill:black;fill-opacity:0.011765}
    .fil17 {fill:black;fill-opacity:0.050980}
    .fil2 {fill:black;fill-opacity:0.101961}
    .fil0 {fill:#23CFC6;fill-opacity:0.101961}
    .fil21 {fill:white;fill-opacity:0.101961}
    .fil27 {fill:black;fill-opacity:0.149020}
    .fil9 {fill:black;fill-opacity:0.200000}
    .fil5 {fill:#23CFC6;fill-opacity:0.200000}
    .fil13 {fill:url(#id0)}
   ]]>
  </style>
  <linearGradient id="id0" gradientUnits="userSpaceOnUse" x1="6122" y1="7584" x2="6122" y2="6117">
   <stop offset="0" style="stop-opacity:0.25098; stop-color:gray"/>
   <stop offset="0.541176" style="stop-opacity:0.121569; stop-color:gray"/>
   <stop offset="1" style="stop-opacity:0.101961; stop-color:gray"/>
  </linearGradient>
 </defs>
 <g id="Layer_x0020_1">
  <metadata id="CorelCorpID_0Corel-Layer"/>
  <path class="fil0" d="M3055 4948c175,481 546,898 1133,1100 1219,419 3967,203 6019,-45 1061,-128 1994,-483 2671,-982l-9823 -73z"/>
  <path class="fil0" d="M13812 2681l-1125 0c-53,0 -97,-28 -97,-63 0,-34 44,-63 97,-63l195 0c-54,0 -97,-28 -97,-63 0,-34 44,-63 97,-63l-139 0c-54,0 -97,-28 -97,-63 0,-34 44,-63 97,-63l587 0c-130,-39 -282,-67 -458,-81 -1602,-133 -2174,-45 -2376,45 -261,116 -539,195 -823,232 -989,131 -2837,289 -4512,-51 -833,-169 -1451,116 -1822,593l10669 0c-14,-139 -56,-266 -132,-378 -19,10 -41,16 -62,16 0,0 -1,0 -1,0l0 0z"/>
  <path class="fil0" d="M2960 3943c-16,104 -24,210 -24,315 0,177 23,354 68,525l9882 232c274,-203 505,-429 687,-673l-10612 -400zm3908 600l-194 0c53,0 97,28 97,63 0,34 -44,63 -97,63l-1125 0c-54,0 -97,-28 -97,-63 0,-34 44,-63 97,-63l194 0c-53,0 -97,-28 -97,-63 0,-34 44,-63 97,-63l-140 0c-53,0 -97,-28 -97,-63 0,-34 44,-63 97,-63l1126 0c54,0 97,28 97,63 0,34 -44,63 -97,63l139 0c54,0 97,28 97,63 0,34 -44,63 -97,63z"/>
  <path class="fil0" d="M14008 3048l-10789 169c-132,220 -219,463 -258,717l10858 0c69,-145 122,-299 156,-457 33,-149 46,-294 33,-428zm-8857 553l-195 0c54,0 97,28 97,63 0,34 -44,63 -97,63l-1125 0c-54,0 -97,-28 -97,-63 0,-34 44,-63 97,-63l195 0c-54,0 -97,-28 -97,-63 0,-34 44,-63 97,-63l-139 0c-54,0 -97,-28 -97,-63 0,-34 44,-63 97,-63l1125 0c53,0 97,28 97,63 0,34 -44,63 -97,63l139 0c53,0 97,28 97,63 0,34 -43,63 -97,63z"/>
  <rect class="fil1" x="8572" y="4248" width="58" height="3198"/>
  <path class="fil1" d="M8684 8045c-27,21 -59,32 -93,32 -34,0 -66,-11 -93,-32 -26,-171 40,-508 55,-583l3 -15 75 0c5,5 9,11 12,17 51,110 41,581 41,581z"/>
  <path class="fil2" d="M8617 7378l0 69 -31 0 0 -69c5,-1 10,-1 15,-1 0,0 0,0 0,0 0,0 0,0 0,0 5,0 11,0 16,1l0 0z"/>
  <path class="fil2" d="M8643 7464c-13,7 -27,10 -42,10 0,0 -1,0 -1,0 -1,0 -1,0 -2,0 -16,0 -31,-4 -44,-12l3 -15 75 0c5,5 9,11 11,17l0 0z"/>
  <ellipse class="fil3" cx="8600" cy="7425" rx="63" ry="37"/>
  <polygon class="fil4" points="8325,3733 8546,3628 8871,3705 8619,3515 "/>
  <polygon class="fil4" points="8390,3767 8325,3733 8546,3628 8871,3705 8814,3733 8546,3673 "/>
  <polygon class="fil2" points="8390,3767 8325,3733 8546,3628 8871,3705 8814,3733 8546,3673 "/>
  <polygon class="fil5" points="8381,3742 8558,4239 8646,4239 8811,3711 8546,3650 "/>
  <polygon class="fil4" points="8690,4099 8655,4212 8646,4239 8558,4239 8552,4221 8510,4105 8577,4065 "/>
  <polygon class="fil5" points="8546,3673 8588,4239 8558,4239 8390,3767 "/>
  <polygon class="fil2" points="8619,3515 8546,3628 8325,3733 "/>
  <path class="fil2" d="M8655 4212l-8 27 -88 0 -7 -18c14,-13 32,-21 52,-21 2,0 3,0 5,0 1,0 2,0 3,0 15,0 30,4 44,12l0 0z"/>
  <path class="fil2" d="M8617 4248l0 48c-3,0 -5,0 -8,0 0,0 0,0 0,0 -8,0 -15,-1 -23,-3l0 -46 31 0z"/>
  <ellipse class="fil3" cx="8608" cy="4248" rx="63" ry="37"/>
  <rect class="fil1" x="10846" y="5804" width="38" height="2115"/>
  <path class="fil1" d="M10921 8314c-18,14 -39,21 -61,21 -22,0 -44,-7 -61,-21 -17,-113 26,-336 37,-385 1,-7 2,-10 2,-10l49 0c3,3 6,7 8,11 34,73 27,384 27,384z"/>
  <path class="fil2" d="M10876 7873l0 46 -21 0 0 -46c3,-1 6,-1 9,-1 0,0 1,0 1,0 3,0 7,0 10,1l0 0z"/>
  <path class="fil2" d="M10894 7930c-8,4 -18,7 -27,7 0,0 -1,0 -1,0 0,0 -1,0 -1,0 -10,0 -20,-3 -29,-8 1,-7 2,-10 2,-10l49 0c3,3 6,7 8,12l0 0z"/>
  <ellipse class="fil3" cx="10865" cy="7905" rx="41" ry="25"/>
  <polygon class="fil4" points="10683,5463 10829,5394 11044,5445 10877,5319 "/>
  <polygon class="fil4" points="10726,5486 10683,5463 10829,5394 11044,5445 11006,5463 10829,5424 "/>
  <polygon class="fil2" points="10726,5486 10683,5463 10829,5394 11044,5445 11006,5463 10829,5424 "/>
  <polygon class="fil5" points="10720,5469 10837,5798 10896,5798 11004,5449 10829,5408 "/>
  <polygon class="fil4" points="10924,5705 10901,5780 10896,5798 10837,5798 10833,5786 10806,5709 10850,5683 "/>
  <polygon class="fil5" points="10829,5424 10857,5798 10837,5798 10726,5486 "/>
  <polygon class="fil2" points="10877,5319 10829,5394 10683,5463 "/>
  <path class="fil2" d="M10901 5780l-6 18 -58 0 -4 -12c9,-9 21,-14 34,-14 1,0 2,0 3,0 1,0 1,0 2,0 10,0 20,3 29,8l0 0z"/>
  <path class="fil2" d="M10876 5804l0 32 -5 0c0,0 0,0 0,0 -5,0 -10,-1 -15,-2l0 -31 21 0z"/>
  <ellipse class="fil3" cx="10870" cy="5804" rx="41" ry="25"/>
  <path class="fil0" d="M11793 9733c0,-253 -2075,-458 -4635,-458 -2560,0 -4635,205 -4635,458 0,253 2075,458 4635,458 2560,0 4635,-205 4635,-458z"/>
  <path class="fil6" d="M7177 8666c0,0 -929,-39 -1027,-1858 -98,-1819 871,-2127 871,-2127 0,0 307,-171 443,-178 136,-7 591,36 591,36l-501 -97c0,0 705,-268 917,-290l-763 161c0,0 -10,-422 172,-562 0,0 -156,-12 -239,293 -47,178 -177,323 -348,391 -283,110 -674,284 -763,434 0,0 -165,172 -140,-276 25,-448 143,-831 186,-841 0,0 336,-358 809,-379 0,0 -276,-111 -741,236 0,0 -39,-175 136,-383 175,-208 448,-644 745,-691 0,0 -415,-25 -745,512 0,0 -122,79 -133,-122 -11,-200 -82,-451 -82,-451 0,0 -100,462 111,669 0,0 -405,526 -387,1117 0,0 -125,268 -172,-47 0,0 -27,-434 -81,-802 -8,-52 -12,-105 -12,-158 0,-248 85,-489 240,-682 89,-111 152,-219 117,-276l-469 558c0,0 -394,-913 -681,-1109 -286,-196 -322,-240 -322,-240l462 541 -580 -205 580 268c0,0 269,219 423,816 154,598 168,970 168,970 0,0 -827,-655 -984,-634l535 405c294,223 478,562 503,931l0 0c0,0 -1035,-265 -1285,-315l-473 -483 358 458 -738 -10 -422 -301c0,0 333,279 301,297 -33,18 -519,39 -519,39 0,0 1239,-7 1375,82 136,89 440,122 440,122l-877 132 1045 -75c0,0 791,143 834,390 0,0 -161,420 -268,587 -89,139 -269,587 -304,981 -36,394 -86,999 50,1368 136,369 186,580 118,691 -68,111 -133,254 89,283 222,29 1196,-14 1196,-14 0,0 297,58 240,-161z"/>
  <path class="fil2" d="M6656 8471c-66,-34 -139,-51 -212,-51 -35,0 -69,4 -103,12 -182,39 -462,19 -487,14m803 25l0 0 0 0z"/>
  <path class="fil2" d="M6073 6327c0,0 -44,700 34,838l-34 -838z"/>
  <path class="fil2" d="M5909 7165c0,0 57,655 96,784 39,128 -96,-784 -96,-784z"/>
  <path class="fil2" d="M5854 5553c-40,15 -213,365 -178,468 35,104 178,-468 178,-468z"/>
  <path class="fil2" d="M6291 5190c-19,8 -99,210 -83,270 16,60 83,-270 83,-270z"/>
  <path class="fil2" d="M5544 6365c20,203 31,336 18,499 -5,54 -7,108 -7,162 0,72 4,145 12,217m-23 -878l0 0 0 0z"/>
  <path class="fil2" d="M7704 3999c-24,28 -32,66 -34,103 -1,37 4,74 1,111 -3,39 -21,84 -59,89m92 -303l0 0 0 0z"/>
  <path class="fil2" d="M7043 2788c-49,49 -93,103 -130,161 -11,18 -23,36 -37,52 -21,23 -47,39 -71,58 -56,45 -95,107 -113,177m351 -448l0 0 0 0z"/>
  <path class="fil2" d="M5172 1742c12,23 27,44 46,61 16,15 35,29 49,45 12,15 22,30 31,47 38,60 85,114 132,167m-259 -320l0 0 0 0z"/>
  <path class="fil2" d="M6039 2777c-31,19 -39,61 -38,97 1,36 7,74 -7,108 -6,15 -16,29 -23,44 -11,26 -11,56 -10,84 1,33 2,66 3,99 2,40 5,83 32,112m42 -544l0 0 0 0z"/>
  <path class="fil7" d="M5779 3805c29,15 56,34 80,55 25,22 41,51 47,83 2,14 1,28 4,42 5,19 15,36 27,50 21,27 43,52 68,75"/>
  <path class="fil2" d="M6013 4739c-20,-17 -42,-32 -65,-45 -21,-13 -43,-23 -67,-29 -36,-9 -73,-8 -110,-12 -37,-4 -75,-14 -100,-42m342 128l0 0 0 0z"/>
  <path class="fil2" d="M4557 4287c44,1 89,3 128,23 20,10 37,25 56,36 25,14 53,21 82,21m-266 -80l0 0 0 0z"/>
  <path class="fil2" d="M5161 4466c-9,-7 -24,-2 -31,7 -8,9 -12,21 -20,29 -16,17 -42,19 -65,20m117 -56l0 0 0 0z"/>
  <path class="fil2" d="M5410 3541l42 22c44,21 85,46 124,75m-165 -97l0 0 0 0z"/>
  <path class="fil2" d="M5889 3951c28,-7 51,23 56,51 5,28 -1,57 7,84 9,24 23,45 42,62m-105 -197l0 0 0 0z"/>
  <path class="fil2" d="M6354 4002c25,75 -28,156 -13,234 5,24 16,45 21,69 14,61 -10,127 -51,176m42 -478l0 0 0 0z"/>
  <rect class="fil1" x="4785" y="3395" width="72" height="3993"/>
  <path class="fil1" d="M4926 8134c-33,26 -74,40 -116,40 -42,0 -83,-14 -116,-40 -32,-214 50,-634 69,-728l4 -19 93 0c6,6 11,14 14,22 64,137 51,725 51,725z"/>
  <path class="fil2" d="M4841 7301l0 86 -39 0 0 -86c6,-1 12,-1 18,-1 0,0 1,0 1,0 0,0 0,0 0,0 7,0 13,1 20,2l0 0z"/>
  <path class="fil2" d="M4875 7409c-16,8 -33,13 -51,13 -1,0 -1,0 -2,0 -1,0 -2,0 -3,0 -19,0 -38,-5 -55,-15l4 -19 93 0c6,6 11,14 14,22l0 0z"/>
  <ellipse class="fil3" cx="4821" cy="7360" rx="78" ry="46"/>
  <polygon class="fil4" points="4478,2752 4753,2620 5159,2717 4844,2479 "/>
  <polygon class="fil4" points="4558,2794 4478,2752 4753,2620 5159,2717 5087,2752 4753,2677 "/>
  <polygon class="fil2" points="4558,2794 4478,2752 4753,2620 5159,2717 5087,2752 4753,2677 "/>
  <polygon class="fil5" points="4547,2763 4769,3383 4879,3383 5084,2724 4753,2647 "/>
  <polygon class="fil4" points="4933,3208 4889,3349 4879,3383 4769,3383 4761,3360 4709,3215 4792,3165 "/>
  <polygon class="fil5" points="4753,2677 4805,3383 4769,3383 4558,2794 "/>
  <polygon class="fil2" points="4844,2479 4753,2620 4478,2752 "/>
  <path class="fil2" d="M4889 3349l-10 34 -110 0 -8 -23c12,-16 39,-26 70,-26 1,0 2,0 3,0 20,0 39,5 55,16l0 0z"/>
  <path class="fil2" d="M4841 3395l0 60c-3,0 -7,1 -10,1 0,0 0,0 0,0 -10,0 -19,-1 -29,-3l0 -58 39 0z"/>
  <ellipse class="fil3" cx="4831" cy="3395" rx="78" ry="46"/>
  <path class="fil0" d="M12219 8666c0,-16 -78,-30 -175,-30 -97,0 -175,13 -175,30 0,16 78,30 175,30 97,0 175,-13 175,-30z"/>
  <path class="fil8" d="M11926 8528c0,0 100,-3 130,-25 30,-21 154,-47 161,-13 7,34 150,171 37,172 -113,1 -262,-18 -292,-36 -30,-18 -36,-99 -36,-99z"/>
  <path class="fil9" d="M12256 8651c-113,1 -262,-18 -292,-36 -23,-14 -32,-64 -35,-87l-3 0c0,0 6,81 36,99 30,18 179,37 292,36 33,0 44,-12 43,-29 -5,11 -18,17 -42,17z"/>
  <path class="fil0" d="M13194 8321c0,-13 -60,-23 -135,-23 -74,0 -135,10 -135,23 0,13 60,23 135,23 74,0 135,-10 135,-23z"/>
  <path class="fil8" d="M12969 8215c0,0 77,-2 100,-19 23,-16 118,-36 124,-10 6,26 116,132 29,132 -87,1 -202,-13 -225,-28 -23,-14 -28,-76 -28,-76z"/>
  <path class="fil9" d="M13223 8309c-87,1 -202,-14 -225,-28 -18,-10 -25,-49 -27,-67l-3 0c0,0 5,62 28,76 23,14 138,28 225,28 25,0 34,-9 33,-22 -3,8 -13,13 -32,13z"/>
  <path class="fil0" d="M12769 9761c0,-30 -144,-54 -322,-54 -178,0 -322,24 -322,54 0,30 144,54 322,54 178,0 322,-24 322,-54z"/>
  <path class="fil8" d="M12232 9508c0,0 184,-6 239,-45 55,-39 282,-86 296,-23 14,63 276,314 69,316 -207,2 -481,-32 -536,-66 -55,-34 -67,-182 -67,-182z"/>
  <path class="fil9" d="M12839 9734c-207,2 -482,-32 -537,-66 -42,-26 -59,-118 -64,-160l-6 0c0,0 12,148 67,182 56,34 329,68 537,66 60,0 81,-22 79,-53 -9,19 -32,31 -76,31z"/>
  <path class="fil6" d="M9127 7203c0,0 534,-23 590,-1067 56,-1045 -500,-1222 -500,-1222 0,0 -176,-98 -254,-103 -78,-4 -339,21 -339,21l288 -56c0,0 -405,-154 -526,-167l438 93c0,0 6,-243 -99,-323 0,0 89,-7 137,168 27,102 101,186 200,224 163,63 387,163 438,249 0,0 95,99 80,-158 -14,-257 -82,-477 -107,-483 0,0 -193,-206 -465,-218 0,0 158,-64 426,135 0,0 23,-101 -78,-220 -101,-119 -257,-370 -428,-397 0,0 239,-14 428,294 0,0 70,45 76,-70 6,-115 47,-259 47,-259 0,0 58,265 -64,384 0,0 232,302 222,642 0,0 72,154 99,-27 0,0 15,-249 46,-461 4,-30 7,-61 7,-91 0,-143 -49,-281 -138,-392 -51,-64 -87,-126 -67,-159l269 321c0,0 226,-524 391,-637 164,-113 185,-138 185,-138l-265 311 333 -117 -333 154c0,0 -154,125 -243,469 -88,344 -97,557 -97,557 0,0 475,-376 566,-364l-307 232c-169,128 -275,323 -289,534l0 0c0,0 594,-152 738,-181l271 -278 -205 263 424 -6 243 -173c0,0 -191,160 -173,171 18,10 298,23 298,23 0,0 -711,-4 -790,47 -78,51 -253,70 -253,70l504 77 -600 -43c0,0 -454,82 -479,224 0,0 93,241 154,337 51,79 154,337 175,563 21,226 49,574 -29,785 -78,212 -107,333 -68,397 39,64 76,146 -51,162 -128,17 -687,-8 -687,-8 0,0 -171,33 -138,-93z"/>
  <path class="fil2" d="M9426 7091c38,-19 79,-29 122,-29 20,0 40,2 59,7 104,23 265,10 280,8m-461 14l0 0 0 0z"/>
  <path class="fil2" d="M9761 5860c0,0 25,402 -20,481l20 -481z"/>
  <path class="fil2" d="M9855 6341c0,0 -33,376 -55,450 -23,74 55,-450 55,-450z"/>
  <path class="fil2" d="M9887 5415c23,9 122,209 102,269 -20,59 -102,-269 -102,-269z"/>
  <path class="fil2" d="M9636 5207c10,5 57,121 48,155 -9,34 -48,-155 -48,-155z"/>
  <path class="fil2" d="M10065 5882c-11,117 -18,193 -10,287 2,31 4,62 4,93 0,42 -2,84 -7,125m14 -505l0 0 0 0z"/>
  <path class="fil2" d="M8824 4523c13,16 19,36 19,57 0,1 0,1 0,2 1,21 -2,42 -1,63 1,21 12,48 34,51m-53 -174l0 0 0 0z"/>
  <path class="fil2" d="M9204 3827c28,28 53,59 74,93 6,11 13,21 21,30 13,12 26,23 41,33 32,26 55,62 65,102m-201 -258l0 0 0 0z"/>
  <path class="fil2" d="M10279 3226c-7,13 -16,25 -26,35 -9,9 -20,16 -28,26 -7,8 -13,17 -18,27 -22,34 -48,66 -76,96m149 -184l0 0 0 0z"/>
  <path class="fil2" d="M9781 3821c18,11 22,35 22,56 0,21 -4,43 4,63 4,9 9,17 13,25 4,12 7,26 7,39 0,3 0,6 0,9 0,19 -1,38 -2,57 -1,23 -3,48 -19,64m-25 -313l0 0 0 0z"/>
  <path class="fil7" d="M9930 4411c-16,9 -32,19 -46,31 -14,13 -24,30 -27,48 -1,8 -1,16 -2,24 -3,11 -8,21 -16,29 -12,15 -25,30 -39,43"/>
  <path class="fil2" d="M9796 4947c12,-9 24,-18 37,-26 12,-7 25,-13 38,-17 21,-4 42,-6 63,-6 21,-1 42,-9 58,-24m-196 73l0 0 0 0z"/>
  <path class="fil2" d="M10632 4688c-25,1 -51,2 -73,13 -11,6 -21,14 -32,21 -14,8 -31,12 -47,12m153 -46l0 0 0 0z"/>
  <path class="fil2" d="M10285 4791c2,-1 4,-2 7,-2 5,0 9,2 11,6 4,5 7,12 12,17 9,10 24,11 37,11m-67 -32l0 0 0 0z"/>
  <path class="fil2" d="M10142 4260l-24 13c-25,12 -49,27 -71,43m95 -56l0 0 0 0z"/>
  <path class="fil2" d="M9867 4495c-16,-4 -29,13 -32,29 -3,16 0,33 -4,48 -5,14 -13,26 -24,36m60 -113l0 0 0 0z"/>
  <path class="fil2" d="M9600 4523c-14,43 16,90 7,134 -3,14 -9,26 -12,40 -8,35 6,73 29,101m-24 -275l0 0 0 0z"/>
  <path class="fil4" d="M6492 5385c-171,231 -312,909 -351,1114l-298 -12c19,-176 379,-886 479,-1081 54,-7 111,-14 170,-21z"/>
  <rect class="fil10" x="10082" y="5303" width="132" height="186"/>
  <path class="fil2" d="M10214 5303l0 61c-9,3 -18,4 -28,4 0,0 -1,0 -1,0l-103 -1 0 -64 132 0z"/>
  <path class="fil10" d="M10026 4829l125 0c61,0 116,37 139,94 36,90 67,233 -14,375 -18,32 -52,52 -89,52 0,0 -1,0 -1,0l-159 -1 0 -519z"/>
  <ellipse class="fil11" cx="10026" cy="5089" rx="134" ry="260"/>
  <rect class="fil10" x="8909" y="5305" width="132" height="163"/>
  <path class="fil2" d="M9041 5305l0 52c-9,3 -18,4 -28,4 0,0 -1,0 -1,0l-103 -1 0 -55 132 0z"/>
  <path class="fil10" d="M8853 4832l125 0c61,0 116,37 139,94 37,90 68,233 -14,375 -18,32 -53,52 -90,52 0,0 -1,0 -1,0l-159 -1 0 -519z"/>
  <ellipse class="fil11" cx="8853" cy="5091" rx="134" ry="260"/>
  <path class="fil10" d="M8887 4927c0,0 -49,8 -24,73 14,32 24,65 29,98 6,34 49,26 47,-59 -2,-85 -53,-112 -53,-112z"/>
  <ellipse class="fil12" cx="3883" cy="8637" rx="779" ry="854"/>
  <path class="fil2" d="M4175 7837c-408,27 -731,398 -731,852 0,366 210,678 505,799 408,-27 731,-398 731,-852 0,-366 -210,-678 -505,-799z"/>
  <ellipse class="fil12" cx="9980" cy="6771" rx="632" ry="824"/>
  <path class="fil2" d="M9803 5981c-262,101 -454,417 -454,791 0,400 219,734 509,809 262,-101 454,-417 454,-791 0,-400 -219,-734 -509,-809z"/>
  <path class="fil4" d="M7605 6595l12 -299c0,0 -59,-129 -117,-141 -59,-12 -194,-19 -194,-19 0,0 -106,430 -35,559 70,129 334,-100 334,-100z"/>
  <path class="fil2" d="M7605 6595l12 -299c0,0 -59,-129 -117,-141 -59,-12 -194,-19 -194,-19 0,0 -106,430 -35,559 70,129 334,-100 334,-100z"/>
  <path class="fil4" d="M6522 6563c0,0 -36,-415 192,-423 29,-1 59,-2 88,-4 158,-15 589,-49 538,50 0,0 -103,361 -32,452l-785 -75z"/>
  <path class="fil4" d="M9754 7332l306 9c0,0 53,-563 70,-607 18,-44 26,-255 -31,-286 -57,-31 -249,-68 -249,-68l-141 321 -11 291 55 341z"/>
  <path class="fil2" d="M9754 7332l306 9c0,0 53,-563 70,-607 18,-44 26,-255 -31,-286 -57,-31 -249,-68 -249,-68l-141 321 -11 291 55 341z"/>
  <path class="fil4" d="M9015 6397l-1 -63c0,0 0,-1 0,-1 0,-20 16,-36 36,-36 1,0 1,0 2,0 152,6 703,33 800,82 0,0 -106,786 11,973l-40 629 -1351 -101 544 -1484z"/>
  <path class="fil2" d="M8909 5405c38,-4 82,-8 132,-12l0 75 -132 0 0 -63z"/>
  <path class="fil2" d="M10214 5480l0 9 -132 0 0 -57c46,10 90,26 132,48l0 0z"/>
  <path class="fil13" d="M6491 6400c1,-3 2,-6 5,-8 2,-1 4,-1 6,-1 1,0 2,0 3,0l0 0c0,3 0,5 0,5l0 0c-7,6 -13,12 -19,19 2,-5 3,-11 5,-16zm492 -144c0,0 0,-1 0,-1 0,0 0,-1 0,-1 7,-17 14,-33 23,-49 -22,19 -30,36 -37,54l14 -3zm71 -137c-11,17 -25,38 -38,64 6,-20 14,-40 24,-58l14 -6zm-1875 1463c53,2 97,1 97,1 -10,4 -52,2 -97,-1zm97 1c2,-1 22,-13 67,-8 0,0 -45,-2 -67,8zm1779 -801l19 -333c0,0 -7,170 -5,244 0,2 0,5 0,7 0,28 -5,56 -15,83l0 0z"/>
  <path class="fil14" d="M5947 7421c0,0 -6,17 -13,39 -12,35 -29,83 -34,88 -6,4 -50,7 -98,10 -6,0 -12,1 -18,1 -69,0 -136,-23 -190,-66 -54,-43 25,-18 52,-39 27,-21 55,-45 61,-57 8,-16 54,-44 81,-60 12,-7 21,-12 21,-12l138 96z"/>
  <path class="fil15" d="M5889 7568c0,0 -487,-22 -516,-29 -29,-6 -35,-41 -35,-41 -10,-23 42,-18 42,-18l0 0c5,1 63,10 116,17l0 0c43,6 84,9 94,5l0 0c22,-9 65,-5 65,-5 -25,-82 -99,-101 -131,-106l2 -2c8,-8 18,-15 28,-21 99,4 152,141 152,141l1 0c11,4 131,41 155,44l0 0c25,4 28,14 28,14z"/>
  <path class="fil14" d="M5634 7612c-2,6 -10,10 -24,12 -4,0 -8,0 -11,0 -4,0 -8,0 -11,0l0 0c-46,-4 -92,-14 -135,-30 -8,-3 -15,-5 -21,-7l-1 0c-17,-5 -34,-8 -51,-10 -44,-5 -63,7 -65,8l0 0c0,0 -43,1 -94,-1l0 0c-39,-1 -78,-5 -117,-12l0 0c-6,-1 -10,-3 -16,-4 -9,-2 -18,-6 -26,-10 -54,-32 127,-54 127,-54 21,-3 40,-12 55,-26l2 -2 5 -5 0 0c7,-6 14,-12 22,-17l7 -4c36,-24 85,-50 85,-50 34,-9 65,-27 90,-51 5,-5 9,-10 13,-15l0 0 100 -26 69 166c0,0 1,9 1,22 1,36 3,104 -1,119z"/>
  <path class="fil2" d="M5610 7623c-4,0 -8,0 -11,0 -4,0 -8,0 -11,0l0 0c-46,-4 -92,-14 -135,-30 -8,-3 -15,-5 -21,-7l-1 0c-17,-5 -34,-8 -51,-10 -44,-5 -63,7 -65,8l0 0c0,0 -43,1 -94,-1l0 0c-39,-1 -78,-5 -117,-12l0 0c-6,-1 -10,-3 -16,-4 5,-1 10,-1 15,-1 2,0 3,0 5,0l0 0c5,1 63,8 117,12l0 0c44,4 85,6 94,1l0 0c21,-10 65,-8 65,-8 -28,-81 -104,-97 -136,-100 1,-1 1,-1 2,-2l0 0c8,-8 17,-15 27,-22l2 0c98,2 156,134 156,134l1 0c11,3 133,35 156,37l0 0c7,0 13,2 19,5l0 0z"/>
  <path class="fil15" d="M5616 7636c0,0 -488,-1 -517,-6 -29,-5 -37,-39 -37,-39 -10,-22 41,-19 41,-19l0 0c5,1 63,8 117,12l0 0c43,4 85,6 94,1l0 0c21,-10 65,-8 65,-8 -28,-81 -104,-97 -136,-100l2 -2c8,-8 17,-16 27,-22 99,0 158,134 158,134l1 0c11,3 133,35 156,37l0 0c26,3 30,12 30,12z"/>
  <path class="fil2" d="M5947 7421c0,0 -6,17 -13,39 -3,-2 -99,-66 -135,-108 -4,-5 -8,-10 -11,-16 12,-7 21,-12 21,-12l138 96z"/>
  <path class="fil16" d="M6228 7210l-17 56 -166 90c0,0 -45,32 -52,47 -6,10 -15,17 -26,21 -8,10 -16,21 -23,32 -7,11 -98,-65 -135,-108 -11,-13 -17,-24 -12,-30 22,-26 152,-120 152,-120 0,0 79,-104 83,-102 3,2 43,-37 67,-58l16 -15 114 188z"/>
  <path class="fil14" d="M7018 6084l-161 285 -59 113 -315 -46 7 -15 27 -56 12 -26 2 -3 35 -63 2 -3 25 -36 51 -72c6,0 11,-2 17,-4 9,-5 16,-12 19,-22 18,-45 -15,-130 -15,-130 0,0 120,-292 161,-131 31,119 122,177 167,198 8,4 17,8 26,11l0 0z"/>
  <path class="fil16" d="M6476 7064l0 28c0,0 104,100 90,181 -14,81 15,183 15,183l105 -8 -16 -371 -195 -12z"/>
  <path class="fil17" d="M6687 7448l-105 8c0,0 -29,-101 -15,-183 14,-81 -90,-181 -90,-181l0 -28 195 12 1 24 15 347z"/>
  <path class="fil17" d="M6106 7054c-33,31 -64,64 -92,100 -37,49 -100,120 -100,120l-75 44 -31 30c-11,-13 -17,-24 -12,-30 22,-26 152,-120 152,-120 0,0 79,-104 83,-102 3,2 43,-37 67,-58l8 16z"/>
  <path class="fil2" d="M5635 7493c-3,3 -6,5 -9,8 -3,3 -2,49 -40,-66 -38,-115 -133,-87 -133,-87 -1,0 -1,-1 -1,-2 0,0 0,0 0,-1 0,-3 6,-9 13,-15l0 0 100 -26 69 166c0,0 1,9 1,22z"/>
  <path class="fil16" d="M5988 6839l-58 2 -40 57c0,0 -66,71 -86,88 -20,18 -149,139 -186,202 0,0 -34,17 -34,34 0,17 -64,66 -64,66 0,0 -68,46 -58,52 0,0 95,-28 133,87 38,115 40,66 40,66 7,-7 14,-13 23,-18 9,-3 53,-66 66,-68 10,-2 19,-6 27,-12l78 -77 75 -44c0,0 63,-71 100,-120 28,-35 59,-69 92,-100l-109 -215z"/>
  <path class="fil2" d="M5697 7210c0,0 104,51 100,61 -4,11 -100,-61 -100,-61z"/>
  <path class="fil2" d="M5779 7198c0,0 8,46 50,43 41,-2 -50,-43 -50,-43z"/>
  <path class="fil2" d="M5634 7326c0,0 6,26 44,31 38,5 -44,-31 -44,-31z"/>
  <path class="fil2" d="M6025 7210c0,0 51,21 55,50 5,29 -55,-50 -55,-50z"/>
  <path class="fil2" d="M5900 7317c20,8 76,72 75,79 -1,7 -75,-79 -75,-79z"/>
  <path class="fil2" d="M5990 7272c4,-1 7,-2 11,-2 9,0 17,3 23,9 14,15 -35,-7 -35,-7z"/>
  <path class="fil14" d="M6362 6772c0,0 -196,-63 -181,0 15,63 181,99 181,99l0 -99z"/>
  <path class="fil2" d="M7018 6084l-161 285 -59 113 -315 -46 7 -15c7,-10 16,-20 25,-28 0,-3 0,-5 0,-8 0,-7 1,-13 2,-20 2,-11 7,-21 14,-29l1 -1c15,-13 29,-47 36,-65 3,-7 4,-12 4,-12l21 -24 68 -76 19 -22 18 -20 -64 91c0,0 -31,55 -32,63 -2,7 -52,75 -52,75 0,0 -86,75 68,77 153,1 247,-148 247,-148l129 -200c8,4 17,8 26,11l0 0z"/>
  <polygon class="fil2" points="6672,7101 6612,7097 6476,7085 6476,7064 6671,7077 "/>
  <path class="fil18" d="M6991 6057c0,0 28,31 55,32 0,0 -51,54 -69,106 0,0 -86,145 -24,195 62,50 97,60 97,60l-19 333c0,0 46,229 63,246 17,17 12,55 12,55 0,0 -11,38 1,52 12,14 15,84 15,84 0,0 -69,-35 -83,-35 -14,0 -52,-72 -52,-72l-375 -26 -165 -14 26 -458c0,0 -75,-123 28,-218 0,0 -4,-40 17,-58 21,-18 40,-77 40,-77l126 -142 0 0 -64 92c0,0 -31,55 -32,63 -1,7 -52,75 -52,75 0,0 -86,75 68,77 153,2 247,-149 247,-149l143 -221z"/>
  <path class="fil2" d="M6869 6661c0,0 53,39 110,41 57,2 -110,-41 -110,-41z"/>
  <path class="fil2" d="M6938 6537c0,0 42,-21 66,-3 24,17 -66,3 -66,3z"/>
  <path class="fil2" d="M6918 6607c0,0 3,25 65,28 63,3 -65,-28 -65,-28z"/>
  <path class="fil14" d="M7042 6089l13 7c27,10 54,16 83,18 53,5 99,55 108,103 2,12 4,28 6,46 2,26 3,53 3,79 0,36 -2,72 -6,108 -5,44 -10,94 -7,101 5,14 -25,228 -25,228 0,0 -7,175 -51,191 -44,16 -288,16 -288,16l-103 -179 241 11c20,-35 30,-75 30,-115 0,-3 0,-6 0,-9 -2,-74 5,-244 5,-244 0,0 -146,-31 -116,-145 30,-114 108,-216 108,-216z"/>
  <path class="fil16" d="M6582 7455c0,0 -97,32 -135,15 -38,-17 -121,-81 -121,-81 0,0 -53,-52 -104,-110l-6 -8 0 0c-44,-51 -83,-104 -83,-131 0,-1 0,-2 0,-3 0,-10 -1,-20 -4,-30 -4,-15 -11,-30 -21,-42 -5,-7 -11,-14 -18,-20l-159 -206c0,0 46,-49 46,-63 0,-13 55,-89 126,-49 30,17 101,79 173,145 99,91 201,191 201,191 0,0 7,8 18,20 27,31 76,90 80,120 6,41 9,251 9,251z"/>
  <path class="fil17" d="M6494 7084c-76,75 -189,176 -272,195l-2 1 -4 -8 0 0 -87 -163 -22 -42 1 -1 167 -192c99,91 201,191 201,191 0,0 7,8 18,20z"/>
  <path class="fil16" d="M7104 7225l0 35c0,0 48,171 -39,219 -44,24 -138,30 -221,30 0,0 0,0 -1,0 -113,0 -210,-81 -230,-192 -2,-9 -3,-18 -3,-27 0,-7 1,-15 2,-22 1,-7 -39,-279 -48,-281 0,0 -220,252 -354,281l-114 -212 181 -208c0,0 135,-214 174,-233 39,-20 78,-74 78,-74 0,0 158,-131 262,91 105,222 173,401 198,468 0,0 37,75 60,75l1 0c29,0 53,24 53,54l0 0z"/>
  <path class="fil2" d="M6560 6974c21,-23 37,-51 47,-81 17,-51 -5,51 -43,92l-5 -11z"/>
  <path class="fil19" d="M6356 5708c2,15 13,28 24,40 24,26 50,50 77,72 12,10 24,20 28,32 1,3 1,7 1,11 0,6 -1,12 -3,17 -10,35 -23,69 -41,101 -7,10 -11,22 -11,35 3,27 42,43 70,61 37,24 59,60 57,97 -2,57 -56,105 -69,161 35,0 69,-7 101,-21 30,-14 52,-39 51,-65 0,-1 0,-2 0,-4 0,-3 1,-6 2,-8 4,-4 9,-7 15,-8 28,-7 62,-5 82,-20 20,-16 16,-43 7,-65 -24,-60 -58,-117 -79,-177 -6,-15 -10,-32 -10,-49 0,-5 0,-10 1,-14 4,-21 17,-41 28,-61 24,-43 39,-90 46,-139 3,-28 3,-56 -11,-82 -16,-29 -50,-51 -91,-60 -78,-17 -120,21 -181,46 -46,19 -98,54 -93,98z"/>
  <path class="fil2" d="M6489 6331c6,0 13,-1 19,-1 13,-55 66,-104 68,-160 1,-36 -20,-73 -57,-97 -28,-18 -67,-33 -70,-61 0,-12 4,-25 11,-35 17,-32 31,-66 41,-101 2,-6 3,-11 3,-17 0,-4 0,-7 -1,-11 -4,-13 -16,-23 -28,-32 -27,-22 -53,-47 -77,-73 -11,-12 -22,-25 -24,-40 -5,-44 47,-79 93,-98 48,-20 83,-48 135,-50 -61,-4 -100,28 -153,50 -46,19 -98,54 -93,98 2,15 13,28 24,40 24,26 50,50 77,73 12,10 24,20 28,32 1,4 1,7 1,11 0,6 -1,12 -3,17 -10,35 -23,69 -41,101 -7,10 -11,22 -11,35 3,27 42,43 70,61 37,24 59,61 57,97 -2,56 -56,105 -69,161z"/>
  <path class="fil2" d="M6910 5829c0,-135 -110,-245 -245,-245 -135,0 -245,110 -245,245 0,135 110,245 245,245 135,0 245,-110 245,-245z"/>
  <circle class="fil14" cx="6669" cy="5820" r="245"/>
  <g>
   <path class="fil19" d="M6518 5705c-19,-6 -39,-13 -52,-30 -13,-17 -15,-48 1,-62 9,-6 19,-10 29,-13 41,-18 48,-82 76,-122 17,-26 46,-41 76,-41 3,0 5,0 8,0 17,4 34,9 51,15 41,11 84,2 126,10 81,15 143,91 177,177 16,39 26,81 39,122 18,62 41,122 67,181 5,14 13,27 23,39 26,27 72,25 88,60 9,20 5,44 2,66 -3,23 -5,46 -5,69 0,53 8,106 24,156 18,56 51,112 103,120 -20,28 -58,25 -83,5 -24,-20 -39,-51 -55,-80 -14,-24 -30,-48 -47,-69 -9,-13 -21,-24 -36,-31 -35,-14 -72,15 -103,40 -26,21 -54,40 -84,44 -3,1 -7,1 -10,1 -29,0 -55,-19 -64,-46 -12,-40 12,-94 -14,-123 -9,-10 -23,-14 -34,-22 -33,-24 -37,-77 -33,-123 4,-46 14,-95 -4,-135 -10,-20 -24,-38 -42,-52 -74,-68 -159,-125 -252,-165l29 7zm0 0l0 0 0 0z"/>
  </g>
  <g>
   <path class="fil20" d="M6969 6357c-3,1 -7,1 -10,1 -29,0 -55,-19 -64,-47 -12,-40 12,-94 -14,-123 -9,-10 -23,-14 -34,-22 -33,-24 -37,-77 -33,-123 5,-46 14,-95 -4,-135 -10,-20 -24,-38 -42,-52 -74,-69 -159,-125 -252,-166l29 7c-19,-6 -39,-13 -52,-30 -13,-17 -15,-48 1,-62 9,-6 19,-10 29,-13 42,-18 48,-82 76,-122 9,-13 21,-24 35,-31 -26,4 -48,19 -63,40 -28,40 -35,104 -76,122 -10,3 -20,7 -29,13 -16,14 -14,45 -1,62 13,17 33,24 52,30l-29 -7c92,41 177,97 252,166 17,14 32,32 42,52 18,40 8,89 4,135 -5,46 0,99 33,123 11,8 25,12 34,22 26,29 2,83 14,123 9,28 35,46 64,46 3,0 7,0 10,-1 12,-2 23,-5 34,-10 -2,1 -4,1 -6,2l0 0z"/>
   <path class="fil2" d="M7295 6452c-24,-20 -39,-51 -55,-80 -14,-24 -30,-48 -47,-69 -9,-13 -21,-24 -36,-31 -7,-2 -14,-4 -21,-4 -12,0 -24,3 -34,10 2,0 5,-1 7,-1 7,0 13,1 20,4 14,7 27,18 36,31 18,22 33,45 47,69 16,29 31,61 55,80 21,16 51,21 72,6 0,0 -1,0 -1,0 -16,0 -31,-5 -43,-15l0 0z"/>
  </g>
  <polygon class="fil10" points="10876,7352 10677,7355 10265,6606 10196,6481 10248,6164 10289,6240 "/>
  <polygon class="fil10" points="9072,6431 8990,6554 8744,6222 8632,6070 8699,5979 8751,6042 "/>
  <path class="fil2" d="M8751 6042c0,6 1,13 1,19l-8 161 -112 -152 68 -91 52 63z"/>
  <polygon class="fil2" points="10289,6240 10265,6606 10196,6481 10248,6164 "/>
  <path class="fil10" d="M8518 6275c0,0 -99,-736 260,-846 5,-1 9,-2 14,-3 83,-10 852,-99 1252,7 0,0 273,41 270,188l-121 1793 -197 0 64 -1185c0,0 94,-516 -62,-552 -155,-36 -863,-94 -1112,-23 0,0 -182,-41 -153,408l-12 241 -205 -26z"/>
  <path class="fil4" d="M9116 6494c0,-3 0,-6 0,-10 0,-36 -17,-70 -47,-92 -55,-42 -224,-132 -224,-132l-55 4 -165 409 11 869 297 367 183 -1417z"/>
  <path class="fil2" d="M9116 6494c0,-3 0,-6 0,-10 0,-36 -17,-70 -47,-92 -55,-42 -224,-132 -224,-132l-55 4 -165 409 11 869 297 367 183 -1417z"/>
  <path class="fil4" d="M7930 7405l6 -892c0,0 -26,-346 181,-352 0,0 488,4 700,72 20,6 33,24 33,45 0,8 -2,16 -6,23 -42,73 -113,268 -148,767l0 535 -765 -198z"/>
  <polygon class="fil4" points="8960,7975 8072,7954 8071,7954 7635,7944 7685,7361 7927,7370 8698,7541 8933,7911 "/>
  <polygon class="fil2" points="8960,7975 8072,7954 8071,7954 7635,7944 7685,7361 7927,7370 8698,7541 8933,7911 "/>
  <polygon class="fil4" points="8960,7975 8072,7954 8057,7563 8698,7541 8933,7911 "/>
  <path class="fil21" d="M8071 7954l-436 -10 51 -583c0,0 136,218 372,203l14 391z"/>
  <path class="fil10" d="M11202 8426c-18,167 -136,141 -136,141l-22 -2 -220 -20 9 -260c0,0 120,-8 223,13 83,17 154,53 147,127z"/>
  <path class="fil22" d="M8148 5891c0,0 -405,185 -434,238 -29,53 -229,281 -229,281l87 146 401 -318 176 -346z"/>
  <path class="fil23" d="M7839 6835l-188 -28 -138 163c0,0 -192,95 -215,137 -22,42 -92,164 -123,165 -31,1 -60,46 -60,64 0,18 -117,222 -146,234 -29,12 -79,78 -78,91 1,13 -109,144 -109,144 0,0 -188,293 -215,303 -28,9 -136,199 -163,221 -27,23 -104,43 -95,61 9,18 198,276 186,349 0,0 140,-111 146,-145 6,-34 179,-214 179,-214l909 -945 175 -595 -66 -4z"/>
  <path class="fil2" d="M8343 7139c0,0 37,429 -87,494 -124,65 -208,58 -232,86 -24,29 -169,54 -185,80 -15,26 -423,254 -423,254 0,0 -279,164 -322,200 -44,36 -281,140 -322,189 -41,49 -295,210 -295,210 0,0 -74,-229 -160,-249 0,0 206,-41 218,-73 12,-32 74,-67 74,-67 0,0 293,-170 302,-208 9,-38 81,-93 81,-93 0,0 116,-159 159,-174 43,-15 297,-276 297,-276 0,0 173,-91 192,-121 19,-30 346,-200 346,-200l-373 -463 118 -36 349 94 63 113 199 241z"/>
  <path class="fil23" d="M8364 7145c0,0 38,429 -86,494 -124,65 -208,58 -232,86 -24,29 -169,54 -185,80 -15,26 -423,254 -423,254 0,0 -279,164 -322,199 -44,35 -281,140 -322,189 -41,49 -295,210 -295,210 0,0 -75,-229 -160,-249 0,0 206,-40 218,-73 12,-33 74,-67 74,-67 0,0 293,-170 302,-208 9,-38 81,-93 81,-93 0,0 116,-159 159,-174 43,-15 297,-276 297,-276 0,0 173,-91 192,-121 19,-30 -148,-427 -148,-427l122 -236 118 -36 349 94 63 113 199 242z"/>
  <path class="fil24" d="M8778 6021l-285 198c0,0 -344,-128 -208,-179 89,-34 121,-207 133,-323 6,-60 6,-104 6,-104 0,0 388,-1 317,123 -16,29 -25,62 -25,95 0,6 0,12 1,17 5,92 61,173 61,173z"/>
  <path class="fil2" d="M8717 5848c-20,5 -41,7 -62,7 -98,0 -189,-53 -237,-138 6,-60 6,-104 6,-104 0,0 388,-1 317,123 -16,29 -25,62 -25,95 0,6 0,11 1,17l0 0z"/>
  <path class="fil24" d="M8918 5654c-34,116 -141,196 -263,196 -151,0 -274,-123 -274,-274 0,-151 123,-274 274,-274 151,0 274,123 274,274 0,18 -2,35 -5,52 -2,8 -4,17 -6,25z"/>
  <path class="fil2" d="M8371 5910c0,0 -48,0 -51,68 -3,68 -51,63 -51,63l-225 233c0,0 -101,241 -100,251 1,10 -23,51 -17,71 5,21 -2,83 -21,78 -19,-6 -50,14 -50,44 0,31 -158,125 -151,148 6,23 451,259 451,259l185 143 173 -321 144 -443 80 -257 66 -74 -30 -174c0,0 -27,-75 -50,-65 -22,11 -104,99 -181,107 -77,8 -122,17 -140,0 -18,-17 -127,-29 -31,-132z"/>
  <path class="fil2" d="M8386 5887c0,0 -57,2 -60,70 -3,68 -51,63 -51,63l-225 233c0,0 -101,241 -100,251 1,10 -23,51 -18,71 5,21 -2,83 -21,78 -19,-6 -50,14 -50,44 0,31 -158,125 -151,148 7,23 450,259 450,259l185 143 173 -321 144 -443 81 -257 66 -74 -30 -174c0,0 -27,-75 -50,-65 -22,11 -104,99 -181,107 -77,8 -122,17 -140,0 -18,-17 -7,-37 -23,-134z"/>
  <path class="fil25" d="M8384 5894c0,0 -57,2 -60,70 -3,68 -51,63 -51,63l-225 233c0,0 -101,241 -100,251 1,10 -23,51 -18,71 5,21 -2,83 -21,78 -19,-6 -50,14 -50,44 0,31 -158,125 -151,148 7,23 450,259 450,259l185 143 173 -321 144 -443 81 -257 66 -74 -30 -174c0,0 -27,-75 -50,-64 -22,11 -104,99 -181,107 -77,8 -122,17 -140,0 -18,-17 -7,-36 -22,-134z"/>
  <path class="fil2" d="M8386 5894c-27,-3 -53,-8 -79,-15 -28,-10 -129,-2 -129,-2 0,0 -117,7 -138,41 -22,34 -115,216 -146,228 -32,11 -220,315 -259,341 -39,27 -205,352 -205,352 0,0 123,-58 179,27 1,2 3,4 4,7 54,95 104,22 104,22 0,0 179,-163 193,-191 14,-28 120,-241 147,-300 27,-59 257,-350 265,-363 8,-13 64,-146 64,-146z"/>
  <path class="fil22" d="M8386 5894c-31,-4 -62,-11 -93,-20 -28,-10 -129,-2 -129,-2 0,0 -117,7 -138,41 -22,34 -115,216 -146,228 -32,11 -220,315 -259,342 -39,27 -205,352 -205,352 0,0 123,-58 179,27 1,2 3,4 4,7 54,94 104,22 104,22 0,0 179,-163 193,-191 14,-28 120,-241 147,-300 27,-59 257,-350 265,-363 8,-13 78,-142 78,-142z"/>
  <path class="fil2" d="M8728 5905c0,0 148,107 167,140 19,33 212,134 212,134 0,0 73,135 62,183 -11,48 -23,95 -13,120 9,26 15,26 1,60 -14,34 -9,37 10,68 20,31 -292,125 -292,125 0,0 -42,6 -46,26 -4,20 -243,545 -278,628 -34,83 -143,417 -235,421 -91,5 -21,1 -21,1 0,0 14,-271 -42,-365 -56,-94 55,-456 55,-456 0,0 370,-1064 419,-1087z"/>
  <path class="fil22" d="M8728 5905c0,0 162,111 181,144 19,32 213,134 213,134 0,0 73,135 62,183 -11,48 -23,95 -13,120 9,26 15,26 1,60 -14,34 -9,37 10,68 20,31 -292,125 -292,125 0,0 -42,7 -46,26 -4,20 -244,545 -278,629 -35,83 -143,416 -235,421 -91,5 -21,1 -21,1 0,0 14,-271 -42,-365 -56,-94 56,-456 56,-456 0,0 355,-1068 404,-1091z"/>
  <path class="fil24" d="M8916 6977c0,0 -328,73 -338,94 -10,21 -281,182 -139,260 142,78 366,-110 366,-110l177 -113 -66 -131z"/>
  <path class="fil22" d="M9062 6540c5,2 119,74 119,74 0,0 54,179 66,222 12,44 42,122 40,136 -2,15 33,96 -23,133 -55,37 -113,31 -139,56 -26,25 -209,104 -232,110 -23,6 114,-272 -55,-315 0,0 121,11 127,-10 6,-21 13,-76 -9,-96 -23,-20 -120,-116 -120,-116l226 -194z"/>
  <path class="fil2" d="M8924 5629c-14,-8 -26,-20 -33,-34 -11,-22 -22,-48 -46,-54 -13,-3 -29,1 -39,-9 -8,-8 -8,-20 -8,-30 0,-1 0,-1 0,-2 0,-24 -7,-47 -20,-67 -13,-20 -36,-32 -60,-32 -1,0 -1,0 -2,0 -34,2 -63,33 -97,27 -15,-3 -29,-13 -43,-9 -6,2 -11,5 -15,9 -31,24 -55,57 -69,94 -14,35 -18,73 -35,107 -7,13 -19,28 -33,23 -22,-7 -10,-34 -23,-47 -5,-4 -11,-6 -17,-7 -1,-7 -1,-15 -1,-22 0,-151 122,-273 273,-273 151,0 273,122 273,273 0,18 -2,35 -5,53l0 0z"/>
  <path class="fil26" d="M8426 5644c14,4 27,-10 33,-23 16,-34 21,-72 35,-107 14,-37 38,-69 70,-94 4,-4 10,-7 15,-9 14,-4 29,6 43,9 33,6 63,-25 97,-27 1,0 1,0 2,0 24,0 47,12 60,32 13,20 20,43 20,67 0,1 0,1 0,2 0,10 0,23 8,30 10,10 26,6 39,9 24,6 35,32 46,54 11,22 34,44 56,35 7,-3 12,-8 19,-10 13,-4 28,3 40,-4 15,-9 10,-31 1,-46 -9,-15 -21,-31 -15,-47 4,-8 9,-15 16,-20 16,-18 24,-41 24,-66 0,-27 -11,-53 -30,-72 -9,-8 -20,-15 -29,-23 -18,-17 -28,-41 -42,-63 -17,-26 -40,-47 -66,-62 -12,-7 -25,-12 -39,-13 -19,-1 -37,6 -56,8 -63,6 -117,-44 -179,-58 -5,-2 -10,-3 -16,-3 -9,0 -19,3 -27,8 -12,10 -15,27 -21,42 -12,32 -42,54 -74,66 -37,14 -83,22 -99,58 -13,31 4,67 -3,100 -5,26 -25,46 -40,68 -15,22 -26,51 -13,74 8,12 20,22 34,26 17,7 56,3 68,15 12,11 1,40 23,46z"/>
  <path class="fil2" d="M9043 6853c6,1 120,21 147,59 27,38 -147,-59 -147,-59z"/>
  <path class="fil2" d="M8987 6732c0,0 124,28 139,40 14,12 -139,-40 -139,-40z"/>
  <path class="fil2" d="M9027 6425c0,0 91,40 102,65 10,25 -102,-65 -102,-65z"/>
  <path class="fil2" d="M7860 7461c9,7 234,173 216,179 -18,6 -216,-179 -216,-179z"/>
  <path class="fil2" d="M7858 7565c0,0 131,64 109,90 -22,27 -109,-90 -109,-90z"/>
  <g>
   <path class="fil2" d="M8359 5402c6,-28 -6,-59 -1,-86 0,0 0,0 0,1 -13,30 3,66 -3,98 2,-4 3,-8 4,-13z"/>
   <path class="fil2" d="M8999 5500c-1,3 -1,6 -1,9 4,-5 8,-10 13,-15 11,-12 19,-27 22,-43 -4,11 -10,21 -18,29 -7,6 -12,12 -16,20l0 0z"/>
   <path class="fil2" d="M9013 5593c-11,7 -27,0 -40,4 -7,2 -13,8 -19,10 -23,9 -45,-13 -56,-35 -11,-22 -22,-48 -46,-54 -13,-3 -30,1 -39,-9 -8,-7 -8,-20 -8,-30 0,-1 0,-1 0,-2 0,-24 -7,-47 -20,-67 -14,-20 -36,-32 -61,-32 0,0 -1,0 -1,0 -34,2 -63,33 -97,27 -15,-3 -29,-13 -43,-9 -6,2 -11,5 -15,9 -31,24 -55,57 -70,94 -4,10 -7,20 -10,31 2,-6 4,-11 6,-16 14,-37 38,-69 70,-94 4,-4 10,-7 15,-9 14,-4 29,6 43,9 33,6 63,-25 97,-27 0,0 1,0 2,0 24,0 47,12 60,32 13,20 20,43 20,67 0,1 0,1 0,2 0,10 0,23 8,30 10,10 26,6 39,9 24,6 35,32 46,54 11,22 34,44 56,35 7,-3 12,-8 19,-10 13,-4 28,3 40,-4 6,-4 9,-10 9,-17 0,0 0,-1 0,-1 -1,2 -3,3 -5,5l0 0z"/>
   <path class="fil2" d="M8464 5607c-6,13 -19,28 -33,23 -22,-6 -10,-34 -23,-46 -12,-12 -50,-8 -68,-15 -14,-5 -26,-14 -34,-26 -4,-7 -6,-15 -6,-23 0,-4 0,-8 1,-12 -4,8 -6,16 -6,25 0,9 2,17 6,25 8,12 20,22 34,26 17,7 56,3 68,15 12,11 1,40 23,46 14,4 27,-10 33,-23 7,-14 12,-30 16,-45 -3,11 -7,21 -12,31l0 0z"/>
  </g>
  <path class="fil2" d="M7999 6131c0,0 -90,134 -79,162 11,28 79,-162 79,-162z"/>
  <path class="fil2" d="M8012 6567c0,0 48,20 65,39 17,19 -65,-39 -65,-39z"/>
  <path class="fil2" d="M8117 6703c0,0 102,25 110,41 9,16 -110,-41 -110,-41z"/>
  <path class="fil2" d="M8135 6843c0,0 92,12 102,48 10,36 -102,-48 -102,-48z"/>
  <path class="fil2" d="M11202 8426c-18,167 -136,141 -136,141l-22 -2c-23,-36 -35,-78 -35,-121 0,-2 0,-3 0,-5 0,-58 19,-110 47,-141 83,17 154,53 147,127z"/>
  <path class="fil12" d="M7801 6234c-201,0 -364,220 -364,492 0,271 163,491 364,491 201,0 364,-220 364,-491 0,-271 -163,-492 -364,-492zm-51 880c-153,0 -277,-160 -277,-357 0,-197 124,-356 277,-356 153,0 277,160 277,356 0,197 -124,357 -277,357z"/>
  <polygon class="fil12" points="7819,6877 7989,7044 8051,6894 7804,6751 "/>
  <polygon class="fil4" points="8070,5221 8218,5239 8273,5305 8190,5680 8013,6284 7896,6699 7815,6951 7763,7284 7710,7513 7554,7669 7237,7294 7184,7169 7059,6914 7382,6763 7737,6732 7903,6305 8039,5810 "/>
  <g>
   <polygon class="fil4" points="5072,7009 4879,8634 7317,8532 7035,7734 6566,7428 7640,7446 7646,7000 7212,6906 6337,6836 5680,6806 5052,7012 "/>
  </g>
  <path class="fil2" d="M5072 7009l-194 1626 2438 -103 -282 -798 -469 -305 1074 18 6 -446 -434 -94 -874 -70 -657 -29 -628 205m21 -3z"/>
  <path class="fil12" d="M8404 8629c0,404 -134,772 -507,731 -470,-10 -507,-328 -507,-731 0,-404 227,-705 507,-705 280,0 507,301 507,705z"/>
  <path class="fil2" d="M8407 8630c0,-313 -136,-564 -327,-661 -246,47 -434,329 -434,698 0,331 25,604 292,697 344,12 469,-344 469,-734z"/>
  <polygon class="fil4" points="8882,7995 8739,8159 8997,8115 9190,7938 9362,7594 9604,7445 10197,7526 10747,7547 10950,7367 10723,7336 10494,7331 9919,7318 9234,7300 9093,7675 8987,7932 "/>
  <path class="fil4" d="M10853 8664c-12,18 -396,76 -396,76l-1063 194 -1825 26 -214 -182 -113 20 -5 1 -1503 267 -24 -3 -410 -58 -2139 -305 24 -311 14 -183 29 -381 21 -100 191 -18 89 -8 1388 -127 182 -17 102 -9 992 -135 1447 35 6 -446 572 -1760c126,21 123,106 123,106l-487 1658 -6 1018c1013,102 1046,-118 1206,-44l194 -619 1702 9c68,82 -97,1297 -97,1297z"/>
  <polygon class="fil4" points="6631,7739 7170,8898 7352,8957 7396,8769 7194,8127 6986,7754 "/>
  <polygon class="fil27" points="6631,7739 7170,8898 7352,8957 7396,8769 7194,8127 6986,7754 "/>
  <ellipse class="fil12" cx="6279" cy="9016" rx="978" ry="1109"/>
  <path class="fil2" d="M6628 7976c-512,36 -917,518 -917,1107 0,475 263,880 633,1038 512,-36 917,-518 917,-1107 0,-475 -263,-880 -633,-1038z"/>
  <path class="fil4" d="M3658 7076l-48 228 -148 699 -637 -62c0,0 -38,-117 62,-161 0,0 33,-397 150,-522 13,-14 28,-25 46,-32l575 -150z"/>
  <path class="fil21" d="M3610 7305l-148 699 -637 -62c0,0 -38,-117 62,-161 0,0 33,-397 150,-522l573 46z"/>
  <path class="fil4" d="M5093 7138c82,138 -117,1408 -117,1408l-1564 -258 56 -1112c32,-199 150,-223 150,-223 552,-279 1819,-338 1819,-338 1156,44 2209,384 2209,384 -1314,-202 -2553,138 -2553,138z"/>
  <path class="fil2" d="M4976 8546l-1564 -258 56 -1112c32,-199 150,-223 150,-223 0,0 1141,-109 1476,185 82,138 -117,1408 -117,1408z"/>
  <path class="fil4" d="M4810 8473l-1308 -220 46 -949c27,-170 125,-190 125,-190 0,0 954,-93 1234,158 69,118 -98,1202 -98,1202z"/>
  <path class="fil2" d="M4882 7692c0,-180 -80,-326 -179,-326 -99,0 -179,146 -179,326 0,180 80,326 179,326 99,0 179,-146 179,-326z"/>
  <ellipse class="fil10" cx="4703" cy="7684" rx="179" ry="326"/>
  <path class="fil11" d="M4726 7443c0,0 -73,12 -35,109 38,97 44,147 44,147 0,0 73,38 70,-88 -3,-126 -79,-167 -79,-167z"/>
  <path class="fil2" d="M3911 7563c0,-168 -75,-304 -167,-304 -92,0 -167,136 -167,304 0,168 75,304 167,304 92,0 167,-136 167,-304z"/>
  <ellipse class="fil10" cx="3743" cy="7555" rx="167" ry="304"/>
  <path class="fil11" d="M3767 7314c0,0 -73,12 -35,109 38,97 44,147 44,147 0,0 73,38 70,-88 -3,-126 -79,-167 -79,-167z"/>
  <path class="fil2" d="M4497 7417c-12,120 -70,1012 -70,1012l-100 -17 -55 -9 -74 -12 -9 -1 -291 -48 57 -946c4,-62 56,-111 118,-111 1,0 1,0 2,0 1,0 3,0 4,0 1,0 3,0 4,0 20,2 42,4 64,6 9,1 19,2 29,3 28,3 57,7 85,12 14,3 29,5 43,8 24,5 47,10 68,16 14,4 28,8 40,13 52,19 87,43 83,74z"/>
  <path class="fil4" d="M4076 7284l-57 1063 -32 -3 56 -1056c9,-2 18,-3 28,-3 2,0 3,0 5,0l0 0z"/>
  <path class="fil4" d="M4178 7293l-53 1074 -50 0 74 -1077c9,1 19,2 29,3z"/>
  <path class="fil4" d="M4306 7313l-84 1078 -32 0 0 -1 74 -1083c14,2 29,5 43,7z"/>
  <path class="fil4" d="M4414 7342l-86 1070 0 2 -56 -6 0 -5 101 -1074c15,4 28,8 41,13z"/>
  <path class="fil2" d="M3220 8171c0,0 -108,-557 139,-585 246,-29 1056,31 1032,260 -24,228 -50,577 -50,577l-167 -37c0,0 125,-524 -70,-544 -195,-20 -676,-75 -676,-75 0,0 -130,-22 -55,437l-152 -32z"/>
  <path class="fil10" d="M3220 8224c0,0 -108,-592 139,-621 246,-29 1056,31 1032,260 -24,228 -50,577 -50,577l-167 -37c0,0 125,-524 -70,-544 -195,-20 -676,-74 -676,-74 0,0 -130,13 -55,473l-152 -34z"/>
  <path class="fil4" d="M7570 8960l-217 -3c-158,-698 -420,-1133 -420,-1133 -88,-47 -1051,-41 -1051,-41 -100,18 -126,335 -126,335 0,0 85,73 3,120 -37,21 -158,25 -297,18 -173,-9 -374,-35 -478,-68 -188,-59 -38,-167 -38,-167 0,0 26,-35 44,-229 12,-113 49,-222 107,-320 8,-13 13,-21 13,-21 10,-9 22,-17 34,-21 249,-104 1468,-5 1468,-5l452 144c13,5 32,37 56,88 143,306 449,1303 449,1303z"/>
  <path class="fil2" d="M7570 8960l-217 -3c-158,-698 -420,-1133 -420,-1133 -88,-47 -1051,-41 -1051,-41 -100,18 -126,335 -126,335 0,0 85,73 3,120 -37,21 -158,25 -297,18 -173,-9 -374,-35 -478,-68 -188,-59 -38,-167 -38,-167 0,0 26,-35 44,-229 12,-113 49,-222 107,-320 8,-13 13,-21 13,-21 10,-9 22,-17 34,-21 249,-104 1468,-5 1468,-5l452 144c13,5 32,37 56,88 143,306 449,1303 449,1303z"/>
  <path class="fil4" d="M7120 7657c-417,-162 -1567,-76 -1567,-76 -122,-104 -352,-111 -456,-108 8,-13 13,-21 13,-21 10,-9 22,-17 34,-21 249,-104 1468,-5 1468,-5l452 144c12,5 32,37 56,88z"/>
  <path class="fil4" d="M5621 7625c-26,91 -135,455 -135,455 -11,58 -19,117 -24,176 -173,-9 -374,-35 -478,-68 -188,-59 -38,-167 -38,-167 0,0 26,-35 44,-229 13,-121 54,-238 120,-340 10,-9 21,-17 34,-21 163,39 496,126 476,195z"/>
  <path class="fil21" d="M5621 7625c-26,91 -135,455 -135,455 -11,58 -19,117 -24,176 -173,-9 -374,-35 -478,-68 -188,-59 -38,-167 -38,-167 0,0 26,-35 44,-229 13,-121 54,-238 120,-340 10,-9 21,-17 34,-21 163,39 496,126 476,195z"/>
  <path class="fil4" d="M5890 5314c-117,18 -167,260 -167,260l-317 1059 2240 367 572 -1760c-526,-238 -2328,75 -2328,75zm1802 1131c0,0 -13,101 -99,110l-1452 -57 -298 -12 -100 -4 -7 0c0,0 -110,20 -93,-73 0,0 121,-880 335,-946 0,0 22,-5 61,-12 61,-12 163,-30 283,-46 54,-7 111,-14 170,-21 161,-16 335,-25 478,-11 0,0 1069,-99 993,139 0,0 -224,861 -271,933l0 0z"/>
  <path class="fil4" d="M5743 6483l-7 0c0,0 -110,20 -93,-73 0,0 121,-880 335,-946 0,0 22,-5 61,-12 -78,151 -326,669 -296,1031z"/>
  <path class="fil2" d="M5743 6483l-7 0c0,0 -110,20 -93,-73 0,0 121,-880 335,-946 0,0 22,-5 61,-12 -78,151 -326,669 -296,1031z"/>
  <path class="fil2" d="M5940 8654c-25,46 -73,75 -125,75 -3,0 -5,0 -8,0l-45 -2 -423 -18 -153 -7 -141 -12 -1860 -302 14 -183 214 31 89 13 1313 188 173 25 84 12 355 -3 384 -3c1,0 2,0 3,0 18,0 37,4 54,10 33,13 60,38 74,71 7,15 11,32 11,50 0,20 -5,39 -14,56l0 0z"/>
  <path class="fil10" d="M5940 8672c-25,46 -73,75 -125,75 -3,0 -5,0 -8,0l-620 -27 -141 -12 -1983 -322 -156 -25 -85 -14c-167,-35 -117,-203 -117,-203 12,-76 299,-147 393,-144 63,2 72,99 71,163 0,31 -3,54 -3,54l93 13 1814 260 740 -5c1,0 2,0 3,0 55,0 105,32 129,82 7,15 11,32 11,49 0,20 -5,39 -14,56l0 0z"/>
  <path class="fil2" d="M2963 8106c0,0 79,97 203,111 0,0 -50,-109 -203,-111z"/>
  <path class="fil2" d="M2942 8379c0,0 -261,-6 -261,135 0,141 164,164 164,164l2333 449 663 12c0,0 232,-185 -9,-267l-669 17 -2224 -408c0,0 59,-79 3,-103z"/>
  <path class="fil10" d="M5841 9157l-663 -12 -2074 -399 -152 -29 -107 -21c0,0 -164,-24 -164,-164 0,-101 135,-127 211,-133 30,-2 51,-2 51,-2 56,23 -3,103 -3,103l81 15 2143 393 669 -18c241,82 9,267 9,267z"/>
  <path class="fil10" d="M3139 8265l138 -62 70 -3 -6 593 -217 -44 -91 -59 -44 -246c0,0 18,-103 26,-111 9,-9 123,-68 123,-68z"/>
  <path class="fil2" d="M3139 8265l138 -62 70 -3 -6 593 -217 -44 -91 -59 -44 -246c0,0 18,-103 26,-111 9,-9 123,-68 123,-68z"/>
  <path class="fil2" d="M3104 8746l3 3 -153 -29 -2 -3c-80,-130 -87,-235 -61,-318 30,-2 51,-2 51,-2 56,23 -3,103 -3,103l81 15c-5,116 69,213 84,232z"/>
  <path class="fil2" d="M3330 8201c-26,10 -50,20 -72,31 -99,48 -160,101 -195,155l-156 -25c68,-140 229,-205 229,-205l33 7 161 36z"/>
  <path class="fil10" d="M3153 8156c0,0 -428,170 -182,563l153 29c0,0 -302,-346 223,-549l-194 -44z"/>
  <polygon class="fil10" points="4175,8347 4333,8341 4307,8978 4051,8931 3943,8878 3893,8752 3858,8626 3943,8511 4040,8447 "/>
  <polygon class="fil2" points="4175,8347 4333,8341 4307,8978 4051,8931 3943,8878 3893,8752 3858,8626 3943,8511 4040,8447 "/>
  <ellipse class="fil10" cx="4157" cy="8675" rx="76" ry="129"/>
  <path class="fil10" d="M3603 9036c-22,-112 -108,-136 -108,-136 0,0 -165,-48 -169,135 0,0 2,112 77,148l4 125c0,0 7,117 -59,106 -66,-11 -57,-115 -57,-115 0,0 -35,-110 -121,-53 0,0 -20,62 24,93 26,18 27,55 23,82 -1,6 -1,12 -1,18 0,29 10,56 29,78 21,25 52,40 85,40 7,0 14,-1 21,-2 36,-7 68,-26 92,-53 40,-44 63,-101 64,-160l3 -161c0,0 117,-31 95,-143zm-297 578c-52,0 -94,-42 -94,-94 0,-52 42,-94 94,-94 52,0 94,42 94,94 -90,-16 -155,-94 -155,-186 0,-104 84,-189 189,-189 11,0 23,1 34,3l-161 465z"/>
  <path class="fil12" d="M3429 8851c-16,6 -26,22 -26,38 0,7 2,13 5,19 17,32 38,74 36,85 -3,19 39,3 44,-1 5,-4 81,0 86,-52 4,-52 -41,-79 -41,-79l18 -113 -104 -9 1 103 -19 8z"/>
  <path class="fil2" d="M3429 8851c-16,6 -26,22 -26,38 0,7 2,13 5,19 17,32 38,74 36,85 -3,19 39,3 44,-1 5,-4 81,0 86,-52 4,-52 -41,-79 -41,-79l18 -113 -104 -9 1 103 -19 8z"/>
  <path class="fil2" d="M3458 8849c0,0 35,121 20,125 -15,4 -20,-125 -20,-125z"/>
  <path class="fil2" d="M3498 8820c0,0 35,121 20,125 -15,4 -20,-125 -20,-125z"/>
  <path class="fil12" d="M3919 8455l-59 364c0,0 -73,-10 -113,-19 -9,-1 -17,-4 -25,-8 -2,-2 -6,-2 -12,-1l0 0c-20,4 -54,20 -61,6 0,-1 -1,-2 -2,-3l0 0c-7,-8 -20,-2 -33,0 -2,1 -5,1 -7,1 -5,0 -10,-1 -14,-4 -10,-7 -33,4 -51,8 -11,3 -21,2 -26,-8 -3,-7 -10,-11 -18,-12l0 0c-17,-4 -41,-1 -54,-4 -5,-1 -9,-3 -10,-7 -3,-8 -18,-12 -34,-15 -20,-4 -41,-7 -42,-14 0,-3 -2,-4 -5,-4 -11,2 -22,4 -32,8l0 0c-9,2 -16,2 -18,-4 -2,-6 -12,-6 -24,-3 -9,2 -20,6 -28,8 -8,2 -12,2 -13,-2 -3,-12 -41,15 -50,-9 -9,-24 -129,-180 27,-382 0,0 42,3 74,9 11,1 21,4 31,9l0 0c11,6 35,5 57,7 11,0 22,3 31,7 4,2 7,5 9,9 5,11 16,13 28,13 17,-1 35,-7 42,-4l1 0c12,5 58,0 66,8l1 1c3,5 21,0 40,-3l0 0c14,-2 29,-2 36,6 7,6 16,9 25,9 1,0 3,0 4,0 4,0 8,0 12,0 8,0 17,1 25,2 3,1 5,2 7,5 7,9 25,8 42,9 1,0 1,0 2,0 8,0 15,2 22,6 3,2 5,3 8,4 23,5 71,-4 71,-4l70 12z"/>
  <path class="fil2" d="M3279 8737c-9,2 -20,6 -28,8 -119,-185 -19,-325 38,-383 11,1 21,4 31,9 -120,138 -64,311 -41,366z"/>
  <path class="fil2" d="M3354 8736c-11,2 -22,4 -32,8l0 0c-102,-180 3,-315 56,-367 11,0 22,3 31,7 -114,125 -80,280 -55,352z"/>
  <path class="fil2" d="M3446 8776c-5,-1 -9,-3 -10,-7 -3,-8 -18,-12 -34,-15 -89,-163 -9,-289 45,-348 17,-1 35,-7 42,-4l1 0c-126,142 -65,321 -43,374z"/>
  <path class="fil2" d="M3543 8801c-11,3 -21,2 -26,-8 -3,-7 -10,-11 -17,-13l0 0c-104,-182 2,-318 55,-370l1 1c3,5 21,0 40,-3 -148,150 -72,348 -52,393z"/>
  <path class="fil2" d="M3647 8796c-7,-8 -20,-2 -33,0 -109,-181 -9,-317 46,-373 4,0 8,0 12,0 8,0 17,1 25,2 -127,137 -75,311 -50,371z"/>
  <path class="fil2" d="M3748 8801c-9,-1 -17,-4 -25,-8 -2,-2 -6,-2 -12,-1l0 0c-96,-165 -19,-292 36,-354 1,0 1,0 2,0 8,0 15,2 22,6 3,2 5,3 8,4 -105,136 -52,300 -30,353z"/>
  <ellipse class="fil12" cx="6592" cy="9069" rx="478" ry="704"/>
  <path class="fil2" d="M6924 9079c0,-315 -156,-571 -348,-571 -192,0 -348,256 -348,571 0,315 156,571 348,571 192,0 348,-256 348,-571z"/>
  <ellipse class="fil11" cx="6576" cy="9061" rx="348" ry="571"/>
  <ellipse class="fil12" cx="6639" cy="8678" rx="41" ry="70"/>
  <ellipse class="fil12" cx="6804" cy="9295" rx="41" ry="70"/>
  <ellipse class="fil12" cx="6361" cy="9001" rx="41" ry="70"/>
  <ellipse class="fil12" cx="6481" cy="9412" rx="41" ry="70"/>
  <path class="fil4" d="M10093 7766c0,0 344,916 326,973 0,0 145,88 180,66 35,-22 4,-427 4,-427l-66 -356 -75 -211 -370 -44z"/>
  <path class="fil27" d="M10093 7766c0,0 344,916 326,973 0,0 145,88 180,66 35,-22 4,-427 4,-427l-66 -356 -75 -211 -370 -44z"/>
  <ellipse class="fil12" cx="6862" cy="8913" rx="41" ry="70"/>
  <ellipse class="fil12" cx="6639" cy="9083" rx="120" ry="167"/>
  <path class="fil12" d="M10476 8989c0,530 -176,1012 -665,959 -616,-13 -665,-430 -665,-959 0,-530 297,-924 664,-924 367,0 665,394 665,924z"/>
  <path class="fil2" d="M10480 8990c0,-410 -178,-740 -429,-867 -322,61 -570,432 -570,915 0,434 33,792 383,915 451,16 616,-451 616,-963z"/>
  <path class="fil2" d="M10736 8765c0,0 -88,75 -136,22 0,0 -119,-951 -268,-955l-515 -4c0,0 -62,26 -88,141l-333 948 -1824 26 -139 -292 1510 4 0 -1c8,-29 260,-930 430,-1042l0 0c6,-4 12,-7 19,-9 7,-2 629,-83 836,-26 0,0 216,48 268,115l0 0c7,7 89,99 114,365l128 708z"/>
  <path class="fil4" d="M10736 8783c0,0 -88,75 -136,22 0,0 -119,-951 -268,-955l-515 -4c0,0 -62,26 -88,141l-333 948 -1824 26 -139 -292 1510 4 0 -1c8,-29 260,-930 430,-1042l0 0c6,-4 12,-7 19,-9 7,-2 629,-83 836,-26 0,0 216,48 268,115l0 1c7,7 89,99 114,365l128 708z"/>
  <path class="fil2" d="M10736 8783c0,0 -88,75 -136,22 0,0 -119,-951 -268,-955l-515 -4c0,0 -62,26 -88,141l-333 948 -1824 26 -139 -292 1510 4 0 -1c8,-29 260,-930 430,-1042l0 0c6,-4 12,-7 19,-9 7,-2 629,-83 836,-26 0,0 216,48 268,115l0 1c7,7 89,99 114,365l128 708z"/>
  <path class="fil4" d="M9618 7744c-44,83 -423,1114 -423,1114l-255 -185 0 -1c8,-29 260,-931 430,-1042 110,18 278,57 248,114z"/>
  <path class="fil4" d="M9125 7273l-207 678 -1078 -31 9 101c0,0 845,123 1206,-44l194 -619 1702 9 -324 -76 -1501 -17z"/>
  <path class="fil21" d="M9125 7273l-207 678 -1078 -31 9 101c0,0 845,123 1206,-44l194 -619 1702 9 -324 -76 -1501 -17z"/>
  <path class="fil2" d="M4069 8341c0,0 -578,291 -150,563l115 26c0,0 -420,-302 281,-590l-246 0z"/>
  <path class="fil10" d="M4087 8341c0,0 -578,291 -150,563l115 26c0,0 -420,-302 281,-590l-246 0z"/>
  <ellipse class="fil12" cx="10067" cy="9064" rx="321" ry="550"/>
  <path class="fil2" d="M10289 9076c0,-246 -105,-446 -234,-446 -129,0 -234,200 -234,446 0,246 105,446 234,446 129,0 234,-200 234,-446z"/>
  <ellipse class="fil11" cx="10056" cy="9058" rx="234" ry="446"/>
  <ellipse class="fil12" cx="10098" cy="8759" rx="28" ry="55"/>
  <ellipse class="fil12" cx="10208" cy="9241" rx="28" ry="55"/>
  <ellipse class="fil12" cx="9911" cy="9012" rx="28" ry="55"/>
  <ellipse class="fil12" cx="9992" cy="9332" rx="28" ry="55"/>
  <ellipse class="fil12" cx="10248" cy="8943" rx="28" ry="55"/>
  <ellipse class="fil12" cx="10098" cy="9076" rx="81" ry="131"/>
  <path class="fil2" d="M5401 6617c0,0 977,35 2245,383l-2245 -383z"/>
  <path class="fil10" d="M10063 4907c0,0 -53,9 -25,79 28,70 32,106 32,106 0,0 53,28 51,-64 -2,-91 -58,-121 -58,-121z"/>
  <path class="fil24" d="M7464 6326l-1 1c-11,14 -18,30 -21,48 -9,56 -17,170 64,151 46,-10 87,-33 121,-66 17,-18 27,-43 27,-68 0,-2 0,-3 0,-5l0 0c0,0 0,0 0,-1 0,-25 -13,-49 -33,-63l-30 -17c-8,-5 -17,-7 -27,-7 -1,0 -1,0 -2,0l-52 2c-18,1 -35,11 -46,25l0 0z"/>
  <path class="fil4" d="M8049 5372l-156 773 -110 233 73 135 161 -380c0,0 177,-557 177,-573 0,-16 -146,-188 -146,-188z"/>
  <g>
   <g>
    <rect class="fil28" x="12814" y="6686" width="1502" height="2763"/>
    <rect class="fil29" x="14230" y="6686" width="85" height="2763"/>
    <rect class="fil30" x="14071" y="6686" width="245" height="157"/>
    <g id="_1906627505520">
     <path class="fil31" d="M14165 9386l0 -216c-191,-74 -358,-202 -477,-367l0 306c135,124 297,220 477,277z"/>
     <path class="fil31" d="M14165 7187l0 -216c-180,56 -342,153 -477,277l0 306c119,-164 286,-292 477,-367z"/>
    </g>
    <rect class="fil32" x="12566" y="6686" width="1502" height="2763"/>
    <rect class="fil29" x="13963" y="6686" width="106" height="2763"/>
    <rect class="fil30" x="12566" y="6686" width="1502" height="157"/>
    <path class="fil32" d="M13947 5256l-1183 425c-146,52 -243,191 -243,346l0 659c0,36 29,65 65,65l1734 0 0 -1374c0,-56 -45,-106 -101,-108l-272 -16 0 2z"/>
    <path class="fil29" d="M13956 6751l371 0 0 -1376c0,-67 -54,-121 -121,-121l-252 0 0 1495 2 2z"/>
    <path class="fil25" d="M13488 6542c-7,-9 -364,-524 -364,-524l173 0 -187 -306 301 -7 101 447 -144 0 121 387 -2 2z"/>
    <path class="fil33" d="M13045 8044c0,94 76,171 171,171 94,0 171,-76 171,-171 0,-94 -76,-171 -171,-171 -94,0 -171,76 -171,171z"/>
   </g>
   <path class="fil29" d="M10608 7792l-479 0c-20,0 -36,-16 -36,-36l0 -313c0,-20 16,-36 36,-36l479 0c20,0 36,16 36,36l0 313c0,20 -16,36 -36,36z"/>
   <path class="fil33" d="M10511 7596c0,79 -63,142 -142,142 -79,0 -142,-63 -142,-142 0,-79 63,-142 142,-142 79,0 142,63 142,142z"/>
   <g id="_1906627482192">
    <path class="fil34" d="M12121 9373l-654 0c-627,0 -1140,-510 -1140,-1140l0 -636c0,-22 18,-40 40,-40 22,0 40,18 40,40l0 636c0,582 474,1057 1057,1057l654 0c582,0 1057,-474 1057,-1057l0 -191c0,-22 18,-40 40,-40 22,0 40,18 40,40l0 191c0,627 -510,1140 -1140,1140l4 0z"/>
   </g>
  </g>
 </g>
</svg>
