<?xml version="1.0" encoding="UTF-8"?>
<!DOCTYPE svg PUBLIC "-//W3C//DTD SVG 1.1//EN" "http://www.w3.org/Graphics/SVG/1.1/DTD/svg11.dtd">
<!-- Creator: CorelDRAW 2017 -->
<svg xmlns="http://www.w3.org/2000/svg" xml:space="preserve" width="11in" height="8.5in" version="1.1" style="shape-rendering:geometricPrecision; text-rendering:geometricPrecision; image-rendering:optimizeQuality; fill-rule:evenodd; clip-rule:evenodd"
viewBox="0 0 11000 8500"
 xmlns:xlink="http://www.w3.org/1999/xlink"
 data-name="Layer 1">
 <defs>
  <style type="text/css">
   <![CDATA[
    .fil7 {fill:none}
    .fil28 {fill:#02B8B2}
    .fil29 {fill:#039E99}
    .fil32 {fill:#04D9D2}
    .fil34 {fill:#23171D}
    .fil4 {fill:#23CFC6}
    .fil33 {fill:#3A242F}
    .fil19 {fill:#4B3648}
    .fil22 {fill:#4C4981}
    .fil1 {fill:#535F89}
    .fil12 {fill:#636780}
    .fil26 {fill:#9A5E7F}
    .fil8 {fill:#A8A8A8}
    .fil16 {fill:#BDD3E8}
    .fil30 {fill:#BEC4FA}
    .fil31 {fill:#BFB6B9}
    .fil23 {fill:#CEDDF9}
    .fil10 {fill:#DCE0ED}
    .fil3 {fill:#DCE2ED}
    .fil6 {fill:#DEA3A2}
    .fil18 {fill:#E6EBEF}
    .fil11 {fill:#F0F0F4}
    .fil15 {fill:#F3B4B4}
    .fil14 {fill:#F899A5}
    .fil24 {fill:#FEC2BE}
    .fil25 {fill:white}
    .fil20 {fill:black;fill-opacity:0.011765}
    .fil17 {fill:black;fill-opacity:0.050980}
    .fil2 {fill:black;fill-opacity:0.101961}
    .fil0 {fill:#23CFC6;fill-opacity:0.101961}
    .fil21 {fill:white;fill-opacity:0.101961}
    .fil27 {fill:black;fill-opacity:0.149020}
    .fil9 {fill:black;fill-opacity:0.200000}
    .fil5 {fill:#23CFC6;fill-opacity:0.200000}
    .fil13 {fill:url(#id0)}
   ]]>
  </style>
  <linearGradient id="id0" gradientUnits="userSpaceOnUse" x1="3273" y1="6008" x2="3273" y2="4638">
   <stop offset="0" style="stop-opacity:0.25098; stop-color:gray"/>
   <stop offset="0.541176" style="stop-opacity:0.121569; stop-color:gray"/>
   <stop offset="1" style="stop-opacity:0.101961; stop-color:gray"/>
  </linearGradient>
 </defs>
 <g id="Layer_x0020_1">
  <metadata id="CorelCorpID_0Corel-Layer"/>
  <path class="fil0" d="M407 3546c164,450 510,839 1059,1028 1139,392 3708,190 5625,-42 992,-120 1864,-451 2496,-918l-9181 -68z"/>
  <path class="fil0" d="M10460 1427l-1051 0c-50,0 -91,-26 -91,-59 0,-32 41,-59 91,-59l182 0c-50,0 -91,-26 -91,-59 0,-32 41,-59 91,-59l-130 0c-50,0 -91,-26 -91,-59 0,-32 41,-59 91,-59l549 0c-122,-36 -264,-63 -428,-76 -1497,-124 -2032,-42 -2221,42 -244,108 -504,182 -769,217 -924,122 -2651,270 -4217,-48 -779,-158 -1356,108 -1703,554l9971 0c-13,-130 -52,-249 -123,-353 -18,9 -38,15 -58,15 0,0 -1,0 -1,0l0 0 -1 2z"/>
  <path class="fil0" d="M318 2606c-15,97 -22,196 -22,294 0,165 21,331 64,491l9236 217c256,-190 472,-401 642,-629l-9918 -374 -1 1zm3652 561l-181 0c50,0 91,26 91,59 0,32 -41,59 -91,59l-1051 0c-50,0 -91,-26 -91,-59 0,-32 41,-59 91,-59l181 0c-50,0 -91,-26 -91,-59 0,-32 41,-59 91,-59l-131 0c-50,0 -91,-26 -91,-59 0,-32 41,-59 91,-59l1052 0c50,0 91,26 91,59 0,32 -41,59 -91,59l130 0c50,0 91,26 91,59 0,32 -41,59 -91,59z"/>
  <path class="fil0" d="M10643 1770l-10083 158c-123,206 -205,433 -241,670l10148 0c64,-136 114,-279 146,-427 31,-139 43,-275 31,-400l0 -1zm-8278 517l-182 0c50,0 91,26 91,59 0,32 -41,59 -91,59l-1051 0c-50,0 -91,-26 -91,-59 0,-32 41,-59 91,-59l182 0c-50,0 -91,-26 -91,-59 0,-32 41,-59 91,-59l-130 0c-50,0 -91,-26 -91,-59 0,-32 41,-59 91,-59l1051 0c50,0 91,26 91,59 0,32 -41,59 -91,59l130 0c50,0 91,26 91,59 0,32 -40,59 -91,59z"/>
  <rect class="fil1" x="5563" y="2892" width="54" height="2989"/>
  <path class="fil1" d="M5667 6440c-25,20 -55,30 -87,30 -32,0 -62,-10 -87,-30 -24,-160 37,-475 51,-545l3 -14 70 0c5,5 8,10 11,16 48,103 38,543 38,543z"/>
  <path class="fil2" d="M5605 5817l0 64 -29 0 0 -64c5,-1 9,-1 14,-1 0,0 0,0 0,0 0,0 0,0 0,0 5,0 10,0 15,1l0 0z"/>
  <path class="fil2" d="M5629 5897c-12,7 -25,9 -39,9 0,0 -1,0 -1,0 -1,0 -1,0 -2,0 -15,0 -29,-4 -41,-11l3 -14 70 0c5,5 8,10 10,16l0 0z"/>
  <ellipse class="fil3" cx="5589" cy="5861" rx="59" ry="35"/>
  <polygon class="fil4" points="5332,2410 5539,2312 5842,2384 5607,2206 "/>
  <polygon class="fil4" points="5393,2442 5332,2410 5539,2312 5842,2384 5789,2410 5539,2354 "/>
  <polygon class="fil2" points="5393,2442 5332,2410 5539,2312 5842,2384 5789,2410 5539,2354 "/>
  <polygon class="fil5" points="5384,2419 5550,2883 5632,2883 5786,2390 5539,2333 "/>
  <polygon class="fil4" points="5673,2752 5640,2858 5632,2883 5550,2883 5544,2866 5505,2758 5567,2720 "/>
  <polygon class="fil5" points="5539,2354 5578,2883 5550,2883 5393,2442 "/>
  <polygon class="fil2" points="5607,2206 5539,2312 5332,2410 "/>
  <path class="fil2" d="M5640 2858l-7 25 -82 0 -7 -17c13,-12 30,-20 49,-20 2,0 3,0 5,0 1,0 2,0 3,0 14,0 28,4 41,11l0 0 -1 0z"/>
  <path class="fil2" d="M5605 2892l0 45c-3,0 -5,0 -7,0 0,0 0,0 0,0 -7,0 -14,-1 -21,-3l0 -43 29 0 0 1z"/>
  <ellipse class="fil3" cx="5596" cy="2892" rx="59" ry="35"/>
  <rect class="fil1" x="7688" y="4346" width="36" height="1977"/>
  <path class="fil1" d="M7758 6692c-17,13 -36,20 -57,20 -21,0 -41,-7 -57,-20 -16,-106 24,-314 35,-360 1,-7 2,-9 2,-9l46 0c3,3 6,7 7,10 32,68 25,359 25,359l-1 0z"/>
  <path class="fil2" d="M7716 6279l0 43 -20 0 0 -43c3,-1 6,-1 8,-1 0,0 1,0 1,0 3,0 7,0 9,1l0 0 1 0z"/>
  <path class="fil2" d="M7733 6333c-7,4 -17,7 -25,7 0,0 -1,0 -1,0 0,0 -1,0 -1,0 -9,0 -19,-3 -27,-7 1,-7 2,-9 2,-9l46 0c3,3 6,7 7,11l0 0 -1 -1z"/>
  <ellipse class="fil3" cx="7706" cy="6309" rx="38" ry="23"/>
  <polygon class="fil4" points="7536,4027 7672,3963 7873,4010 7717,3892 "/>
  <polygon class="fil4" points="7576,4049 7536,4027 7672,3963 7873,4010 7838,4027 7672,3991 "/>
  <polygon class="fil2" points="7576,4049 7536,4027 7672,3963 7873,4010 7838,4027 7672,3991 "/>
  <polygon class="fil5" points="7570,4033 7680,4340 7735,4340 7836,4014 7672,3976 "/>
  <polygon class="fil4" points="7761,4253 7739,4323 7735,4340 7680,4340 7676,4329 7651,4257 7692,4233 "/>
  <polygon class="fil5" points="7672,3991 7698,4340 7680,4340 7576,4049 "/>
  <polygon class="fil2" points="7717,3892 7672,3963 7536,4027 "/>
  <path class="fil2" d="M7739 4323l-6 17 -54 0 -4 -11c8,-8 20,-13 32,-13 1,0 2,0 3,0 1,0 1,0 2,0 9,0 19,3 27,7l0 0z"/>
  <path class="fil2" d="M7716 4346l0 30 -5 0c0,0 0,0 0,0 -5,0 -9,-1 -14,-2l0 -29 20 0 -1 1z"/>
  <ellipse class="fil3" cx="7711" cy="4346" rx="38" ry="23"/>
  <path class="fil0" d="M8573 8018c0,-236 -1939,-428 -4332,-428 -2393,0 -4332,192 -4332,428 0,236 1939,428 4332,428 2393,0 4332,-192 4332,-428z"/>
  <path class="fil6" d="M4259 7021c0,0 -868,-36 -960,-1736 -92,-1700 814,-1988 814,-1988 0,0 287,-160 414,-166 127,-7 552,34 552,34l-468 -91c0,0 659,-250 857,-271l-713 150c0,0 -9,-394 161,-525 0,0 -146,-11 -223,274 -44,166 -165,302 -325,365 -264,103 -630,265 -713,406 0,0 -154,161 -131,-258 23,-419 134,-777 174,-786 0,0 314,-335 756,-354 0,0 -258,-104 -693,221 0,0 -36,-164 127,-358 164,-194 419,-602 696,-646 0,0 -388,-23 -696,479 0,0 -114,74 -124,-114 -10,-187 -77,-422 -77,-422 0,0 -93,432 104,625 0,0 -379,492 -362,1044 0,0 -117,250 -161,-44 0,0 -25,-406 -76,-750 -7,-49 -11,-98 -11,-148 0,-232 79,-457 224,-637 83,-104 142,-205 109,-258l-438 522c0,0 -368,-853 -636,-1036 -267,-183 -301,-224 -301,-224l432 506 -542 -192 542 250c0,0 251,205 395,763 144,559 157,907 157,907 0,0 -773,-612 -920,-593l500 379c275,208 447,525 470,870l0 0c0,0 -967,-248 -1201,-294l-442 -451 335 428 -690 -9 -394 -281c0,0 311,261 281,278 -31,17 -485,36 -485,36 0,0 1158,-7 1285,77 127,83 411,114 411,114l-820 123 977 -70c0,0 739,134 779,364 0,0 -150,393 -250,549 -83,130 -251,549 -284,917 -34,368 -80,934 47,1279 127,345 174,542 110,646 -64,104 -124,237 83,264 207,27 1118,-13 1118,-13 0,0 278,54 224,-150l1 -1z"/>
  <path class="fil2" d="M3772 6838c-62,-32 -130,-48 -198,-48 -33,0 -64,4 -96,11 -170,36 -432,18 -455,13m750 23l0 0 0 0z"/>
  <path class="fil2" d="M3227 4835c0,0 -41,654 32,783l-32 -783z"/>
  <path class="fil2" d="M3074 5618c0,0 53,612 90,733 36,120 -90,-733 -90,-733z"/>
  <path class="fil2" d="M3023 4111c-37,14 -199,341 -166,437 33,97 166,-437 166,-437z"/>
  <path class="fil2" d="M3431 3772c-18,7 -93,196 -78,252 15,56 78,-252 78,-252z"/>
  <path class="fil2" d="M2733 4870c19,190 29,314 17,466 -5,50 -7,101 -7,151 0,67 4,136 11,203m-21 -821l0 0 0 0z"/>
  <path class="fil2" d="M4752 2659c-22,26 -30,62 -32,96 -1,35 4,69 1,104 -3,36 -20,79 -55,83m86 -283l0 0 0 0z"/>
  <path class="fil2" d="M4134 1527c-46,46 -87,96 -121,150 -10,17 -21,34 -35,49 -20,21 -44,36 -66,54 -52,42 -89,100 -106,165m328 -419l0 0 0 0z"/>
  <path class="fil2" d="M2385 549c11,21 25,41 43,57 15,14 33,27 46,42 11,14 21,28 29,44 36,56 79,107 123,156m-242 -299l0 0 0 0z"/>
  <path class="fil2" d="M3195 1517c-29,18 -36,57 -36,91 1,34 7,69 -7,101 -6,14 -15,27 -21,41 -10,24 -10,52 -9,79 1,31 2,62 3,93 2,37 5,78 30,105m39 -508l0 0 0 0z"/>
  <path class="fil7" d="M2952 2477c27,14 52,32 75,51 23,21 38,48 44,78 2,13 1,26 4,39 5,18 14,34 25,47 20,25 40,49 64,70"/>
  <path class="fil2" d="M3171 3350c-19,-16 -39,-30 -61,-42 -20,-12 -40,-21 -63,-27 -34,-8 -68,-7 -103,-11 -35,-4 -70,-13 -93,-39m320 120l0 0 0 0z"/>
  <path class="fil2" d="M1810 2928c41,1 83,3 120,21 19,9 35,23 52,34 23,13 50,20 77,20m-249 -75l0 0 0 0z"/>
  <path class="fil2" d="M2375 3095c-8,-7 -22,-2 -29,7 -7,8 -11,20 -19,27 -15,16 -39,18 -61,19m109 -52l0 0 0 0z"/>
  <path class="fil2" d="M2608 2231l39 21c41,20 79,43 116,70m-154 -91l0 0 0 0z"/>
  <path class="fil2" d="M3055 2614c26,-7 48,21 52,48 5,26 -1,53 7,79 8,22 21,42 39,58m-98 -184l0 0 0 0z"/>
  <path class="fil2" d="M3490 2662c23,70 -26,146 -12,219 5,22 15,42 20,64 13,57 -9,119 -48,164m39 -447l0 0 0 0z"/>
  <rect class="fil1" x="2023" y="2094" width="67" height="3732"/>
  <path class="fil1" d="M2155 6523c-31,24 -69,37 -108,37 -39,0 -78,-13 -108,-37 -30,-200 47,-593 64,-680l4 -18 87 0c6,6 10,13 13,21 60,128 48,678 48,678l1 0z"/>
  <path class="fil2" d="M2076 5745l0 80 -36 0 0 -80c6,-1 11,-1 17,-1 0,0 1,0 1,0 0,0 0,0 0,0 7,0 12,1 19,2l0 0 0 -1z"/>
  <path class="fil2" d="M2108 5846c-15,7 -31,12 -48,12 -1,0 -1,0 -2,0 -1,0 -2,0 -3,0 -18,0 -36,-5 -51,-14l4 -18 87 0c6,6 10,13 13,21l0 0 0 -1z"/>
  <ellipse class="fil3" cx="2057" cy="5800" rx="73" ry="43"/>
  <polygon class="fil4" points="1737,1493 1994,1370 2373,1461 2079,1238 "/>
  <polygon class="fil4" points="1811,1533 1737,1493 1994,1370 2373,1461 2306,1493 1994,1423 "/>
  <polygon class="fil2" points="1811,1533 1737,1493 1994,1370 2373,1461 2306,1493 1994,1423 "/>
  <polygon class="fil5" points="1801,1504 2009,2083 2111,2083 2303,1467 1994,1395 "/>
  <polygon class="fil4" points="2162,1920 2121,2051 2111,2083 2009,2083 2001,2062 1952,1926 2030,1879 "/>
  <polygon class="fil5" points="1994,1423 2042,2083 2009,2083 1811,1533 "/>
  <polygon class="fil2" points="2079,1238 1994,1370 1737,1493 "/>
  <path class="fil2" d="M2121 2051l-9 32 -103 0 -7 -21c11,-15 36,-24 65,-24 1,0 2,0 3,0 19,0 36,5 51,15l0 0 0 -1z"/>
  <path class="fil2" d="M2076 2094l0 56c-3,0 -7,1 -9,1 0,0 0,0 0,0 -9,0 -18,-1 -27,-3l0 -54 36 0z"/>
  <ellipse class="fil3" cx="2066" cy="2094" rx="73" ry="43"/>
  <path class="fil0" d="M8971 7021c0,-15 -73,-28 -164,-28 -91,0 -164,12 -164,28 0,15 73,28 164,28 91,0 164,-12 164,-28z"/>
  <path class="fil8" d="M8697 6892c0,0 93,-3 122,-23 28,-20 144,-44 150,-12 7,32 140,160 35,161 -106,1 -245,-17 -273,-34 -28,-17 -34,-93 -34,-93l0 1z"/>
  <path class="fil9" d="M9006 7007c-106,1 -245,-17 -273,-34 -21,-13 -30,-60 -33,-81l-3 0c0,0 6,76 34,93 28,17 167,35 273,34 31,0 41,-11 40,-27 -5,10 -17,16 -39,16l1 0z"/>
  <path class="fil0" d="M9883 6698c0,-12 -56,-21 -126,-21 -69,0 -126,9 -126,21 0,12 56,21 126,21 69,0 126,-9 126,-21z"/>
  <path class="fil8" d="M9672 6599c0,0 72,-2 93,-18 21,-15 110,-34 116,-9 6,24 108,123 27,123 -81,1 -189,-12 -210,-26 -21,-13 -26,-71 -26,-71l0 1z"/>
  <path class="fil9" d="M9910 6687c-81,1 -189,-13 -210,-26 -17,-9 -23,-46 -25,-63l-3 0c0,0 5,58 26,71 21,13 129,26 210,26 23,0 32,-8 31,-21 -3,7 -12,12 -30,12l1 0z"/>
  <path class="fil0" d="M9485 8044c0,-28 -135,-50 -301,-50 -166,0 -301,22 -301,50 0,28 135,50 301,50 166,0 301,-22 301,-50z"/>
  <path class="fil8" d="M8983 7807c0,0 172,-6 223,-42 51,-36 264,-80 277,-21 13,59 258,293 64,295 -193,2 -450,-30 -501,-62 -51,-32 -63,-170 -63,-170l-1 0z"/>
  <path class="fil9" d="M9551 8019c-193,2 -450,-30 -502,-62 -39,-24 -55,-110 -60,-150l-6 0c0,0 11,138 63,170 52,32 307,64 502,62 56,0 76,-21 74,-50 -8,18 -30,29 -71,29z"/>
  <path class="fil6" d="M6082 5653c0,0 499,-21 551,-997 52,-977 -467,-1142 -467,-1142 0,0 -164,-92 -237,-96 -73,-4 -317,20 -317,20l269 -52c0,0 -379,-144 -492,-156l409 87c0,0 6,-227 -93,-302 0,0 83,-7 128,157 25,95 94,174 187,209 152,59 362,152 409,233 0,0 89,93 75,-148 -13,-240 -77,-446 -100,-451 0,0 -180,-193 -435,-204 0,0 148,-60 398,126 0,0 21,-94 -73,-206 -94,-111 -240,-346 -400,-371 0,0 223,-13 400,275 0,0 65,42 71,-65 6,-107 44,-242 44,-242 0,0 54,248 -60,359 0,0 217,282 207,600 0,0 67,144 93,-25 0,0 14,-233 43,-431 4,-28 7,-57 7,-85 0,-134 -46,-263 -129,-366 -48,-60 -81,-118 -63,-149l251 300c0,0 211,-490 365,-595 153,-106 173,-129 173,-129l-248 291 311 -109 -311 144c0,0 -144,117 -227,438 -82,322 -91,521 -91,521 0,0 444,-351 529,-340l-287 217c-158,120 -257,302 -270,499l0 0c0,0 555,-142 690,-169l253 -260 -192 246 396 -6 227 -162c0,0 -179,150 -162,160 17,9 279,21 279,21 0,0 -664,-4 -738,44 -73,48 -236,65 -236,65l471 72 -561 -40c0,0 -424,77 -448,209 0,0 87,225 144,315 48,74 144,315 164,526 20,211 46,536 -27,734 -73,198 -100,311 -64,371 36,60 71,136 -48,151 -120,16 -642,-7 -642,-7 0,0 -160,31 -129,-87l-1 4z"/>
  <path class="fil2" d="M6361 5549c36,-18 74,-27 114,-27 19,0 37,2 55,7 97,21 248,9 262,7m-431 13l0 0 0 0z"/>
  <path class="fil2" d="M6674 4398c0,0 23,376 -19,450l19 -450z"/>
  <path class="fil2" d="M6762 4848c0,0 -31,351 -51,421 -21,69 51,-421 51,-421z"/>
  <path class="fil2" d="M6792 3982c21,8 114,195 95,251 -19,55 -95,-251 -95,-251z"/>
  <path class="fil2" d="M6557 3788c9,5 53,113 45,145 -8,32 -45,-145 -45,-145z"/>
  <path class="fil2" d="M6958 4419c-10,109 -17,180 -9,268 2,29 4,58 4,87 0,39 -2,79 -7,117m13 -472l0 0 0 0z"/>
  <path class="fil2" d="M5798 3149c12,15 18,34 18,53 0,1 0,1 0,2 1,20 -2,39 -1,59 1,20 11,45 32,48m-50 -163l0 0 0 0z"/>
  <path class="fil2" d="M6153 2498c26,26 50,55 69,87 6,10 12,20 20,28 12,11 24,21 38,31 30,24 51,58 61,95m-188 -241l0 0 0 0z"/>
  <path class="fil2" d="M7158 1936c-7,12 -15,23 -24,33 -8,8 -19,15 -26,24 -7,7 -12,16 -17,25 -21,32 -45,62 -71,90m139 -172l0 0 0 0z"/>
  <path class="fil2" d="M6693 2492c17,10 21,33 21,52 0,20 -4,40 4,59 4,8 8,16 12,23 4,11 7,24 7,36 0,3 0,6 0,8 0,18 -1,36 -2,53 -1,21 -3,45 -18,60m-23 -293l0 0 0 0z"/>
  <path class="fil7" d="M6832 3044c-15,8 -30,18 -43,29 -13,12 -22,28 -25,45 -1,7 -1,15 -2,22 -3,10 -7,20 -15,27 -11,14 -23,28 -36,40"/>
  <path class="fil2" d="M6707 3545c11,-8 22,-17 35,-24 11,-7 23,-12 36,-16 20,-4 39,-6 59,-6 20,-1 39,-8 54,-22m-183 68l0 0 0 0z"/>
  <path class="fil2" d="M7488 3303c-23,1 -48,2 -68,12 -10,6 -20,13 -30,20 -13,7 -29,11 -44,11m143 -43l0 0 0 0z"/>
  <path class="fil2" d="M7164 3399c2,-1 4,-2 7,-2 5,0 8,2 10,6 4,5 7,11 11,16 8,9 22,10 35,10m-63 -30l0 0 0 0z"/>
  <path class="fil2" d="M7030 2903l-22 12c-23,11 -46,25 -66,40m89 -52l0 0 0 0z"/>
  <path class="fil2" d="M6773 3122c-15,-4 -27,12 -30,27 -3,15 0,31 -4,45 -5,13 -12,24 -22,34m56 -106l0 0 0 0z"/>
  <path class="fil2" d="M6524 3149c-13,40 15,84 7,125 -3,13 -8,24 -11,37 -7,33 6,68 27,94m-22 -257l0 0 0 0z"/>
  <path class="fil4" d="M3619 3954c-160,216 -292,850 -328,1041l-279 -11c18,-164 354,-828 448,-1010 50,-7 104,-13 159,-20l0 0z"/>
  <rect class="fil10" x="6974" y="3878" width="123" height="174"/>
  <path class="fil2" d="M7097 3878l0 57c-8,3 -17,4 -26,4 0,0 -1,0 -1,0l-96 -1 0 -60 123 0z"/>
  <path class="fil10" d="M6922 3435l117 0c57,0 108,35 130,88 34,84 63,218 -13,350 -17,30 -49,49 -83,49 0,0 -1,0 -1,0l-149 -1 0 -485 -1 -1z"/>
  <ellipse class="fil11" cx="6922" cy="3678" rx="125" ry="243"/>
  <rect class="fil10" x="5878" y="3879" width="123" height="152"/>
  <path class="fil2" d="M6001 3879l0 49c-8,3 -17,4 -26,4 0,0 -1,0 -1,0l-96 -1 0 -51 123 0z"/>
  <path class="fil10" d="M5825 3437l117 0c57,0 108,35 130,88 35,84 64,218 -13,350 -17,30 -50,49 -84,49 0,0 -1,0 -1,0l-149 -1 0 -485 0 -1z"/>
  <ellipse class="fil11" cx="5825" cy="3679" rx="125" ry="243"/>
  <path class="fil10" d="M5857 3526c0,0 -46,7 -22,68 13,30 22,61 27,92 6,32 46,24 44,-55 -2,-79 -50,-105 -50,-105l1 0z"/>
  <ellipse class="fil12" cx="1180" cy="6993" rx="728" ry="798"/>
  <path class="fil2" d="M1453 6246c-381,25 -683,372 -683,796 0,342 196,634 472,747 381,-25 683,-372 683,-796 0,-342 -196,-634 -472,-747z"/>
  <ellipse class="fil12" cx="6879" cy="5249" rx="591" ry="770"/>
  <path class="fil2" d="M6713 4511c-245,94 -424,390 -424,739 0,374 205,686 476,756 245,-94 424,-390 424,-739 0,-374 -205,-686 -476,-756z"/>
  <path class="fil4" d="M4659 5085l11 -279c0,0 -55,-121 -109,-132 -55,-11 -181,-18 -181,-18 0,0 -99,402 -33,522 65,121 312,-93 312,-93l0 0z"/>
  <path class="fil2" d="M4659 5085l11 -279c0,0 -55,-121 -109,-132 -55,-11 -181,-18 -181,-18 0,0 -99,402 -33,522 65,121 312,-93 312,-93l0 0z"/>
  <path class="fil4" d="M3647 5055c0,0 -34,-388 179,-395 27,-1 55,-2 82,-4 148,-14 550,-46 503,47 0,0 -96,337 -30,422l-734 -70 -1 0z"/>
  <path class="fil4" d="M6668 5774l286 8c0,0 50,-526 65,-567 17,-41 24,-238 -29,-267 -53,-29 -233,-64 -233,-64l-132 300 -10 272 51 319 1 -1z"/>
  <path class="fil2" d="M6668 5774l286 8c0,0 50,-526 65,-567 17,-41 24,-238 -29,-267 -53,-29 -233,-64 -233,-64l-132 300 -10 272 51 319 1 -1z"/>
  <path class="fil4" d="M5977 4900l-1 -59c0,0 0,-1 0,-1 0,-19 15,-34 34,-34 1,0 1,0 2,0 142,6 657,31 748,77 0,0 -99,735 10,909l-37 588 -1263 -94 508 -1387 -1 1z"/>
  <path class="fil2" d="M5878 3973c36,-4 77,-7 123,-11l0 70 -123 0 0 -59z"/>
  <path class="fil2" d="M7097 4043l0 8 -123 0 0 -53c43,9 84,24 123,45l0 0z"/>
  <path class="fil13" d="M3618 4903c1,-3 2,-6 5,-7 2,-1 4,-1 6,-1 1,0 2,0 3,0l0 0c0,3 0,5 0,5l0 0c-7,6 -12,11 -18,18 2,-5 3,-10 5,-15l0 1zm460 -135c0,0 0,-1 0,-1 0,0 0,-1 0,-1 7,-16 13,-31 21,-46 -21,18 -28,34 -35,50l13 -3zm66 -128c-10,16 -23,36 -36,60 6,-19 13,-37 22,-54l13 -6zm-1752 1367c50,2 91,1 91,1 -9,4 -49,2 -91,-1zm91 1c2,-1 21,-12 63,-7 0,0 -42,-2 -63,7zm1663 -749l18 -311c0,0 -7,159 -5,228 0,2 0,5 0,7 0,26 -5,52 -14,78l0 0 1 -1z"/>
  <path class="fil14" d="M3109 5857c0,0 -6,16 -12,36 -11,33 -27,78 -32,82 -6,4 -47,7 -92,9 -6,0 -11,1 -17,1 -64,0 -127,-21 -178,-62 -50,-40 23,-17 49,-36 25,-20 51,-42 57,-53 7,-15 50,-41 76,-56 11,-7 20,-11 20,-11l129 90z"/>
  <path class="fil15" d="M3055 5994c0,0 -455,-21 -482,-27 -27,-6 -33,-38 -33,-38 -9,-21 39,-17 39,-17l0 0c5,1 59,9 108,16l0 0c40,6 79,8 88,5l0 0c21,-8 61,-5 61,-5 -23,-77 -93,-94 -122,-99l2 -2c7,-7 17,-14 26,-20 93,4 142,132 142,132l1 0c10,4 122,38 145,41l0 0c23,4 26,13 26,13l-1 1z"/>
  <path class="fil14" d="M2817 6035c-2,6 -9,9 -22,11 -4,0 -7,0 -10,0 -4,0 -7,0 -10,0l0 0c-43,-4 -86,-13 -126,-28 -7,-3 -14,-5 -20,-7l-1 0c-16,-5 -32,-7 -48,-9 -41,-5 -59,7 -61,7l0 0c0,0 -40,1 -88,-1l0 0c-36,-1 -73,-5 -109,-11l0 0c-6,-1 -9,-3 -15,-4 -8,-2 -17,-6 -24,-9 -50,-30 119,-50 119,-50 20,-3 37,-11 51,-24l2 -2 5 -5 0 0c7,-6 13,-11 21,-16l7 -4c34,-22 79,-47 79,-47 32,-8 61,-25 84,-48 5,-5 8,-9 12,-14l0 0 93 -24 64 155c0,0 1,8 1,21 1,34 3,97 -1,111l-3 -3z"/>
  <path class="fil2" d="M2795 6046c-4,0 -7,0 -10,0 -4,0 -7,0 -10,0l0 0c-43,-4 -86,-13 -126,-28 -7,-3 -14,-5 -20,-7l-1 0c-16,-5 -32,-7 -48,-9 -41,-5 -59,7 -61,7l0 0c0,0 -40,1 -88,-1l0 0c-36,-1 -73,-5 -109,-11l0 0c-6,-1 -9,-3 -15,-4 5,-1 9,-1 14,-1 2,0 3,0 5,0l0 0c5,1 59,7 109,11l0 0c41,4 79,6 88,1l0 0c20,-9 61,-7 61,-7 -26,-76 -97,-91 -127,-93 1,-1 1,-1 2,-2l0 0c7,-7 16,-14 25,-21l2 0c92,2 146,125 146,125l1 0c10,3 124,33 146,35l0 0c7,0 12,2 18,5l0 0 -1 0z"/>
  <path class="fil15" d="M2800 6058c0,0 -456,-1 -483,-6 -27,-5 -35,-36 -35,-36 -9,-21 38,-18 38,-18l0 0c5,1 59,7 109,11l0 0c40,4 79,6 88,1l0 0c20,-9 61,-7 61,-7 -26,-76 -97,-91 -127,-93l2 -2c7,-7 16,-15 25,-21 93,0 148,125 148,125l1 0c10,3 124,33 146,35l0 0c24,3 28,11 28,11l-1 0z"/>
  <path class="fil2" d="M3109 5857c0,0 -6,16 -12,36 -3,-2 -93,-62 -126,-101 -4,-5 -7,-9 -10,-15 11,-7 20,-11 20,-11l129 90 0 1z"/>
  <path class="fil16" d="M3372 5660l-16 52 -155 84c0,0 -42,30 -49,44 -6,9 -14,16 -24,20 -7,9 -15,20 -21,30 -7,10 -92,-61 -126,-101 -10,-12 -16,-22 -11,-28 21,-24 142,-112 142,-112 0,0 74,-97 78,-95 3,2 40,-35 63,-54l15 -14 107 176 -1 -1z"/>
  <path class="fil14" d="M4110 4607l-150 266 -55 106 -294 -43 7 -14 25 -52 11 -24 2 -3 33 -59 2 -3 23 -34 48 -67c6,0 10,-2 16,-4 8,-5 15,-11 18,-21 17,-42 -14,-121 -14,-121 0,0 112,-273 150,-122 29,111 114,165 156,185 7,4 16,7 24,10l0 0 -1 0z"/>
  <path class="fil16" d="M3604 5523l0 26c0,0 97,93 84,169 -13,76 14,171 14,171l98 -7 -15 -347 -182 -11 1 -1z"/>
  <path class="fil17" d="M3801 5882l-98 7c0,0 -27,-94 -14,-171 13,-76 -84,-169 -84,-169l0 -26 182 11 1 22 14 324 -1 1z"/>
  <path class="fil17" d="M3258 5514c-31,29 -60,60 -86,93 -35,46 -93,112 -93,112l-70 41 -29 28c-10,-12 -16,-22 -11,-28 21,-24 142,-112 142,-112 0,0 74,-97 78,-95 3,2 40,-35 63,-54l7 15z"/>
  <path class="fil2" d="M2818 5924c-3,3 -6,5 -8,7 -3,3 -2,46 -37,-62 -36,-107 -124,-81 -124,-81 -1,0 -1,-1 -1,-2 0,0 0,0 0,-1 0,-3 6,-8 12,-14l0 0 93 -24 64 155c0,0 1,8 1,21l0 1z"/>
  <path class="fil16" d="M3148 5313l-54 2 -37 53c0,0 -62,66 -80,82 -19,17 -139,130 -174,189 0,0 -32,16 -32,32 0,16 -60,62 -60,62 0,0 -64,43 -54,49 0,0 89,-26 124,81 36,107 37,62 37,62 7,-7 13,-12 21,-17 8,-3 50,-62 62,-64 9,-2 18,-6 25,-11l73 -72 70 -41c0,0 59,-66 93,-112 26,-33 55,-64 86,-93l-102 -201 1 0z"/>
  <path class="fil2" d="M2876 5660c0,0 97,48 93,57 -4,10 -93,-57 -93,-57z"/>
  <path class="fil2" d="M2952 5649c0,0 7,43 47,40 38,-2 -47,-40 -47,-40z"/>
  <path class="fil2" d="M2817 5768c0,0 6,24 41,29 36,5 -41,-29 -41,-29z"/>
  <path class="fil2" d="M3182 5660c0,0 48,20 51,47 5,27 -51,-47 -51,-47z"/>
  <path class="fil2" d="M3066 5760c19,7 71,67 70,74 -1,7 -70,-74 -70,-74z"/>
  <path class="fil2" d="M3150 5718c4,-1 7,-2 10,-2 8,0 16,3 21,8 13,14 -33,-7 -33,-7l1 0z"/>
  <path class="fil14" d="M3497 5250c0,0 -183,-59 -169,0 14,59 169,93 169,93l0 -93z"/>
  <path class="fil2" d="M4110 4607l-150 266 -55 106 -294 -43 7 -14c7,-9 15,-19 23,-26 0,-3 0,-5 0,-7 0,-7 1,-12 2,-19 2,-10 7,-20 13,-27l1 -1c14,-12 27,-44 34,-61 3,-7 4,-11 4,-11l20 -22 64 -71 18 -21 17 -19 -60 85c0,0 -29,51 -30,59 -2,7 -49,70 -49,70 0,0 -80,70 64,72 143,1 231,-138 231,-138l121 -187c7,4 16,7 24,10l0 0 -2 -1z"/>
  <polygon class="fil2" points="3787,5558 3731,5554 3604,5543 3604,5523 3786,5535 "/>
  <path class="fil18" d="M4085 4582c0,0 26,29 51,30 0,0 -48,50 -64,99 0,0 -80,136 -22,182 58,47 91,56 91,56l-18 311c0,0 43,214 59,230 16,16 11,51 11,51 0,0 -10,36 1,49 11,13 14,79 14,79 0,0 -64,-33 -78,-33 -13,0 -49,-67 -49,-67l-350 -24 -154 -13 24 -428c0,0 -70,-115 26,-204 0,0 -4,-37 16,-54 20,-17 37,-72 37,-72l118 -133 0 0 -60 86c0,0 -29,51 -30,59 -1,7 -49,70 -49,70 0,0 -80,70 64,72 143,2 231,-139 231,-139l134 -207 -3 0z"/>
  <path class="fil2" d="M3971 5147c0,0 50,36 103,38 53,2 -103,-38 -103,-38z"/>
  <path class="fil2" d="M4036 5031c0,0 39,-20 62,-3 22,16 -62,3 -62,3z"/>
  <path class="fil2" d="M4017 5096c0,0 3,23 61,26 59,3 -61,-26 -61,-26z"/>
  <path class="fil14" d="M4133 4612l12 7c25,9 50,15 78,17 50,5 93,51 101,96 2,11 4,26 6,43 2,24 3,50 3,74 0,34 -2,67 -6,101 -5,41 -9,88 -7,94 5,13 -23,213 -23,213 0,0 -7,164 -48,179 -41,15 -269,15 -269,15l-96 -167 225 10c19,-33 28,-70 28,-107 0,-3 0,-6 0,-8 -2,-69 5,-228 5,-228 0,0 -136,-29 -108,-136 28,-107 101,-202 101,-202l-1 0z"/>
  <path class="fil16" d="M3703 5889c0,0 -91,30 -126,14 -36,-16 -113,-76 -113,-76 0,0 -50,-49 -97,-103l-6 -7 0 0c-41,-48 -78,-97 -78,-122 0,-1 0,-2 0,-3 0,-9 -1,-19 -4,-28 -4,-14 -10,-28 -20,-39 -5,-7 -10,-13 -17,-19l-149 -193c0,0 43,-46 43,-59 0,-12 51,-83 118,-46 28,16 94,74 162,136 93,85 188,179 188,179 0,0 7,7 17,19 25,29 71,84 75,112 6,38 8,235 8,235l-2 1z"/>
  <path class="fil17" d="M3621 5542c-71,70 -177,164 -254,182l-2 1 -4 -7 0 0 -81 -152 -21 -39 1 -1 156 -179c93,85 188,179 188,179 0,0 7,7 17,19l0 -1z"/>
  <path class="fil16" d="M4191 5674l0 33c0,0 45,160 -36,205 -41,22 -129,28 -207,28 0,0 0,0 -1,0 -106,0 -196,-76 -215,-179 -2,-8 -3,-17 -3,-25 0,-7 1,-14 2,-21 1,-7 -36,-261 -45,-263 0,0 -206,236 -331,263l-107 -198 169 -194c0,0 126,-200 163,-218 36,-19 73,-69 73,-69 0,0 148,-122 245,85 98,207 162,375 185,437 0,0 35,70 56,70l1 0c27,0 50,22 50,50l0 0 1 -4z"/>
  <path class="fil2" d="M3682 5439c20,-21 35,-48 44,-76 16,-48 -5,48 -40,86l-5 -10 1 0z"/>
  <path class="fil19" d="M3492 4256c2,14 12,26 22,37 22,24 47,47 72,67 11,9 22,19 26,30 1,3 1,7 1,10 0,6 -1,11 -3,16 -9,33 -21,64 -38,94 -7,9 -10,21 -10,33 3,25 39,40 65,57 35,22 55,56 53,91 -2,53 -52,98 -64,150 33,0 64,-7 94,-20 28,-13 49,-36 48,-61 0,-1 0,-2 0,-4 0,-3 1,-6 2,-7 4,-4 8,-7 14,-7 26,-7 58,-5 77,-19 19,-15 15,-40 7,-61 -22,-56 -54,-109 -74,-165 -6,-14 -9,-30 -9,-46 0,-5 0,-9 1,-13 4,-20 16,-38 26,-57 22,-40 36,-84 43,-130 3,-26 3,-52 -10,-77 -15,-27 -47,-48 -85,-56 -73,-16 -112,20 -169,43 -43,18 -92,50 -87,92l-1 2z"/>
  <path class="fil2" d="M3616 4838c6,0 12,-1 18,-1 12,-51 62,-97 64,-150 1,-34 -19,-68 -53,-91 -26,-17 -63,-31 -65,-57 0,-11 4,-23 10,-33 16,-30 29,-62 38,-94 2,-6 3,-10 3,-16 0,-4 0,-7 -1,-10 -4,-12 -15,-21 -26,-30 -25,-21 -50,-44 -72,-68 -10,-11 -21,-23 -22,-37 -5,-41 44,-74 87,-92 45,-19 78,-45 126,-47 -57,-4 -93,26 -143,47 -43,18 -92,50 -87,92 2,14 12,26 22,37 22,24 47,47 72,68 11,9 22,19 26,30 1,4 1,7 1,10 0,6 -1,11 -3,16 -9,33 -21,64 -38,94 -7,9 -10,21 -10,33 3,25 39,40 65,57 35,22 55,57 53,91 -2,52 -52,98 -64,150z"/>
  <path class="fil2" d="M4010 4369c0,-126 -103,-229 -229,-229 -126,0 -229,103 -229,229 0,126 103,229 229,229 126,0 229,-103 229,-229z"/>
  <circle class="fil14" cx="3784" cy="4361" r="229"/>
  <g id="_3026423620208">
   <path class="fil19" d="M3643 4253c-18,-6 -36,-12 -49,-28 -12,-16 -14,-45 1,-58 8,-6 18,-9 27,-12 38,-17 45,-77 71,-114 16,-24 43,-38 71,-38 3,0 5,0 7,0 16,4 32,8 48,14 38,10 79,2 118,9 76,14 134,85 165,165 15,36 24,76 36,114 17,58 38,114 63,169 5,13 12,25 21,36 24,25 67,23 82,56 8,19 5,41 2,62 -3,21 -5,43 -5,64 0,50 7,99 22,146 17,52 48,105 96,112 -19,26 -54,23 -78,5 -22,-19 -36,-48 -51,-75 -13,-22 -28,-45 -44,-64 -8,-12 -20,-22 -34,-29 -33,-13 -67,14 -96,37 -24,20 -50,37 -79,41 -3,1 -7,1 -9,1 -27,0 -51,-18 -60,-43 -11,-37 11,-88 -13,-115 -8,-9 -21,-13 -32,-21 -31,-22 -35,-72 -31,-115 4,-43 13,-89 -4,-126 -9,-19 -22,-36 -39,-49 -69,-64 -149,-117 -236,-154l27 7 -1 2zm0 0l0 0 0 0z"/>
  </g>
  <g id="_3026423620048">
   <path class="fil20" d="M4065 4863c-3,1 -7,1 -9,1 -27,0 -51,-18 -60,-44 -11,-37 11,-88 -13,-115 -8,-9 -21,-13 -32,-21 -31,-22 -35,-72 -31,-115 5,-43 13,-89 -4,-126 -9,-19 -22,-36 -39,-49 -69,-64 -149,-117 -236,-155l27 7c-18,-6 -36,-12 -49,-28 -12,-16 -14,-45 1,-58 8,-6 18,-9 27,-12 39,-17 45,-77 71,-114 8,-12 20,-22 33,-29 -24,4 -45,18 -59,37 -26,37 -33,97 -71,114 -9,3 -19,7 -27,12 -15,13 -13,42 -1,58 12,16 31,22 49,28l-27 -7c86,38 165,91 236,155 16,13 30,30 39,49 17,37 7,83 4,126 -5,43 0,93 31,115 10,7 23,11 32,21 24,27 2,78 13,115 8,26 33,43 60,43 3,0 7,0 9,-1 11,-2 21,-5 32,-9 -2,1 -4,1 -6,2l0 0z"/>
   <path class="fil2" d="M4369 4951c-22,-19 -36,-48 -51,-75 -13,-22 -28,-45 -44,-64 -8,-12 -20,-22 -34,-29 -7,-2 -13,-4 -20,-4 -11,0 -22,3 -32,9 2,0 5,-1 7,-1 7,0 12,1 19,4 13,7 25,17 34,29 17,21 31,42 44,64 15,27 29,57 51,75 20,15 48,20 67,6 0,0 -1,0 -1,0 -15,0 -29,-5 -40,-14l0 0z"/>
  </g>
  <polygon class="fil10" points="7716,5792 7530,5795 7145,5095 7081,4978 7129,4682 7168,4753 "/>
  <polygon class="fil10" points="6030,4932 5953,5047 5724,4736 5619,4594 5682,4509 5730,4568 "/>
  <path class="fil2" d="M5730 4568c0,6 1,12 1,18l-7 150 -105 -142 64 -85 49 59 -1 0z"/>
  <polygon class="fil2" points="7168,4753 7145,5095 7081,4978 7129,4682 "/>
  <path class="fil10" d="M5512 4786c0,0 -93,-688 243,-791 5,-1 8,-2 13,-3 78,-9 796,-93 1170,7 0,0 255,38 252,176l-113 1676 -184 0 60 -1107c0,0 88,-482 -58,-516 -145,-34 -807,-88 -1039,-21 0,0 -170,-38 -143,381l-11 225 -192 -24 2 -2z"/>
  <path class="fil4" d="M6071 4991c0,-3 0,-6 0,-9 0,-34 -16,-65 -44,-86 -51,-39 -209,-123 -209,-123l-51 4 -154 382 10 812 278 343 171 -1324 0 2z"/>
  <path class="fil2" d="M6071 4991c0,-3 0,-6 0,-9 0,-34 -16,-65 -44,-86 -51,-39 -209,-123 -209,-123l-51 4 -154 382 10 812 278 343 171 -1324 0 2z"/>
  <path class="fil4" d="M4963 5842l6 -834c0,0 -24,-323 169,-329 0,0 456,4 654,67 19,6 31,22 31,42 0,7 -2,15 -6,21 -39,68 -106,250 -138,717l0 500 -715 -185 -1 0z"/>
  <polygon class="fil4" points="5925,6375 5096,6355 5095,6355 4687,6346 4734,5801 4960,5809 5681,5969 5900,6315 "/>
  <polygon class="fil2" points="5925,6375 5096,6355 5095,6355 4687,6346 4734,5801 4960,5809 5681,5969 5900,6315 "/>
  <polygon class="fil4" points="5925,6375 5096,6355 5081,5990 5681,5969 5900,6315 "/>
  <path class="fil21" d="M5095 6355l-407 -9 48 -545c0,0 127,204 348,190l13 365 -1 -1z"/>
  <path class="fil10" d="M8021 6796c-17,156 -127,132 -127,132l-21 -2 -206 -19 8 -243c0,0 112,-7 208,12 78,16 144,50 137,119l-1 1z"/>
  <path class="fil22" d="M5167 4427c0,0 -379,173 -406,222 -27,50 -214,263 -214,263l81 136 375 -297 164 -323 -1 -1z"/>
  <path class="fil23" d="M4878 5309l-176 -26 -129 152c0,0 -179,89 -201,128 -21,39 -86,153 -115,154 -29,1 -56,43 -56,60 0,17 -109,207 -136,219 -27,11 -74,73 -73,85 1,12 -102,135 -102,135 0,0 -176,274 -201,283 -26,8 -127,186 -152,207 -25,21 -97,40 -89,57 8,17 185,258 174,326 0,0 131,-104 136,-136 6,-32 167,-200 167,-200l850 -883 164 -556 -62 -4 1 -1z"/>
  <path class="fil2" d="M5349 5593c0,0 35,401 -81,462 -116,61 -194,54 -217,80 -22,27 -158,50 -173,75 -14,24 -395,237 -395,237 0,0 -261,153 -301,187 -41,34 -263,131 -301,177 -38,46 -276,196 -276,196 0,0 -69,-214 -150,-233 0,0 193,-38 204,-68 11,-30 69,-63 69,-63 0,0 274,-159 282,-194 8,-36 76,-87 76,-87 0,0 108,-149 149,-163 40,-14 278,-258 278,-258 0,0 162,-85 179,-113 18,-28 323,-187 323,-187l-349 -433 110 -34 326 88 59 106 186 225 1 -1z"/>
  <path class="fil23" d="M5368 5599c0,0 36,401 -80,462 -116,61 -194,54 -217,80 -22,27 -158,50 -173,75 -14,24 -395,237 -395,237 0,0 -261,153 -301,186 -41,33 -263,131 -301,177 -38,46 -276,196 -276,196 0,0 -70,-214 -150,-233 0,0 193,-37 204,-68 11,-31 69,-63 69,-63 0,0 274,-159 282,-194 8,-36 76,-87 76,-87 0,0 108,-149 149,-163 40,-14 278,-258 278,-258 0,0 162,-85 179,-113 18,-28 -138,-399 -138,-399l114 -221 110 -34 326 88 59 106 186 226 -1 -1z"/>
  <path class="fil24" d="M5755 4549l-266 185c0,0 -322,-120 -194,-167 83,-32 113,-193 124,-302 6,-56 6,-97 6,-97 0,0 363,-1 296,115 -15,27 -23,58 -23,89 0,6 0,11 1,16 5,86 57,162 57,162l0 0z"/>
  <path class="fil2" d="M5698 4387c-19,5 -38,7 -58,7 -92,0 -177,-50 -222,-129 6,-56 6,-97 6,-97 0,0 363,-1 296,115 -15,27 -23,58 -23,89 0,6 0,10 1,16l0 0z"/>
  <path class="fil24" d="M5886 4206c-32,108 -132,183 -246,183 -141,0 -256,-115 -256,-256 0,-141 115,-256 256,-256 141,0 256,115 256,256 0,17 -2,33 -5,49 -2,7 -4,16 -6,23l0 1z"/>
  <path class="fil2" d="M5375 4445c0,0 -45,0 -48,64 -3,64 -48,59 -48,59l-210 218c0,0 -94,225 -93,235 1,9 -21,48 -16,66 5,20 -2,78 -20,73 -18,-6 -47,13 -47,41 0,29 -148,117 -141,138 6,21 422,242 422,242l173 134 162 -300 135 -414 75 -240 62 -69 -28 -163c0,0 -25,-70 -47,-61 -21,10 -97,93 -169,100 -72,7 -114,16 -131,0 -17,-16 -119,-27 -29,-123l-1 1z"/>
  <path class="fil2" d="M5389 4423c0,0 -53,2 -56,65 -3,64 -48,59 -48,59l-210 218c0,0 -94,225 -93,235 1,9 -21,48 -17,66 5,20 -2,78 -20,73 -18,-6 -47,13 -47,41 0,29 -148,117 -141,138 7,21 421,242 421,242l173 134 162 -300 135 -414 76 -240 62 -69 -28 -163c0,0 -25,-70 -47,-61 -21,10 -97,93 -169,100 -72,7 -114,16 -131,0 -17,-16 -7,-35 -21,-125l1 1z"/>
  <path class="fil25" d="M5387 4430c0,0 -53,2 -56,65 -3,64 -48,59 -48,59l-210 218c0,0 -94,225 -93,235 1,9 -21,48 -17,66 5,20 -2,78 -20,73 -18,-6 -47,13 -47,41 0,29 -148,117 -141,138 7,21 421,242 421,242l173 134 162 -300 135 -414 76 -240 62 -69 -28 -163c0,0 -25,-70 -47,-60 -21,10 -97,93 -169,100 -72,7 -114,16 -131,0 -17,-16 -7,-34 -21,-125l0 0z"/>
  <path class="fil2" d="M5389 4430c-25,-3 -50,-7 -74,-14 -26,-9 -121,-2 -121,-2 0,0 -109,7 -129,38 -21,32 -107,202 -136,213 -30,10 -206,294 -242,319 -36,25 -192,329 -192,329 0,0 115,-54 167,25 1,2 3,4 4,7 50,89 97,21 97,21 0,0 167,-152 180,-179 13,-26 112,-225 137,-280 25,-55 240,-327 248,-339 7,-12 60,-136 60,-136l0 -1z"/>
  <path class="fil22" d="M5389 4430c-29,-4 -58,-10 -87,-19 -26,-9 -121,-2 -121,-2 0,0 -109,7 -129,38 -21,32 -107,202 -136,213 -30,10 -206,294 -242,320 -36,25 -192,329 -192,329 0,0 115,-54 167,25 1,2 3,4 4,7 50,88 97,21 97,21 0,0 167,-152 180,-179 13,-26 112,-225 137,-280 25,-55 240,-327 248,-339 7,-12 73,-133 73,-133l0 -1z"/>
  <path class="fil2" d="M5709 4440c0,0 138,100 156,131 18,31 198,125 198,125 0,0 68,126 58,171 -10,45 -21,89 -12,112 8,24 14,24 1,56 -13,32 -8,35 9,64 19,29 -273,117 -273,117 0,0 -39,6 -43,24 -4,19 -227,509 -260,587 -32,78 -134,390 -220,393 -85,5 -20,1 -20,1 0,0 13,-253 -39,-341 -52,-88 51,-426 51,-426 0,0 346,-994 392,-1016l1 2z"/>
  <path class="fil22" d="M5709 4440c0,0 151,104 169,135 18,30 199,125 199,125 0,0 68,126 58,171 -10,45 -21,89 -12,112 8,24 14,24 1,56 -13,32 -8,35 9,64 19,29 -273,117 -273,117 0,0 -39,7 -43,24 -4,19 -228,509 -260,588 -33,78 -134,389 -220,393 -85,5 -20,1 -20,1 0,0 13,-253 -39,-341 -52,-88 52,-426 52,-426 0,0 332,-998 378,-1020l0 1z"/>
  <path class="fil24" d="M5884 5442c0,0 -307,68 -316,88 -9,20 -263,170 -130,243 133,73 342,-103 342,-103l165 -106 -62 -122 0 0z"/>
  <path class="fil22" d="M6021 5034c5,2 111,69 111,69 0,0 50,167 62,207 11,41 39,114 37,127 -2,14 31,90 -21,124 -51,35 -106,29 -130,52 -24,23 -195,97 -217,103 -21,6 107,-254 -51,-294 0,0 113,10 119,-9 6,-20 12,-71 -8,-90 -21,-19 -112,-108 -112,-108l211 -181 0 0z"/>
  <path class="fil2" d="M5892 4182c-13,-7 -24,-19 -31,-32 -10,-21 -21,-45 -43,-50 -12,-3 -27,1 -36,-8 -7,-7 -7,-19 -7,-28 0,-1 0,-1 0,-2 0,-22 -7,-44 -19,-63 -12,-19 -34,-30 -56,-30 -1,0 -1,0 -2,0 -32,2 -59,31 -91,25 -14,-3 -27,-12 -40,-8 -6,2 -10,5 -14,8 -29,22 -51,53 -64,88 -13,33 -17,68 -33,100 -7,12 -18,26 -31,21 -21,-7 -9,-32 -21,-44 -5,-4 -10,-6 -16,-7 -1,-7 -1,-14 -1,-21 0,-141 114,-255 255,-255 141,0 255,114 255,255 0,17 -2,33 -5,50l0 0 0 0z"/>
  <path class="fil26" d="M5426 4196c13,4 25,-9 31,-21 15,-32 20,-67 33,-100 13,-35 36,-64 65,-88 4,-4 9,-7 14,-8 13,-4 27,6 40,8 31,6 59,-23 91,-25 1,0 1,0 2,0 22,0 44,11 56,30 12,19 19,40 19,63 0,1 0,1 0,2 0,9 0,21 7,28 9,9 24,6 36,8 22,6 33,30 43,50 10,21 32,41 52,33 7,-3 11,-7 18,-9 12,-4 26,3 37,-4 14,-8 9,-29 1,-43 -8,-14 -20,-29 -14,-44 4,-7 8,-14 15,-19 15,-17 22,-38 22,-62 0,-25 -10,-50 -28,-67 -8,-7 -19,-14 -27,-21 -17,-16 -26,-38 -39,-59 -16,-24 -37,-44 -62,-58 -11,-7 -23,-11 -36,-12 -18,-1 -35,6 -52,7 -59,6 -109,-41 -167,-54 -5,-2 -9,-3 -15,-3 -8,0 -18,3 -25,7 -11,9 -14,25 -20,39 -11,30 -39,50 -69,62 -35,13 -78,21 -93,54 -12,29 4,63 -3,93 -5,24 -23,43 -37,64 -14,21 -24,48 -12,69 7,11 19,21 32,24 16,7 52,3 64,14 11,10 1,37 21,43l0 -2z"/>
  <path class="fil2" d="M6003 5326c6,1 112,20 137,55 25,36 -137,-55 -137,-55z"/>
  <path class="fil2" d="M5951 5213c0,0 116,26 130,37 13,11 -130,-37 -130,-37z"/>
  <path class="fil2" d="M5988 4926c0,0 85,37 95,61 9,23 -95,-61 -95,-61z"/>
  <path class="fil2" d="M4897 5894c8,7 219,162 202,167 -17,6 -202,-167 -202,-167z"/>
  <path class="fil2" d="M4896 5992c0,0 122,60 102,84 -21,25 -102,-84 -102,-84z"/>
  <g id="_3026348105120">
   <path class="fil2" d="M5364 3970c6,-26 -6,-55 -1,-80 0,0 0,0 0,1 -12,28 3,62 -3,92 2,-4 3,-7 4,-12z"/>
   <path class="fil2" d="M5962 4062c-1,3 -1,6 -1,8 4,-5 7,-9 12,-14 10,-11 18,-25 21,-40 -4,10 -9,20 -17,27 -7,6 -11,11 -15,19l0 0z"/>
   <path class="fil2" d="M5975 4149c-10,7 -25,0 -37,4 -7,2 -12,7 -18,9 -21,8 -42,-12 -52,-33 -10,-21 -21,-45 -43,-50 -12,-3 -28,1 -36,-8 -7,-7 -7,-19 -7,-28 0,-1 0,-1 0,-2 0,-22 -7,-44 -19,-63 -13,-19 -34,-30 -57,-30 0,0 -1,0 -1,0 -32,2 -59,31 -91,25 -14,-3 -27,-12 -40,-8 -6,2 -10,5 -14,8 -29,22 -51,53 -65,88 -4,9 -7,19 -9,29 2,-6 4,-10 6,-15 13,-35 36,-64 65,-88 4,-4 9,-7 14,-8 13,-4 27,6 40,8 31,6 59,-23 91,-25 0,0 1,0 2,0 22,0 44,11 56,30 12,19 19,40 19,63 0,1 0,1 0,2 0,9 0,21 7,28 9,9 24,6 36,8 22,6 33,30 43,50 10,21 32,41 52,33 7,-3 11,-7 18,-9 12,-4 26,3 37,-4 6,-4 8,-9 8,-16 0,0 0,-1 0,-1 -1,2 -3,3 -5,5l0 0 0 -2z"/>
   <path class="fil2" d="M5462 4162c-6,12 -18,26 -31,21 -21,-6 -9,-32 -21,-43 -11,-11 -47,-7 -64,-14 -13,-5 -24,-13 -32,-24 -4,-7 -6,-14 -6,-21 0,-4 0,-7 1,-11 -4,7 -6,15 -6,23 0,8 2,16 6,23 7,11 19,21 32,24 16,7 52,3 64,14 11,10 1,37 21,43 13,4 25,-9 31,-21 7,-13 11,-28 15,-42 -3,10 -7,20 -11,29l0 0 1 -1z"/>
  </g>
  <path class="fil2" d="M5027 4651c0,0 -84,125 -74,151 10,26 74,-151 74,-151z"/>
  <path class="fil2" d="M5039 5059c0,0 45,19 61,36 16,18 -61,-36 -61,-36z"/>
  <path class="fil2" d="M5138 5186c0,0 95,23 103,38 8,15 -103,-38 -103,-38z"/>
  <path class="fil2" d="M5154 5317c0,0 86,11 95,45 9,34 -95,-45 -95,-45z"/>
  <path class="fil2" d="M8021 6796c-17,156 -127,132 -127,132l-21 -2c-21,-34 -33,-73 -33,-113 0,-2 0,-3 0,-5 0,-54 18,-103 44,-132 78,16 144,50 137,119l-1 1z"/>
  <path class="fil12" d="M4842 4748c-188,0 -340,206 -340,460 0,253 152,459 340,459 188,0 340,-206 340,-459 0,-253 -152,-460 -340,-460zm-48 822c-143,0 -259,-150 -259,-334 0,-184 116,-333 259,-333 143,0 259,150 259,333 0,184 -116,334 -259,334z"/>
  <polygon class="fil12" points="4859,5349 5018,5505 5076,5364 4845,5231 "/>
  <polygon class="fil4" points="5094,3801 5232,3818 5283,3879 5206,4230 5040,4794 4931,5182 4855,5418 4807,5729 4757,5943 4611,6089 4315,5738 4266,5621 4149,5383 4451,5242 4782,5213 4938,4814 5065,4351 "/>
  <g id="_3026348100736">
   <polygon class="fil4" points="2292,5472 2111,6991 4390,6895 4126,6150 3688,5864 4692,5880 4697,5464 4292,5376 3474,5310 2860,5282 2273,5475 "/>
  </g>
  <path class="fil2" d="M2292 5472l-181 1520 2279 -96 -264 -746 -438 -285 1004 17 6 -417 -406 -88 -817 -65 -614 -27 -587 192m20 -3z"/>
  <path class="fil12" d="M5406 6986c0,378 -125,722 -474,683 -439,-9 -474,-307 -474,-683 0,-378 212,-659 474,-659 262,0 474,281 474,659z"/>
  <path class="fil2" d="M5409 6987c0,-293 -127,-527 -306,-618 -230,44 -406,307 -406,652 0,309 23,564 273,651 322,11 438,-322 438,-686l0 0z"/>
  <polygon class="fil4" points="5853,6393 5719,6547 5960,6506 6140,6340 6301,6019 6527,5879 7082,5955 7596,5975 7785,5807 7573,5778 7359,5773 6822,5761 6182,5744 6050,6094 5951,6335 "/>
  <path class="fil4" d="M7695 7019c-11,17 -370,71 -370,71l-993 181 -1706 24 -200 -170 -106 19 -5 1 -1405 250 -22 -3 -383 -54 -1999 -285 22 -291 13 -171 27 -356 20 -93 179 -17 83 -7 1297 -119 170 -16 95 -8 927 -126 1352 33 6 -417 535 -1645c118,20 115,99 115,99l-455 1550 -6 951c947,95 978,-110 1127,-41l181 -579 1591 8c64,77 -91,1212 -91,1212l0 -1z"/>
  <polygon class="fil4" points="3749,6154 4253,7237 4423,7293 4464,7117 4275,6517 4081,6168 "/>
  <polygon class="fil27" points="3749,6154 4253,7237 4423,7293 4464,7117 4275,6517 4081,6168 "/>
  <ellipse class="fil12" cx="3420" cy="7348" rx="914" ry="1036"/>
  <path class="fil2" d="M3746 6376c-479,34 -857,484 -857,1035 0,444 246,822 592,970 479,-34 857,-484 857,-1035 0,-444 -246,-822 -592,-970z"/>
  <path class="fil4" d="M970 5535l-45 213 -138 653 -595 -58c0,0 -36,-109 58,-150 0,0 31,-371 140,-488 12,-13 26,-23 43,-30l537 -140 0 0z"/>
  <path class="fil21" d="M925 5749l-138 653 -595 -58c0,0 -36,-109 58,-150 0,0 31,-371 140,-488l536 43 0 0z"/>
  <path class="fil4" d="M2311 5592c77,129 -109,1316 -109,1316l-1462 -241 52 -1039c30,-186 140,-208 140,-208 516,-261 1700,-316 1700,-316 1080,41 2065,359 2065,359 -1228,-189 -2386,129 -2386,129l0 1z"/>
  <path class="fil2" d="M2202 6908l-1462 -241 52 -1039c30,-186 140,-208 140,-208 0,0 1066,-102 1379,173 77,129 -109,1316 -109,1316l-1 0z"/>
  <path class="fil4" d="M2047 6840l-1222 -206 43 -887c25,-159 117,-178 117,-178 0,0 892,-87 1153,148 64,110 -92,1123 -92,1123l1 -1z"/>
  <path class="fil2" d="M2114 6110c0,-168 -75,-305 -167,-305 -93,0 -167,136 -167,305 0,168 75,305 167,305 93,0 167,-136 167,-305z"/>
  <ellipse class="fil10" cx="1947" cy="6103" rx="167" ry="305"/>
  <path class="fil11" d="M1968 5878c0,0 -68,11 -33,102 36,91 41,137 41,137 0,0 68,36 65,-82 -3,-118 -74,-156 -74,-156l0 -1z"/>
  <path class="fil2" d="M1207 5990c0,-157 -70,-284 -156,-284 -86,0 -156,127 -156,284 0,157 70,284 156,284 86,0 156,-127 156,-284z"/>
  <ellipse class="fil10" cx="1050" cy="5982" rx="156" ry="284"/>
  <path class="fil11" d="M1072 5757c0,0 -68,11 -33,102 36,91 41,137 41,137 0,0 68,36 65,-82 -3,-118 -74,-156 -74,-156l0 -1z"/>
  <path class="fil2" d="M1754 5853c-11,112 -65,946 -65,946l-93 -16 -51 -8 -69 -11 -8 -1 -272 -45 53 -884c4,-58 52,-104 110,-104 1,0 1,0 2,0 1,0 3,0 4,0 1,0 3,0 4,0 19,2 39,4 60,6 8,1 18,2 27,3 26,3 53,7 79,11 13,3 27,5 40,7 22,5 44,9 64,15 13,4 26,7 37,12 49,18 81,40 78,69l2 0z"/>
  <path class="fil4" d="M1361 5729l-53 993 -30 -3 52 -987c8,-2 17,-3 26,-3 2,0 3,0 5,0l0 0 0 -1z"/>
  <path class="fil4" d="M1456 5737l-50 1004 -47 0 69 -1007c8,1 18,2 27,3z"/>
  <path class="fil4" d="M1576 5756l-79 1007 -30 0 0 -1 69 -1012c13,2 27,5 40,7l-1 -1z"/>
  <path class="fil4" d="M1677 5783l-80 1000 0 2 -52 -6 0 -5 94 -1004c14,4 26,7 38,12z"/>
  <path class="fil2" d="M561 6558c0,0 -101,-521 130,-547 230,-27 987,29 965,243 -22,213 -47,539 -47,539l-156 -35c0,0 117,-490 -65,-508 -182,-19 -632,-70 -632,-70 0,0 -122,-21 -51,408l-142 -30 -1 -1z"/>
  <path class="fil10" d="M561 6607c0,0 -101,-553 130,-580 230,-27 987,29 965,243 -22,213 -47,539 -47,539l-156 -35c0,0 117,-490 -65,-508 -182,-19 -632,-69 -632,-69 0,0 -122,12 -51,442l-142 -32 -1 0z"/>
  <path class="fil4" d="M4626 7295l-203 -3c-148,-652 -393,-1059 -393,-1059 -82,-44 -982,-38 -982,-38 -93,17 -118,313 -118,313 0,0 79,68 3,112 -35,20 -148,23 -278,17 -162,-8 -350,-33 -447,-64 -176,-55 -36,-156 -36,-156 0,0 24,-33 41,-214 11,-106 46,-207 100,-299 7,-12 12,-20 12,-20 9,-8 21,-16 32,-20 233,-97 1372,-5 1372,-5l422 135c12,5 30,35 52,82 134,286 420,1218 420,1218l1 0z"/>
  <path class="fil2" d="M4626 7295l-203 -3c-148,-652 -393,-1059 -393,-1059 -82,-44 -982,-38 -982,-38 -93,17 -118,313 -118,313 0,0 79,68 3,112 -35,20 -148,23 -278,17 -162,-8 -350,-33 -447,-64 -176,-55 -36,-156 -36,-156 0,0 24,-33 41,-214 11,-106 46,-207 100,-299 7,-12 12,-20 12,-20 9,-8 21,-16 32,-20 233,-97 1372,-5 1372,-5l422 135c12,5 30,35 52,82 134,286 420,1218 420,1218l1 0z"/>
  <path class="fil4" d="M4206 6078c-390,-151 -1465,-71 -1465,-71 -114,-97 -329,-104 -426,-101 7,-12 12,-20 12,-20 9,-8 21,-16 32,-20 233,-97 1372,-5 1372,-5l422 135c11,5 30,35 52,82l0 -1z"/>
  <path class="fil4" d="M2805 6048c-24,85 -126,425 -126,425 -10,54 -18,109 -22,164 -162,-8 -350,-33 -447,-64 -176,-55 -36,-156 -36,-156 0,0 24,-33 41,-214 12,-113 50,-222 112,-318 9,-8 20,-16 32,-20 152,36 464,118 445,182l1 -1z"/>
  <path class="fil21" d="M2805 6048c-24,85 -126,425 -126,425 -10,54 -18,109 -22,164 -162,-8 -350,-33 -447,-64 -176,-55 -36,-156 -36,-156 0,0 24,-33 41,-214 12,-113 50,-222 112,-318 9,-8 20,-16 32,-20 152,36 464,118 445,182l1 -1z"/>
  <path class="fil4" d="M3056 3888c-109,17 -156,243 -156,243l-296 990 2093 343 535 -1645c-492,-222 -2176,70 -2176,70l0 -1zm1684 1057c0,0 -12,94 -93,103l-1357 -53 -279 -11 -93 -4 -7 0c0,0 -103,19 -87,-68 0,0 113,-822 313,-884 0,0 21,-5 57,-11 57,-11 152,-28 264,-43 50,-7 104,-13 159,-20 150,-15 313,-23 447,-10 0,0 999,-93 928,130 0,0 -209,805 -253,872l0 0z"/>
  <path class="fil4" d="M2919 4980l-7 0c0,0 -103,19 -87,-68 0,0 113,-822 313,-884 0,0 21,-5 57,-11 -73,141 -305,625 -277,964z"/>
  <path class="fil2" d="M2919 4980l-7 0c0,0 -103,19 -87,-68 0,0 113,-822 313,-884 0,0 21,-5 57,-11 -73,141 -305,625 -277,964z"/>
  <path class="fil2" d="M3103 7009c-23,43 -68,70 -117,70 -3,0 -5,0 -7,0l-42 -2 -395 -17 -143 -7 -132 -11 -1738 -282 13 -171 200 29 83 12 1227 176 162 23 79 11 332 -3 359 -3c1,0 2,0 3,0 17,0 35,4 50,9 31,12 56,36 69,66 7,14 10,30 10,47 0,19 -5,36 -13,52l0 0 1 -1z"/>
  <path class="fil10" d="M3103 7026c-23,43 -68,70 -117,70 -3,0 -5,0 -7,0l-579 -25 -132 -11 -1853 -301 -146 -23 -79 -13c-156,-33 -109,-190 -109,-190 11,-71 279,-137 367,-135 59,2 67,93 66,152 0,29 -3,50 -3,50l87 12 1695 243 692 -5c1,0 2,0 3,0 51,0 98,30 121,77 7,14 10,30 10,46 0,19 -5,36 -13,52l0 0 -2 0z"/>
  <path class="fil2" d="M321 6497c0,0 74,91 190,104 0,0 -47,-102 -190,-104z"/>
  <path class="fil2" d="M301 6752c0,0 -244,-6 -244,126 0,132 153,153 153,153l2180 420 620 11c0,0 217,-173 -8,-250l-625 16 -2079 -381c0,0 55,-74 3,-96l0 1z"/>
  <path class="fil10" d="M3010 7479l-620 -11 -1938 -373 -142 -27 -100 -20c0,0 -153,-22 -153,-153 0,-94 126,-119 197,-124 28,-2 48,-2 48,-2 52,21 -3,96 -3,96l76 14 2003 367 625 -17c225,77 8,250 8,250l-1 0z"/>
  <path class="fil10" d="M485 6646l129 -58 65 -3 -6 554 -203 -41 -85 -55 -41 -230c0,0 17,-96 24,-104 8,-8 115,-64 115,-64l1 0z"/>
  <path class="fil2" d="M485 6646l129 -58 65 -3 -6 554 -203 -41 -85 -55 -41 -230c0,0 17,-96 24,-104 8,-8 115,-64 115,-64l1 0z"/>
  <path class="fil2" d="M452 7095l3 3 -143 -27 -2 -3c-75,-121 -81,-220 -57,-297 28,-2 48,-2 48,-2 52,21 -3,96 -3,96l76 14c-5,108 64,199 79,217l0 -1z"/>
  <path class="fil2" d="M664 6586c-24,9 -47,19 -67,29 -93,45 -150,94 -182,145l-146 -23c64,-131 214,-192 214,-192l31 7 150 34 0 1z"/>
  <path class="fil10" d="M498 6544c0,0 -400,159 -170,526l143 27c0,0 -282,-323 208,-513l-181 -41 0 1z"/>
  <polygon class="fil10" points="1453,6722 1601,6717 1577,7312 1338,7268 1237,7219 1190,7101 1157,6983 1237,6876 1327,6816 "/>
  <polygon class="fil2" points="1453,6722 1601,6717 1577,7312 1338,7268 1237,7219 1190,7101 1157,6983 1237,6876 1327,6816 "/>
  <ellipse class="fil10" cx="1437" cy="7029" rx="71" ry="121"/>
  <path class="fil10" d="M919 7366c-21,-105 -101,-127 -101,-127 0,0 -154,-45 -158,126 0,0 2,105 72,138l4 117c0,0 7,109 -55,99 -62,-10 -53,-107 -53,-107 0,0 -33,-103 -113,-50 0,0 -19,58 22,87 24,17 25,51 21,77 -1,6 -1,11 -1,17 0,27 9,52 27,73 20,23 49,37 79,37 7,0 13,-1 20,-2 34,-7 64,-24 86,-50 37,-41 59,-94 60,-150l3 -150c0,0 109,-29 89,-134l-2 -2zm-278 540c-49,0 -88,-39 -88,-88 0,-49 39,-88 88,-88 49,0 88,39 88,88 -84,-15 -145,-88 -145,-174 0,-97 79,-177 177,-177 10,0 21,1 32,3l-150 435 -1 1z"/>
  <path class="fil12" d="M756 7193c-15,6 -24,21 -24,36 0,7 2,12 5,18 16,30 36,69 34,79 -3,18 36,3 41,-1 5,-4 76,0 80,-49 4,-49 -38,-74 -38,-74l17 -106 -97 -8 1 96 -18 7 0 1z"/>
  <path class="fil2" d="M756 7193c-15,6 -24,21 -24,36 0,7 2,12 5,18 16,30 36,69 34,79 -3,18 36,3 41,-1 5,-4 76,0 80,-49 4,-49 -38,-74 -38,-74l17 -106 -97 -8 1 96 -18 7 0 1z"/>
  <path class="fil2" d="M783 7192c0,0 33,113 19,117 -14,4 -19,-117 -19,-117z"/>
  <path class="fil2" d="M821 7164c0,0 33,113 19,117 -14,4 -19,-117 -19,-117z"/>
  <path class="fil12" d="M1214 6823l-55 340c0,0 -68,-9 -106,-18 -8,-1 -16,-4 -23,-7 -2,-2 -6,-2 -11,-1l0 0c-19,4 -50,19 -57,6 0,-1 -1,-2 -2,-3l0 0c-7,-7 -19,-2 -31,0 -2,1 -5,1 -7,1 -5,0 -9,-1 -13,-4 -9,-7 -31,4 -48,7 -10,3 -20,2 -24,-7 -3,-7 -9,-10 -17,-11l0 0c-16,-4 -38,-1 -50,-4 -5,-1 -8,-3 -9,-7 -3,-7 -17,-11 -32,-14 -19,-4 -38,-7 -39,-13 0,-3 -2,-4 -5,-4 -10,2 -21,4 -30,7l0 0c-8,2 -15,2 -17,-4 -2,-6 -11,-6 -22,-3 -8,2 -19,6 -26,7 -7,2 -11,2 -12,-2 -3,-11 -38,14 -47,-8 -8,-22 -121,-168 25,-357 0,0 39,3 69,8 10,1 20,4 29,8l0 0c10,6 33,5 53,7 10,0 21,3 29,7 4,2 7,5 8,8 5,10 15,12 26,12 16,-1 33,-7 39,-4l1 0c11,5 54,0 62,7l1 1c3,5 20,0 37,-3l0 0c13,-2 27,-2 34,6 7,6 15,8 23,8 1,0 3,0 4,0 4,0 7,0 11,0 7,0 16,1 23,2 3,1 5,2 7,5 7,8 23,7 39,8 1,0 1,0 2,0 7,0 14,2 21,6 3,2 5,3 7,4 21,5 66,-4 66,-4l65 11 0 -1z"/>
  <path class="fil2" d="M616 7087c-8,2 -19,6 -26,7 -111,-173 -18,-304 36,-358 10,1 20,4 29,8 -112,129 -60,291 -38,342z"/>
  <path class="fil2" d="M686 7086c-10,2 -21,4 -30,7l0 0c-95,-168 3,-294 52,-343 10,0 21,3 29,7 -107,117 -75,262 -51,329z"/>
  <path class="fil2" d="M772 7123c-5,-1 -8,-3 -9,-7 -3,-7 -17,-11 -32,-14 -83,-152 -8,-270 42,-325 16,-1 33,-7 39,-4l1 0c-118,133 -61,300 -40,350l-1 0z"/>
  <path class="fil2" d="M863 7147c-10,3 -20,2 -24,-7 -3,-7 -9,-10 -16,-12l0 0c-97,-170 2,-297 51,-346l1 1c3,5 20,0 37,-3 -138,140 -67,325 -49,367l-1 0z"/>
  <path class="fil2" d="M960 7142c-7,-7 -19,-2 -31,0 -102,-169 -8,-296 43,-349 4,0 7,0 11,0 7,0 16,1 23,2 -119,128 -70,291 -47,347z"/>
  <path class="fil2" d="M1054 7147c-8,-1 -16,-4 -23,-7 -2,-2 -6,-2 -11,-1l0 0c-90,-154 -18,-273 34,-331 1,0 1,0 2,0 7,0 14,2 21,6 3,2 5,3 7,4 -98,127 -49,280 -28,330l-1 0z"/>
  <ellipse class="fil12" cx="3712" cy="7397" rx="447" ry="658"/>
  <path class="fil2" d="M4023 7407c0,-294 -146,-534 -325,-534 -179,0 -325,239 -325,534 0,294 146,534 325,534 179,0 325,-239 325,-534z"/>
  <ellipse class="fil11" cx="3697" cy="7390" rx="325" ry="534"/>
  <ellipse class="fil12" cx="3756" cy="7032" rx="38" ry="65"/>
  <ellipse class="fil12" cx="3910" cy="7608" rx="38" ry="65"/>
  <ellipse class="fil12" cx="3496" cy="7334" rx="38" ry="65"/>
  <ellipse class="fil12" cx="3609" cy="7718" rx="38" ry="65"/>
  <path class="fil4" d="M6984 6179c0,0 321,856 305,909 0,0 136,82 168,62 33,-21 4,-399 4,-399l-62 -333 -70 -197 -346 -41 1 -1z"/>
  <path class="fil27" d="M6984 6179c0,0 321,856 305,909 0,0 136,82 168,62 33,-21 4,-399 4,-399l-62 -333 -70 -197 -346 -41 1 -1z"/>
  <ellipse class="fil12" cx="3965" cy="7251" rx="38" ry="65"/>
  <ellipse class="fil12" cx="3756" cy="7410" rx="112" ry="156"/>
  <path class="fil12" d="M7342 7322c0,495 -164,946 -622,896 -576,-12 -622,-402 -622,-896 0,-495 278,-864 621,-864 343,0 622,368 622,864l1 0z"/>
  <path class="fil2" d="M7346 7323c0,-383 -166,-692 -401,-810 -301,57 -533,404 -533,855 0,406 31,740 358,855 422,15 576,-422 576,-900z"/>
  <path class="fil2" d="M7585 7113c0,0 -82,70 -127,21 0,0 -111,-889 -250,-893l-481 -4c0,0 -58,24 -82,132l-311 886 -1705 24 -130 -273 1411 4 0 -1c7,-27 243,-869 402,-974l0 0c6,-4 11,-7 18,-8 7,-2 588,-78 781,-24 0,0 202,45 250,107l0 0c7,7 83,93 107,341l120 662 -2 0z"/>
  <path class="fil4" d="M7585 7130c0,0 -82,70 -127,21 0,0 -111,-889 -250,-893l-481 -4c0,0 -58,24 -82,132l-311 886 -1705 24 -130 -273 1411 4 0 -1c7,-27 243,-869 402,-974l0 0c6,-4 11,-7 18,-8 7,-2 588,-78 781,-24 0,0 202,45 250,107l0 1c7,7 83,93 107,341l120 662 -2 -1z"/>
  <path class="fil2" d="M7585 7130c0,0 -82,70 -127,21 0,0 -111,-889 -250,-893l-481 -4c0,0 -58,24 -82,132l-311 886 -1705 24 -130 -273 1411 4 0 -1c7,-27 243,-869 402,-974l0 0c6,-4 11,-7 18,-8 7,-2 588,-78 781,-24 0,0 202,45 250,107l0 1c7,7 83,93 107,341l120 662 -2 -1z"/>
  <path class="fil4" d="M6540 6159c-41,78 -395,1041 -395,1041l-238 -173 0 -1c7,-27 243,-870 402,-974 103,17 260,53 232,107z"/>
  <path class="fil4" d="M6080 5719l-193 634 -1007 -29 8 94c0,0 790,115 1127,-41l181 -579 1591 8 -303 -71 -1403 -16 -1 -1z"/>
  <path class="fil21" d="M6080 5719l-193 634 -1007 -29 8 94c0,0 790,115 1127,-41l181 -579 1591 8 -303 -71 -1403 -16 -1 -1z"/>
  <path class="fil2" d="M1354 6717c0,0 -540,272 -140,526l107 24c0,0 -393,-282 263,-551l-230 0 0 1z"/>
  <path class="fil10" d="M1371 6717c0,0 -540,272 -140,526l107 24c0,0 -393,-282 263,-551l-230 0 0 1z"/>
  <ellipse class="fil12" cx="6960" cy="7393" rx="300" ry="514"/>
  <path class="fil2" d="M7168 7404c0,-230 -98,-417 -219,-417 -121,0 -219,187 -219,417 0,230 98,417 219,417 121,0 219,-187 219,-417z"/>
  <ellipse class="fil11" cx="6950" cy="7387" rx="219" ry="417"/>
  <ellipse class="fil12" cx="6989" cy="7107" rx="26" ry="51"/>
  <ellipse class="fil12" cx="7092" cy="7558" rx="26" ry="51"/>
  <ellipse class="fil12" cx="6814" cy="7344" rx="26" ry="51"/>
  <ellipse class="fil12" cx="6890" cy="7643" rx="26" ry="51"/>
  <ellipse class="fil12" cx="7129" cy="7279" rx="26" ry="51"/>
  <ellipse class="fil12" cx="6989" cy="7404" rx="76" ry="122"/>
  <path class="fil2" d="M2599 5106c0,0 913,33 2098,358l-2098 -358z"/>
  <path class="fil10" d="M6956 3507c0,0 -50,8 -23,74 26,65 30,99 30,99 0,0 50,26 48,-60 -2,-85 -54,-113 -54,-113z"/>
  <path class="fil24" d="M4527 4834l-1 1c-10,13 -17,28 -20,45 -8,52 -16,159 60,141 43,-9 81,-31 113,-62 16,-17 25,-40 25,-64 0,-2 0,-3 0,-5l0 0c0,0 0,0 0,-1 0,-23 -12,-46 -31,-59l-28 -16c-7,-5 -16,-7 -25,-7 -1,0 -1,0 -2,0l-49 2c-17,1 -33,10 -43,23l0 0z"/>
  <path class="fil4" d="M5074 3942l-146 722 -103 218 68 126 150 -355c0,0 165,-521 165,-536 0,-15 -136,-176 -136,-176l1 0z"/>
  <g id="_3026348127168">
   <g>
    <rect class="fil28" x="9527" y="5170" width="1404" height="2582"/>
    <rect class="fil29" x="10851" y="5170" width="79" height="2582"/>
    <rect class="fil30" x="10702" y="5170" width="229" height="147"/>
    <g id="_1906627505520">
     <path class="fil31" d="M10790 7693l0 -202c-179,-69 -335,-189 -446,-343l0 286c126,116 278,206 446,259l0 0z"/>
     <path class="fil31" d="M10790 5638l0 -202c-168,52 -320,143 -446,259l0 286c111,-153 267,-273 446,-343l0 0z"/>
    </g>
    <rect class="fil32" x="9296" y="5170" width="1404" height="2582"/>
    <rect class="fil29" x="10601" y="5170" width="99" height="2582"/>
    <rect class="fil30" x="9296" y="5170" width="1404" height="147"/>
    <path class="fil32" d="M10586 3834l-1106 397c-136,49 -227,179 -227,323l0 616c0,34 27,61 61,61l1621 0 0 -1284c0,-52 -42,-99 -94,-101l-254 -15 0 2 0 1z"/>
    <path class="fil29" d="M10595 5231l347 0 0 -1286c0,-63 -50,-113 -113,-113l-236 0 0 1397 2 2z"/>
    <path class="fil25" d="M10157 5035c-7,-8 -340,-490 -340,-490l162 0 -175 -286 281 -7 94 418 -135 0 113 362 -2 2 1 1z"/>
    <path class="fil33" d="M9743 6439c0,88 71,160 160,160 88,0 160,-71 160,-160 0,-88 -71,-160 -160,-160 -88,0 -160,71 -160,160z"/>
   </g>
   <path class="fil29" d="M7466 6204l-448 0c-19,0 -34,-15 -34,-34l0 -293c0,-19 15,-34 34,-34l448 0c19,0 34,15 34,34l0 293c0,19 -15,34 -34,34z"/>
   <path class="fil33" d="M7375 6021c0,74 -59,133 -133,133 -74,0 -133,-59 -133,-133 0,-74 59,-133 133,-133 74,0 133,59 133,133z"/>
   <g id="_1906627482192">
    <path class="fil34" d="M8880 7681l-611 0c-586,0 -1065,-477 -1065,-1065l0 -594c0,-21 17,-37 37,-37 21,0 37,17 37,37l0 594c0,544 443,988 988,988l611 0c544,0 988,-443 988,-988l0 -179c0,-21 17,-37 37,-37 21,0 37,17 37,37l0 179c0,586 -477,1065 -1065,1065l4 0 2 0z"/>
   </g>
  </g>
 </g>
</svg>
